<svg xmlns="http://www.w3.org/2000/svg" width="1050" height="214" viewBox="0 0 1050 214">
  <g id="_9" data-name="9" transform="translate(6635 4366)">
    <path id="Trazado_121661" data-name="Trazado 121661" d="M5,0H1045a5,5,0,0,1,5,5V209a5,5,0,0,1-5,5H5a5,5,0,0,1-5-5V5A5,5,0,0,1,5,0Z" transform="translate(-6635 -4366)" fill="#fff"/>
    <path id="Trazado_121674" data-name="Trazado 121674" d="M10,0H140a10,10,0,0,1,10,10V43a10,10,0,0,1-10,10H10A10,10,0,0,1,0,43V10A10,10,0,0,1,10,0Z" transform="translate(-6217 -4320)" fill="#6b8dff"/>
    <path id="Trazado_121680" data-name="Trazado 121680" d="M10,0H128a10,10,0,0,1,10,10V43a10,10,0,0,1-10,10H10A10,10,0,0,1,0,43V10A10,10,0,0,1,10,0Z" transform="translate(-6376 -4320)" fill="#6b8dff"/>
    <path id="Trazado_121688" data-name="Trazado 121688" d="M10,0H145a10,10,0,0,1,10,10V43a10,10,0,0,1-10,10H10A10,10,0,0,1,0,43V10A10,10,0,0,1,10,0Z" transform="translate(-6575 -4320)" fill="#6b8dff"/>
    <g id="Trazado_121675" data-name="Trazado 121675" transform="translate(-6217 -4258)" fill="#fff">
      <path d="M 140 58.5 L 10 58.5 C 4.761680126190186 58.5 0.5 54.23831939697266 0.5 49 L 0.5 10 C 0.5 4.761680126190186 4.761680126190186 0.5 10 0.5 L 140 0.5 C 145.2383270263672 0.5 149.5 4.761680126190186 149.5 10 L 149.5 49 C 149.5 54.23831939697266 145.2383270263672 58.5 140 58.5 Z" stroke="none"/>
      <path d="M 10 1 C 5.037384033203125 1 1 5.037380218505859 1 10 L 1 49 C 1 53.96261978149414 5.037384033203125 58 10 58 L 140 58 C 144.9626159667969 58 149 53.96261978149414 149 49 L 149 10 C 149 5.037380218505859 144.9626159667969 1 140 1 L 10 1 M 10 0 L 140 0 C 145.5228424072266 0 150 4.477161407470703 150 10 L 150 49 C 150 54.5228385925293 145.5228424072266 59 140 59 L 10 59 C 4.477157592773438 59 0 54.5228385925293 0 49 L 0 10 C 0 4.477161407470703 4.477157592773438 0 10 0 Z" stroke="none" fill="#ff5f65"/>
    </g>
    <g id="Trazado_121681" data-name="Trazado 121681" transform="translate(-6376 -4258)" fill="#fff">
      <path d="M 128 26.5 L 10 26.5 C 4.761691093444824 26.5 0.5 22.23830986022949 0.5 17 L 0.5 10 C 0.5 4.761691093444824 4.761691093444824 0.5 10 0.5 L 128 0.5 C 133.2383117675781 0.5 137.5 4.761691093444824 137.5 10 L 137.5 17 C 137.5 22.23830986022949 133.2383117675781 26.5 128 26.5 Z" stroke="none"/>
      <path d="M 10 1 C 5.037384033203125 1 1 5.037382125854492 1 10 L 1 17 C 1 21.96261787414551 5.037384033203125 26 10 26 L 128 26 C 132.9626159667969 26 137 21.96261787414551 137 17 L 137 10 C 137 5.037382125854492 132.9626159667969 1 128 1 L 10 1 M 10 0 L 128 0 C 133.5228424072266 0 138 4.477146148681641 138 10 L 138 17 C 138 22.52285385131836 133.5228424072266 27 128 27 L 10 27 C 4.477157592773438 27 0 22.52285385131836 0 17 L 0 10 C 0 4.477146148681641 4.477157592773438 0 10 0 Z" stroke="none" fill="#ff5f65"/>
    </g>
    <g id="Trazado_121689" data-name="Trazado 121689" transform="translate(-6575 -4258)" fill="#fff">
      <path d="M 145 26.5 L 10 26.5 C 4.761680126190186 26.5 0.5 22.23831939697266 0.5 17 L 0.5 10 C 0.5 4.761680126190186 4.761680126190186 0.5 10 0.5 L 145 0.5 C 150.2383270263672 0.5 154.5 4.761680126190186 154.5 10 L 154.5 17 C 154.5 22.23831939697266 150.2383270263672 26.5 145 26.5 Z" stroke="none"/>
      <path d="M 10 1 C 5.037384033203125 1 1 5.037380218505859 1 10 L 1 17 C 1 21.96261978149414 5.037384033203125 26 10 26 L 145 26 C 149.9626159667969 26 154 21.96261978149414 154 17 L 154 10 C 154 5.037380218505859 149.9626159667969 1 145 1 L 10 1 M 10 0 L 145 0 C 150.5228424072266 0 155 4.47715950012207 155 10 L 155 17 C 155 22.52284049987793 150.5228424072266 27 145 27 L 10 27 C 4.477157592773438 27 0 22.52284049987793 0 17 L 0 10 C 0 4.47715950012207 4.477157592773438 0 10 0 Z" stroke="none" fill="#ff5f65"/>
    </g>
    <g id="Trazado_121682" data-name="Trazado 121682" transform="translate(-6376 -4226)" fill="#fff">
      <path d="M 128 26.5 L 10 26.5 C 4.761691093444824 26.5 0.5 22.23830986022949 0.5 17 L 0.5 10 C 0.5 4.761691093444824 4.761691093444824 0.5 10 0.5 L 128 0.5 C 133.2383117675781 0.5 137.5 4.761691093444824 137.5 10 L 137.5 17 C 137.5 22.23830986022949 133.2383117675781 26.5 128 26.5 Z" stroke="none"/>
      <path d="M 10 1 C 5.037384033203125 1 1 5.037382125854492 1 10 L 1 17 C 1 21.96261787414551 5.037384033203125 26 10 26 L 128 26 C 132.9626159667969 26 137 21.96261787414551 137 17 L 137 10 C 137 5.037382125854492 132.9626159667969 1 128 1 L 10 1 M 10 0 L 128 0 C 133.5228424072266 0 138 4.477146148681641 138 10 L 138 17 C 138 22.52285385131836 133.5228424072266 27 128 27 L 10 27 C 4.477157592773438 27 0 22.52285385131836 0 17 L 0 10 C 0 4.477146148681641 4.477157592773438 0 10 0 Z" stroke="none" fill="#ff5f65"/>
    </g>
    <g id="Trazado_121690" data-name="Trazado 121690" transform="translate(-6575 -4226)" fill="#fff">
      <path d="M 145 26.5 L 10 26.5 C 4.761680126190186 26.5 0.5 22.23831939697266 0.5 17 L 0.5 10 C 0.5 4.761680126190186 4.761680126190186 0.5 10 0.5 L 145 0.5 C 150.2383270263672 0.5 154.5 4.761680126190186 154.5 10 L 154.5 17 C 154.5 22.23831939697266 150.2383270263672 26.5 145 26.5 Z" stroke="none"/>
      <path d="M 10 1 C 5.037384033203125 1 1 5.037380218505859 1 10 L 1 17 C 1 21.96261978149414 5.037384033203125 26 10 26 L 145 26 C 149.9626159667969 26 154 21.96261978149414 154 17 L 154 10 C 154 5.037380218505859 149.9626159667969 1 145 1 L 10 1 M 10 0 L 145 0 C 150.5228424072266 0 155 4.47715950012207 155 10 L 155 17 C 155 22.52284049987793 150.5228424072266 27 145 27 L 10 27 C 4.477157592773438 27 0 22.52284049987793 0 17 L 0 10 C 0 4.47715950012207 4.477157592773438 0 10 0 Z" stroke="none" fill="#ff5f65"/>
    </g>
    <g id="Trazado_121691" data-name="Trazado 121691" transform="translate(-6575 -4194)" fill="#fff">
      <path d="M 145 26.5 L 10 26.5 C 4.761680126190186 26.5 0.5 22.23831939697266 0.5 17 L 0.5 10 C 0.5 4.761680126190186 4.761680126190186 0.5 10 0.5 L 145 0.5 C 150.2383270263672 0.5 154.5 4.761680126190186 154.5 10 L 154.5 17 C 154.5 22.23831939697266 150.2383270263672 26.5 145 26.5 Z" stroke="none"/>
      <path d="M 10 1 C 5.037384033203125 1 1 5.037380218505859 1 10 L 1 17 C 1 21.96261978149414 5.037384033203125 26 10 26 L 145 26 C 149.9626159667969 26 154 21.96261978149414 154 17 L 154 10 C 154 5.037380218505859 149.9626159667969 1 145 1 L 10 1 M 10 0 L 145 0 C 150.5228424072266 0 155 4.47715950012207 155 10 L 155 17 C 155 22.52284049987793 150.5228424072266 27 145 27 L 10 27 C 4.477157592773438 27 0 22.52284049987793 0 17 L 0 10 C 0 4.47715950012207 4.477157592773438 0 10 0 Z" stroke="none" fill="#ff5f65"/>
    </g>
    <path id="Trazado_121665" data-name="Trazado 121665" d="M10,0H199a10,10,0,0,1,10,10V43a10,10,0,0,1-10,10H10A10,10,0,0,1,0,43V10A10,10,0,0,1,10,0Z" transform="translate(-6043 -4320)" fill="#6b8dff"/>
    <g id="Trazado_121667" data-name="Trazado 121667" transform="translate(-6043 -4258)" fill="#fff">
      <path d="M 199 58.5 L 10 58.5 C 4.761684417724609 58.5 0.5 54.23831558227539 0.5 49 L 0.5 10 C 0.5 4.761684417724609 4.761684417724609 0.5 10 0.5 L 199 0.5 C 204.2383117675781 0.5 208.5 4.761684417724609 208.5 10 L 208.5 49 C 208.5 54.23831558227539 204.2383117675781 58.5 199 58.5 Z" stroke="none"/>
      <path d="M 10 1 C 5.037399291992188 1 1 5.037395477294922 1 10 L 1 49 C 1 53.96260452270508 5.037399291992188 58 10 58 L 199 58 C 203.9626007080078 58 208 53.96260452270508 208 49 L 208 10 C 208 5.037395477294922 203.9626007080078 1 199 1 L 10 1 M 10 0 L 199 0 C 204.5228424072266 0 209 4.477157592773438 209 10 L 209 49 C 209 54.52284240722656 204.5228424072266 59 199 59 L 10 59 C 4.477157592773438 59 0 54.52284240722656 0 49 L 0 10 C 0 4.477157592773438 4.477157592773438 0 10 0 Z" stroke="none" fill="#ff5f65"/>
    </g>
    <path id="Trazado_121662" data-name="Trazado 121662" d="M10,0H164a10,10,0,0,1,10,10V43a10,10,0,0,1-10,10H10A10,10,0,0,1,0,43V10A10,10,0,0,1,10,0Z" transform="translate(-5806 -4320)" fill="#6b8dff"/>
    <g id="Trazado_121668" data-name="Trazado 121668" transform="translate(-5806 -4258)" fill="#fff">
      <path d="M 164 58.5 L 10 58.5 C 4.761673927307129 58.5 0.5 54.23832702636719 0.5 49 L 0.5 10 C 0.5 4.761673927307129 4.761673927307129 0.5 10 0.5 L 164 0.5 C 169.2383270263672 0.5 173.5 4.761673927307129 173.5 10 L 173.5 49 C 173.5 54.23832702636719 169.2383270263672 58.5 164 58.5 Z" stroke="none"/>
      <path d="M 10 1 C 5.037384033203125 1 1 5.037387847900391 1 10 L 1 49 C 1 53.96261215209961 5.037384033203125 58 10 58 L 164 58 C 168.9626159667969 58 173 53.96261215209961 173 49 L 173 10 C 173 5.037387847900391 168.9626159667969 1 164 1 L 10 1 M 10 0 L 164 0 C 169.5228424072266 0 174 4.477157592773438 174 10 L 174 49 C 174 54.52284240722656 169.5228424072266 59 164 59 L 10 59 C 4.477157592773438 59 0 54.52284240722656 0 49 L 0 10 C 0 4.477157592773438 4.477157592773438 0 10 0 Z" stroke="none" fill="#ff5f65"/>
    </g>
    <path id="Trazado_121695" data-name="Trazado 121695" d="M8.9-5.432H4.052v3.059h5.73V0H.967V-12.8H9.8v2.382H4.052v2.7H8.9Zm6.979,2.76a.684.684,0,0,0-.4-.606,6.016,6.016,0,0,0-1.5-.475A6.853,6.853,0,0,1,12.155-4.4a3.062,3.062,0,0,1-1.1-.971,2.319,2.319,0,0,1-.378-1.31A2.628,2.628,0,0,1,11.76-8.837a4.453,4.453,0,0,1,2.83-.848,4.934,4.934,0,0,1,3.023.853,2.666,2.666,0,0,1,1.143,2.241H15.785q0-1.143-1.2-1.143a1.194,1.194,0,0,0-.782.259.8.8,0,0,0-.316.646.737.737,0,0,0,.387.642,3.654,3.654,0,0,0,1.235.4,10.671,10.671,0,0,1,1.49.378A2.706,2.706,0,0,1,18.738-2.76,2.491,2.491,0,0,1,17.583-.642,5.068,5.068,0,0,1,14.59.176a5.172,5.172,0,0,1-2.18-.439,3.645,3.645,0,0,1-1.494-1.2A2.707,2.707,0,0,1,10.38-3.05h2.769a1.145,1.145,0,0,0,.439.962,1.808,1.808,0,0,0,1.081.3,1.422,1.422,0,0,0,.91-.246A.787.787,0,0,0,15.882-2.672Zm7.69-9.2V-9.51h1.564v2.057H23.572V-3.1a1.111,1.111,0,0,0,.193.747,1.037,1.037,0,0,0,.765.211,4.345,4.345,0,0,0,.738-.053V-.079A5.466,5.466,0,0,1,23.6.176,3.1,3.1,0,0,1,21.34-.545a2.954,2.954,0,0,1-.729-2.188v-4.72H19.4V-9.51H20.61v-2.364Zm8.481,5.045-.976-.07a1.752,1.752,0,0,0-1.793.879V0H26.323V-9.51H29.1l.1,1.222a2.294,2.294,0,0,1,2.083-1.4,2.888,2.888,0,0,1,.826.105Zm6.732,5.8a3.054,3.054,0,0,1-2.54,1.2,3,3,0,0,1-2.369-.91,3.826,3.826,0,0,1-.8-2.615V-9.51h2.962v6.179a1.065,1.065,0,0,0,1.187,1.222,1.548,1.548,0,0,0,1.45-.729V-9.51h2.979V0H38.874Zm8.508-1.081a1.317,1.317,0,0,0,.967-.338,1.241,1.241,0,0,0,.334-.945h2.777A3.288,3.288,0,0,1,50.251-.826a4.168,4.168,0,0,1-2.887,1,4.22,4.22,0,0,1-3.27-1.3,5.125,5.125,0,0,1-1.2-3.6v-.123A5.792,5.792,0,0,1,43.431-7.4a3.872,3.872,0,0,1,1.534-1.7,4.573,4.573,0,0,1,2.373-.593,4.116,4.116,0,0,1,2.944,1.028,3.647,3.647,0,0,1,1.09,2.786H48.595A1.626,1.626,0,0,0,48.234-7a1.244,1.244,0,0,0-.967-.4q-1.151,0-1.345,1.468a10.357,10.357,0,0,0-.062,1.283A4.068,4.068,0,0,0,46.2-2.663,1.187,1.187,0,0,0,47.294-2.109Zm8.78-9.765V-9.51h1.564v2.057H56.074V-3.1a1.111,1.111,0,0,0,.193.747,1.037,1.037,0,0,0,.765.211,4.345,4.345,0,0,0,.738-.053V-.079A5.466,5.466,0,0,1,56.1.176a3.1,3.1,0,0,1-2.259-.721,2.954,2.954,0,0,1-.729-2.188v-4.72H51.9V-9.51h1.213v-2.364ZM64.468-1.028a3.054,3.054,0,0,1-2.54,1.2,3,3,0,0,1-2.369-.91,3.826,3.826,0,0,1-.8-2.615V-9.51h2.962v6.179A1.065,1.065,0,0,0,62.9-2.109a1.548,1.548,0,0,0,1.45-.729V-9.51h2.979V0H64.556Zm10.239-5.8-.976-.07a1.752,1.752,0,0,0-1.793.879V0H68.977V-9.51h2.777l.1,1.222a2.294,2.294,0,0,1,2.083-1.4,2.888,2.888,0,0,1,.826.105ZM80.868,0a3.344,3.344,0,0,1-.281-.853A2.754,2.754,0,0,1,78.3.176a3.374,3.374,0,0,1-2.285-.813,2.588,2.588,0,0,1-.94-2.043,2.66,2.66,0,0,1,1.143-2.338,5.821,5.821,0,0,1,3.322-.791h.914v-.5q0-1.316-1.134-1.316a.927.927,0,0,0-1.055,1.042H75.3a2.655,2.655,0,0,1,1.173-2.239,4.931,4.931,0,0,1,2.993-.86,4.323,4.323,0,0,1,2.874.888,3.086,3.086,0,0,1,1.081,2.435v4.21a4.311,4.311,0,0,0,.4,2V0ZM79.014-1.934a1.652,1.652,0,0,0,.918-.237,1.487,1.487,0,0,0,.523-.536V-4.228h-.861q-1.547,0-1.547,1.389a.848.848,0,0,0,.272.655A.986.986,0,0,0,79.014-1.934Z" transform="translate(-6571 -4334)" fill="#12263f"/>
    <path id="Trazado_121678" data-name="Trazado 121678" d="M4.672-5.07A7.053,7.053,0,0,1,1.863-6.434a2.6,2.6,0,0,1-.879-2,2.751,2.751,0,0,1,1.074-2.223,4.269,4.269,0,0,1,2.793-.879,4.66,4.66,0,0,1,2.09.453,3.436,3.436,0,0,1,1.422,1.25,3.2,3.2,0,0,1,.5,1.742H7.359A2.08,2.08,0,0,0,6.7-9.713,2.669,2.669,0,0,0,4.852-10.3a2.732,2.732,0,0,0-1.73.489A1.632,1.632,0,0,0,2.5-8.458,1.468,1.468,0,0,0,3.09-7.28,5.785,5.785,0,0,0,5.1-6.4a9.316,9.316,0,0,1,2.219.88A3.367,3.367,0,0,1,8.5-4.4a2.861,2.861,0,0,1,.387,1.508A2.658,2.658,0,0,1,7.813-.676,4.6,4.6,0,0,1,4.93.156,5.347,5.347,0,0,1,2.742-.293a3.681,3.681,0,0,1-1.566-1.23A3,3,0,0,1,.625-3.3H2.133a1.959,1.959,0,0,0,.762,1.629,3.207,3.207,0,0,0,2.035.6,2.948,2.948,0,0,0,1.82-.484,1.573,1.573,0,0,0,.633-1.32A1.545,1.545,0,0,0,6.8-4.168,6.755,6.755,0,0,0,4.672-5.07ZM15.8-.836a3.07,3.07,0,0,1-2.477.992A2.628,2.628,0,0,1,11.27-.629a3.4,3.4,0,0,1-.715-2.324v-5.5H12v5.461Q12-1.07,13.563-1.07a2.163,2.163,0,0,0,2.2-1.234V-8.453h1.445V0H15.836Zm10.758-3.3a5.026,5.026,0,0,1-.891,3.113A2.846,2.846,0,0,1,23.281.156,2.947,2.947,0,0,1,20.8-.977L20.734,0H19.406V-12h1.445v4.477a2.93,2.93,0,0,1,2.414-1.086,2.863,2.863,0,0,1,2.418,1.164,5.177,5.177,0,0,1,.879,3.188ZM25.117-4.3a3.906,3.906,0,0,0-.57-2.281,1.888,1.888,0,0,0-1.641-.8,2.122,2.122,0,0,0-2.055,1.328V-2.4a2.181,2.181,0,0,0,2.07,1.328,1.878,1.878,0,0,0,1.617-.8A4.153,4.153,0,0,0,25.117-4.3Zm4.758-4.156V.977q0,2.437-2.211,2.438a2.7,2.7,0,0,1-.883-.14V2.125a2.794,2.794,0,0,0,.656.063.982.982,0,0,0,.738-.262,1.3,1.3,0,0,0,.254-.911V-8.453ZM28.281-10.7a.867.867,0,0,1,.215-.59.79.79,0,0,1,.629-.246.819.819,0,0,1,.641.242.854.854,0,0,1,.219.594.826.826,0,0,1-.219.586.834.834,0,0,1-.641.234.808.808,0,0,1-.633-.234A.843.843,0,0,1,28.281-10.7ZM35.711.156a3.693,3.693,0,0,1-2.8-1.129,4.19,4.19,0,0,1-1.078-3.02v-.266a5.073,5.073,0,0,1,.48-2.246A3.748,3.748,0,0,1,33.66-8.051a3.378,3.378,0,0,1,1.871-.559,3.166,3.166,0,0,1,2.563,1.086,4.7,4.7,0,0,1,.914,3.109v.6H33.281a3,3,0,0,0,.73,2.02,2.3,2.3,0,0,0,1.777.77,2.517,2.517,0,0,0,1.3-.312,3.259,3.259,0,0,0,.93-.828l.883.688A3.55,3.55,0,0,1,35.711.156Zm-.18-7.578a1.928,1.928,0,0,0-1.469.637A3.1,3.1,0,0,0,33.328-5h4.234v-.109a2.753,2.753,0,0,0-.594-1.707A1.815,1.815,0,0,0,35.531-7.422Zm8.539,6.4a2.082,2.082,0,0,0,1.352-.469,1.649,1.649,0,0,0,.641-1.172H47.43a2.621,2.621,0,0,1-.5,1.383A3.293,3.293,0,0,1,45.7-.234,3.55,3.55,0,0,1,44.07.156,3.482,3.482,0,0,1,41.324-1,4.59,4.59,0,0,1,40.3-4.148v-.242a5.089,5.089,0,0,1,.453-2.2,3.451,3.451,0,0,1,1.3-1.492,3.7,3.7,0,0,1,2-.531,3.39,3.39,0,0,1,2.363.852,3.043,3.043,0,0,1,1,2.211H46.063a1.992,1.992,0,0,0-.621-1.348,1.932,1.932,0,0,0-1.379-.527,2.023,2.023,0,0,0-1.707.793,3.724,3.724,0,0,0-.605,2.293v.273a3.65,3.65,0,0,0,.6,2.25A2.033,2.033,0,0,0,44.07-1.023ZM51.016-10.5v2.047h1.578v1.117H51.016v5.249a1.173,1.173,0,0,0,.211.763.888.888,0,0,0,.719.254,3.5,3.5,0,0,0,.688-.094V0a4.215,4.215,0,0,1-1.109.155A1.8,1.8,0,0,1,50.063-.43a2.517,2.517,0,0,1-.492-1.664V-7.336H48.031V-8.453H49.57V-10.5ZM58.531.977H57.289l4.75-12.352h1.234ZM72.375-5.07a7.053,7.053,0,0,1-2.809-1.363,2.6,2.6,0,0,1-.879-2,2.751,2.751,0,0,1,1.074-2.223,4.269,4.269,0,0,1,2.793-.879,4.66,4.66,0,0,1,2.09.453,3.436,3.436,0,0,1,1.422,1.25,3.2,3.2,0,0,1,.5,1.742H75.063a2.08,2.08,0,0,0-.656-1.627,2.669,2.669,0,0,0-1.852-.592,2.732,2.732,0,0,0-1.73.489A1.632,1.632,0,0,0,70.2-8.458a1.468,1.468,0,0,0,.59,1.178A5.785,5.785,0,0,0,72.8-6.4a9.316,9.316,0,0,1,2.219.88A3.367,3.367,0,0,1,76.207-4.4a2.861,2.861,0,0,1,.387,1.508A2.658,2.658,0,0,1,75.516-.676a4.6,4.6,0,0,1-2.883.832,5.347,5.347,0,0,1-2.187-.449,3.681,3.681,0,0,1-1.566-1.23A3,3,0,0,1,68.328-3.3h1.508A1.959,1.959,0,0,0,70.6-1.668a3.207,3.207,0,0,0,2.035.6,2.948,2.948,0,0,0,1.82-.484,1.573,1.573,0,0,0,.633-1.32A1.545,1.545,0,0,0,74.5-4.168,6.755,6.755,0,0,0,72.375-5.07ZM83.508-.836a3.07,3.07,0,0,1-2.477.992,2.628,2.628,0,0,1-2.059-.785,3.4,3.4,0,0,1-.715-2.324v-5.5H79.7v5.461q0,1.922,1.563,1.922a2.163,2.163,0,0,0,2.2-1.234V-8.453h1.445V0H83.539ZM88.6-8.453V.977q0,2.437-2.211,2.438a2.7,2.7,0,0,1-.883-.14V2.125a2.794,2.794,0,0,0,.656.063.982.982,0,0,0,.738-.262,1.3,1.3,0,0,0,.254-.911V-8.453ZM87.008-10.7a.867.867,0,0,1,.215-.59.79.79,0,0,1,.629-.246.819.819,0,0,1,.641.242.854.854,0,0,1,.219.594.826.826,0,0,1-.219.586.834.834,0,0,1-.641.234.808.808,0,0,1-.633-.234A.843.843,0,0,1,87.008-10.7ZM94.438.156a3.693,3.693,0,0,1-2.8-1.129,4.19,4.19,0,0,1-1.078-3.02v-.266a5.073,5.073,0,0,1,.48-2.246,3.748,3.748,0,0,1,1.344-1.547,3.378,3.378,0,0,1,1.871-.559A3.166,3.166,0,0,1,96.82-7.523a4.7,4.7,0,0,1,.914,3.109v.6H92.008a3,3,0,0,0,.73,2.02,2.3,2.3,0,0,0,1.777.77,2.517,2.517,0,0,0,1.3-.312,3.259,3.259,0,0,0,.93-.828l.883.688A3.55,3.55,0,0,1,94.438.156Zm-.18-7.578a1.928,1.928,0,0,0-1.469.637A3.1,3.1,0,0,0,92.055-5h4.234v-.109A2.753,2.753,0,0,0,95.7-6.816,1.815,1.815,0,0,0,94.258-7.422Zm7.109-3.078v2.047h1.578v1.117h-1.578v5.249a1.173,1.173,0,0,0,.211.763.888.888,0,0,0,.719.254,3.5,3.5,0,0,0,.688-.094V0a4.215,4.215,0,0,1-1.109.155,1.8,1.8,0,0,1-1.461-.586,2.517,2.517,0,0,1-.492-1.664V-7.336H98.383V-8.453h1.539V-10.5Zm2.727,6.2a4.993,4.993,0,0,1,.488-2.234,3.643,3.643,0,0,1,1.359-1.531,3.7,3.7,0,0,1,1.988-.539,3.565,3.565,0,0,1,2.793,1.2,4.6,4.6,0,0,1,1.066,3.18v.1a5.036,5.036,0,0,1-.473,2.215,3.589,3.589,0,0,1-1.352,1.527,3.743,3.743,0,0,1-2.02.547,3.556,3.556,0,0,1-2.785-1.2A4.575,4.575,0,0,1,104.094-4.2Zm1.453.172a3.616,3.616,0,0,0,.652,2.258,2.088,2.088,0,0,0,1.746.852,2.075,2.075,0,0,0,1.75-.863,3.955,3.955,0,0,0,.648-2.418,3.61,3.61,0,0,0-.66-2.254,2.1,2.1,0,0,0-1.754-.863,2.075,2.075,0,0,0-1.727.852A3.925,3.925,0,0,0,105.547-4.133Z" transform="translate(-6199 -4288)" fill="#12263f"/>
    <path id="Trazado_121683" data-name="Trazado 121683" d="M-48.031-2.977H-52.8L-53.867,0h-1.547l4.344-11.375h1.313L-45.406,0h-1.539ZM-52.344-4.2h3.867l-1.937-5.32ZM-38.969-.836a3.07,3.07,0,0,1-2.477.992A2.628,2.628,0,0,1-43.5-.629a3.4,3.4,0,0,1-.715-2.324v-5.5h1.445v5.461q0,1.922,1.563,1.922a2.163,2.163,0,0,0,2.2-1.234V-8.453h1.445V0h-1.375Zm6.438-4.531,1.875-3.086h1.688l-2.766,4.18L-28.883,0h-1.672l-1.953-3.164L-34.461,0h-1.68l2.852-4.273-2.766-4.18h1.672ZM-25.867,0h-1.445V-8.453h1.445ZM-27.43-10.7a.863.863,0,0,1,.215-.594.807.807,0,0,1,.637-.242.819.819,0,0,1,.641.242.854.854,0,0,1,.219.594.826.826,0,0,1-.219.586.834.834,0,0,1-.641.234.821.821,0,0,1-.637-.234A.834.834,0,0,1-27.43-10.7ZM-21.984,0H-23.43V-12h1.445ZM-18.1,0h-1.445V-8.453H-18.1Zm-1.562-10.7a.863.863,0,0,1,.215-.594.807.807,0,0,1,.637-.242.819.819,0,0,1,.641.242.854.854,0,0,1,.219.594.826.826,0,0,1-.219.586.834.834,0,0,1-.641.234.821.821,0,0,1-.637-.234A.834.834,0,0,1-19.664-10.7ZM-10.57,0a3.036,3.036,0,0,1-.2-.891A3.225,3.225,0,0,1-13.18.156,2.984,2.984,0,0,1-15.23-.551a2.287,2.287,0,0,1-.8-1.793,2.39,2.39,0,0,1,1-2.051,4.733,4.733,0,0,1,2.824-.73H-10.8v-.664A1.623,1.623,0,0,0-11.25-7a1.821,1.821,0,0,0-1.336-.449,2.107,2.107,0,0,0-1.3.391,1.151,1.151,0,0,0-.523.945h-1.453a2,2,0,0,1,.449-1.223,3.066,3.066,0,0,1,1.219-.934A4.1,4.1,0,0,1-12.5-8.609a3.342,3.342,0,0,1,2.289.73,2.635,2.635,0,0,1,.859,2.012v3.891a4.757,4.757,0,0,0,.3,1.852V0Zm-2.4-1.1a2.54,2.54,0,0,0,1.289-.352,2.127,2.127,0,0,0,.883-.914V-4.1H-11.93q-2.656,0-2.656,1.555a1.316,1.316,0,0,0,.453,1.063A1.742,1.742,0,0,0-12.969-1.1ZM-3-7.156a4.331,4.331,0,0,0-.711-.055A1.9,1.9,0,0,0-5.641-6V0H-7.086V-8.453H-5.68l.023.977A2.251,2.251,0,0,1-3.641-8.609,1.477,1.477,0,0,1-3-8.5ZM1.094-2.117,3.063-8.453H4.609L1.211,1.3Q.422,3.414-1.3,3.414l-.273-.023-.539-.1V2.117l.391.031a1.923,1.923,0,0,0,1.145-.3A2.148,2.148,0,0,0,.1.766l.32-.859L-2.594-8.453h1.578Zm9.844-10.031.828.563a3.685,3.685,0,0,0-.75,2.141v1.063H9.578v-.906a3.584,3.584,0,0,1,.379-1.578A3.783,3.783,0,0,1,10.938-12.148Zm2.461,0,.828.563a3.685,3.685,0,0,0-.75,2.141v1.063H12.039v-.906a3.584,3.584,0,0,1,.379-1.578A3.783,3.783,0,0,1,13.4-12.148ZM17.477-10.5v2.047h1.578v1.117H17.477v5.249a1.173,1.173,0,0,0,.211.763.888.888,0,0,0,.719.254,3.5,3.5,0,0,0,.688-.094V0a4.215,4.215,0,0,1-1.109.155A1.8,1.8,0,0,1,16.523-.43a2.517,2.517,0,0,1-.492-1.664V-7.336H14.492V-8.453h1.539V-10.5ZM20.2-4.3a4.993,4.993,0,0,1,.488-2.234A3.643,3.643,0,0,1,22.051-8.07a3.7,3.7,0,0,1,1.988-.539,3.565,3.565,0,0,1,2.793,1.2A4.6,4.6,0,0,1,27.9-4.234v.1a5.036,5.036,0,0,1-.473,2.215A3.589,3.589,0,0,1,26.074-.391a3.743,3.743,0,0,1-2.02.547,3.556,3.556,0,0,1-2.785-1.2A4.575,4.575,0,0,1,20.2-4.2Zm1.453.172a3.616,3.616,0,0,0,.652,2.258,2.088,2.088,0,0,0,1.746.852,2.075,2.075,0,0,0,1.75-.863A3.955,3.955,0,0,0,26.453-4.3a3.61,3.61,0,0,0-.66-2.254,2.1,2.1,0,0,0-1.754-.863,2.075,2.075,0,0,0-1.727.852A3.925,3.925,0,0,0,21.656-4.133Zm19.172,0a5.026,5.026,0,0,1-.891,3.113A2.846,2.846,0,0,1,37.547.156,2.947,2.947,0,0,1,35.07-.977L35,0H33.672V-12h1.445v4.477a2.93,2.93,0,0,1,2.414-1.086,2.863,2.863,0,0,1,2.418,1.164,5.177,5.177,0,0,1,.879,3.188ZM39.383-4.3a3.906,3.906,0,0,0-.57-2.281,1.888,1.888,0,0,0-1.641-.8,2.122,2.122,0,0,0-2.055,1.328V-2.4a2.181,2.181,0,0,0,2.07,1.328,1.878,1.878,0,0,0,1.617-.8A4.153,4.153,0,0,0,39.383-4.3ZM46.156.156a3.693,3.693,0,0,1-2.8-1.129,4.19,4.19,0,0,1-1.078-3.02v-.266a5.073,5.073,0,0,1,.48-2.246,3.748,3.748,0,0,1,1.344-1.547,3.378,3.378,0,0,1,1.871-.559,3.166,3.166,0,0,1,2.563,1.086,4.7,4.7,0,0,1,.914,3.109v.6H43.727a3,3,0,0,0,.73,2.02,2.3,2.3,0,0,0,1.777.77,2.517,2.517,0,0,0,1.3-.312,3.259,3.259,0,0,0,.93-.828l.883.688A3.55,3.55,0,0,1,46.156.156Zm-.18-7.578a1.928,1.928,0,0,0-1.469.637A3.1,3.1,0,0,0,43.773-5h4.234v-.109a2.753,2.753,0,0,0-.594-1.707A1.815,1.815,0,0,0,45.977-7.422Zm5.234-.75-.82-.562a3.761,3.761,0,0,0,.75-2.141V-12h1.43v1.016a3.613,3.613,0,0,1-.387,1.559A3.6,3.6,0,0,1,51.211-8.172Zm2.4,0-.82-.562a3.761,3.761,0,0,0,.75-2.141V-12h1.43v1.016a3.613,3.613,0,0,1-.387,1.559A3.6,3.6,0,0,1,53.609-8.172Zm-97.855,25.2h-4.766L-50.082,20h-1.547l4.344-11.375h1.313L-41.621,20H-43.16ZM-48.559,15.8h3.867l-1.937-5.32Zm13.375,3.367a3.07,3.07,0,0,1-2.477.992,2.628,2.628,0,0,1-2.059-.785,3.4,3.4,0,0,1-.715-2.324v-5.5h1.445v5.461q0,1.922,1.563,1.922a2.163,2.163,0,0,0,2.2-1.234V11.547h1.445V20h-1.375Zm6.438-4.531,1.875-3.086h1.688l-2.766,4.18L-25.1,20H-26.77l-1.953-3.164L-30.676,20h-1.68l2.852-4.273-2.766-4.18H-30.6ZM-22.082,20h-1.445V11.547h1.445ZM-23.645,9.3a.863.863,0,0,1,.215-.594.807.807,0,0,1,.637-.242.819.819,0,0,1,.641.242.854.854,0,0,1,.219.594.826.826,0,0,1-.219.586.834.834,0,0,1-.641.234.821.821,0,0,1-.637-.234A.834.834,0,0,1-23.645,9.3ZM-18.2,20h-1.445V8H-18.2Zm3.883,0h-1.445V11.547h1.445ZM-15.879,9.3a.863.863,0,0,1,.215-.594.807.807,0,0,1,.637-.242.819.819,0,0,1,.641.242.854.854,0,0,1,.219.594.826.826,0,0,1-.219.586.834.834,0,0,1-.641.234.821.821,0,0,1-.637-.234A.834.834,0,0,1-15.879,9.3ZM-6.785,20a3.036,3.036,0,0,1-.2-.891,3.225,3.225,0,0,1-2.406,1.047,2.984,2.984,0,0,1-2.051-.707,2.287,2.287,0,0,1-.8-1.793,2.39,2.39,0,0,1,1-2.051,4.733,4.733,0,0,1,2.824-.73h1.406v-.664A1.623,1.623,0,0,0-7.465,13,1.821,1.821,0,0,0-8.8,12.555a2.107,2.107,0,0,0-1.3.391,1.151,1.151,0,0,0-.523.945h-1.453a2,2,0,0,1,.449-1.223,3.066,3.066,0,0,1,1.219-.934,4.1,4.1,0,0,1,1.691-.344,3.342,3.342,0,0,1,2.289.73,2.635,2.635,0,0,1,.859,2.012v3.891a4.757,4.757,0,0,0,.3,1.852V20Zm-2.4-1.1a2.54,2.54,0,0,0,1.289-.352,2.127,2.127,0,0,0,.883-.914V15.9H-8.145q-2.656,0-2.656,1.555a1.316,1.316,0,0,0,.453,1.063A1.742,1.742,0,0,0-9.184,18.9ZM.785,12.844a4.331,4.331,0,0,0-.711-.055A1.9,1.9,0,0,0-1.855,14v6H-3.3V11.547h1.406l.023.977A2.251,2.251,0,0,1,.145,11.391a1.477,1.477,0,0,1,.641.109ZM7.152,7.852l.828.563a3.685,3.685,0,0,0-.75,2.141v1.063H5.793v-.906a3.584,3.584,0,0,1,.379-1.578A3.783,3.783,0,0,1,7.152,7.852Zm2.461,0,.828.563a3.685,3.685,0,0,0-.75,2.141v1.063H8.254v-.906a3.584,3.584,0,0,1,.379-1.578A3.783,3.783,0,0,1,9.613,7.852ZM13.691,9.5v2.047H15.27v1.117H13.691v5.249a1.173,1.173,0,0,0,.211.763.888.888,0,0,0,.719.254,3.5,3.5,0,0,0,.688-.094V20a4.215,4.215,0,0,1-1.109.155,1.8,1.8,0,0,1-1.461-.586,2.517,2.517,0,0,1-.492-1.664V12.664H10.707V11.547h1.539V9.5Zm2.727,6.2a4.993,4.993,0,0,1,.488-2.234,3.643,3.643,0,0,1,1.359-1.531,3.7,3.7,0,0,1,1.988-.539,3.565,3.565,0,0,1,2.793,1.2,4.6,4.6,0,0,1,1.066,3.18v.1a5.036,5.036,0,0,1-.473,2.215,3.589,3.589,0,0,1-1.352,1.527,3.743,3.743,0,0,1-2.02.547,3.556,3.556,0,0,1-2.785-1.2A4.575,4.575,0,0,1,16.418,15.8Zm1.453.172a3.616,3.616,0,0,0,.652,2.258,2.211,2.211,0,0,0,3.5-.012,3.955,3.955,0,0,0,.648-2.418,3.61,3.61,0,0,0-.66-2.254,2.1,2.1,0,0,0-1.754-.863,2.075,2.075,0,0,0-1.727.852A3.925,3.925,0,0,0,17.871,15.867Zm19.172,0a5.026,5.026,0,0,1-.891,3.113,2.846,2.846,0,0,1-2.391,1.176,2.947,2.947,0,0,1-2.477-1.133l-.07.977H29.887V8h1.445v4.477a2.93,2.93,0,0,1,2.414-1.086,2.863,2.863,0,0,1,2.418,1.164,5.177,5.177,0,0,1,.879,3.188ZM35.6,15.7a3.906,3.906,0,0,0-.57-2.281,1.888,1.888,0,0,0-1.641-.8,2.122,2.122,0,0,0-2.055,1.328V17.6A2.181,2.181,0,0,0,33.4,18.93a1.878,1.878,0,0,0,1.617-.8A4.153,4.153,0,0,0,35.6,15.7Zm6.773,4.453a3.693,3.693,0,0,1-2.8-1.129,4.19,4.19,0,0,1-1.078-3.02v-.266a5.073,5.073,0,0,1,.48-2.246,3.748,3.748,0,0,1,1.344-1.547,3.378,3.378,0,0,1,1.871-.559,3.166,3.166,0,0,1,2.563,1.086,4.7,4.7,0,0,1,.914,3.109v.6H39.941a3,3,0,0,0,.73,2.02,2.3,2.3,0,0,0,1.777.77,2.517,2.517,0,0,0,1.3-.312,3.259,3.259,0,0,0,.93-.828l.883.688A3.55,3.55,0,0,1,42.371,20.156Zm-.18-7.578a1.928,1.928,0,0,0-1.469.637A3.1,3.1,0,0,0,39.988,15h4.234v-.109a2.753,2.753,0,0,0-.594-1.707A1.815,1.815,0,0,0,42.191,12.578Zm5.234-.75-.82-.562a3.761,3.761,0,0,0,.75-2.141V8h1.43V9.016a3.613,3.613,0,0,1-.387,1.559A3.6,3.6,0,0,1,47.426,11.828Zm2.4,0L49,11.266a3.761,3.761,0,0,0,.75-2.141V8h1.43V9.016a3.613,3.613,0,0,1-.387,1.559A3.6,3.6,0,0,1,49.824,11.828Z" transform="translate(-6307 -4298)" fill="#12263f"/>
    <path id="Trazado_121692" data-name="Trazado 121692" d="M-31.008-3.586l.219,1.5.32-1.352,2.25-7.937h1.266l2.2,7.938.313,1.375.242-1.531,1.766-7.781h1.508L-23.687,0h-1.367L-27.4-8.289l-.18-.867-.18.867L-30.187,0h-1.367L-34.3-11.375h1.5ZM-10.523,0h-1.508V-5.258h-5.734V0h-1.5V-11.375h1.5v4.891h5.734v-4.891h1.508Zm5.445-4.242H-8.891v-1.18h3.813ZM7.773-1.992,9.4-8.453h1.445L8.383,0H7.211L5.156-6.406,3.156,0H1.984L-.469-8.453H.969L2.633-2.125,4.6-8.453H5.766ZM11.93-4.3a4.993,4.993,0,0,1,.488-2.234A3.643,3.643,0,0,1,13.777-8.07a3.7,3.7,0,0,1,1.988-.539,3.565,3.565,0,0,1,2.793,1.2,4.6,4.6,0,0,1,1.066,3.18v.1a5.036,5.036,0,0,1-.473,2.215A3.589,3.589,0,0,1,17.8-.391a3.743,3.743,0,0,1-2.02.547A3.556,3.556,0,0,1,13-1.039,4.575,4.575,0,0,1,11.93-4.2Zm1.453.172a3.616,3.616,0,0,0,.652,2.258,2.088,2.088,0,0,0,1.746.852,2.075,2.075,0,0,0,1.75-.863A3.955,3.955,0,0,0,18.18-4.3a3.61,3.61,0,0,0-.66-2.254,2.1,2.1,0,0,0-1.754-.863,2.075,2.075,0,0,0-1.727.852A3.925,3.925,0,0,0,13.383-4.133ZM25.523-7.156a4.331,4.331,0,0,0-.711-.055A1.9,1.9,0,0,0,22.883-6V0H21.438V-8.453h1.406l.023.977a2.251,2.251,0,0,1,2.016-1.133,1.477,1.477,0,0,1,.641.109ZM26.5-4.3a4.952,4.952,0,0,1,.922-3.129,2.915,2.915,0,0,1,2.414-1.184,2.932,2.932,0,0,1,2.352,1.016V-12h1.445V0H32.3l-.07-.906A2.943,2.943,0,0,1,29.82.156a2.887,2.887,0,0,1-2.395-1.2A5.008,5.008,0,0,1,26.5-4.187Zm1.445.164a3.749,3.749,0,0,0,.594,2.25,1.92,1.92,0,0,0,1.641.813A2.108,2.108,0,0,0,32.188-2.3V-6.187a2.125,2.125,0,0,0-1.992-1.2,1.929,1.929,0,0,0-1.656.82A4.128,4.128,0,0,0,27.945-4.133Zm-87.773,19.68V20h-1.5V8.625h4.2a4.215,4.215,0,0,1,2.926.953A3.231,3.231,0,0,1-53.148,12.1a3.189,3.189,0,0,1-1.035,2.551,4.4,4.4,0,0,1-2.965.895Zm0-1.227h2.7a2.7,2.7,0,0,0,1.844-.567,2.075,2.075,0,0,0,.641-1.64,2.143,2.143,0,0,0-.641-1.628,2.525,2.525,0,0,0-1.758-.634h-2.781Zm13.5,5.68a3.036,3.036,0,0,1-.2-.891,3.225,3.225,0,0,1-2.406,1.047,2.984,2.984,0,0,1-2.051-.707,2.287,2.287,0,0,1-.8-1.793,2.39,2.39,0,0,1,1-2.051,4.733,4.733,0,0,1,2.824-.73h1.406v-.664A1.623,1.623,0,0,0-47.008,13a1.821,1.821,0,0,0-1.336-.449,2.107,2.107,0,0,0-1.3.391,1.151,1.151,0,0,0-.523.945h-1.453a2,2,0,0,1,.449-1.223,3.066,3.066,0,0,1,1.219-.934,4.1,4.1,0,0,1,1.691-.344,3.342,3.342,0,0,1,2.289.73,2.635,2.635,0,0,1,.859,2.012v3.891a4.757,4.757,0,0,0,.3,1.852V20Zm-2.4-1.1a2.54,2.54,0,0,0,1.289-.352,2.127,2.127,0,0,0,.883-.914V15.9h-1.133q-2.656,0-2.656,1.555a1.316,1.316,0,0,0,.453,1.063A1.742,1.742,0,0,0-48.727,18.9Zm7.453,1.1h-1.445V8h1.445Zm7.531,0a3.036,3.036,0,0,1-.2-.891,3.225,3.225,0,0,1-2.406,1.047,2.984,2.984,0,0,1-2.051-.707,2.287,2.287,0,0,1-.8-1.793,2.39,2.39,0,0,1,1-2.051,4.733,4.733,0,0,1,2.824-.73h1.406v-.664A1.623,1.623,0,0,0-34.422,13a1.821,1.821,0,0,0-1.336-.449,2.107,2.107,0,0,0-1.3.391,1.151,1.151,0,0,0-.523.945h-1.453a2,2,0,0,1,.449-1.223,3.066,3.066,0,0,1,1.219-.934,4.1,4.1,0,0,1,1.691-.344,3.342,3.342,0,0,1,2.289.73,2.635,2.635,0,0,1,.859,2.012v3.891a4.757,4.757,0,0,0,.3,1.852V20Zm-2.4-1.1a2.54,2.54,0,0,0,1.289-.352,2.127,2.127,0,0,0,.883-.914V15.9H-35.1q-2.656,0-2.656,1.555a1.316,1.316,0,0,0,.453,1.063A1.742,1.742,0,0,0-36.141,18.9ZM-23.1,15.867a5.026,5.026,0,0,1-.891,3.113,2.846,2.846,0,0,1-2.391,1.176,2.947,2.947,0,0,1-2.477-1.133l-.07.977h-1.328V8h1.445v4.477A2.93,2.93,0,0,1-26.4,11.391a2.863,2.863,0,0,1,2.418,1.164,5.177,5.177,0,0,1,.879,3.188Zm-1.445-.164a3.906,3.906,0,0,0-.57-2.281,1.888,1.888,0,0,0-1.641-.8,2.122,2.122,0,0,0-2.055,1.328V17.6a2.181,2.181,0,0,0,2.07,1.328,1.878,1.878,0,0,0,1.617-.8A4.153,4.153,0,0,0-24.547,15.7Zm7.352-2.859a4.331,4.331,0,0,0-.711-.055A1.9,1.9,0,0,0-19.836,14v6h-1.445V11.547h1.406l.023.977a2.251,2.251,0,0,1,2.016-1.133,1.477,1.477,0,0,1,.641.109ZM-10.961,20a3.036,3.036,0,0,1-.2-.891,3.225,3.225,0,0,1-2.406,1.047,2.984,2.984,0,0,1-2.051-.707,2.287,2.287,0,0,1-.8-1.793,2.39,2.39,0,0,1,1-2.051,4.733,4.733,0,0,1,2.824-.73h1.406v-.664A1.623,1.623,0,0,0-11.641,13a1.821,1.821,0,0,0-1.336-.449,2.107,2.107,0,0,0-1.3.391,1.151,1.151,0,0,0-.523.945H-16.25a2,2,0,0,1,.449-1.223,3.066,3.066,0,0,1,1.219-.934,4.1,4.1,0,0,1,1.691-.344,3.342,3.342,0,0,1,2.289.73,2.635,2.635,0,0,1,.859,2.012v3.891a4.757,4.757,0,0,0,.3,1.852V20Zm-2.4-1.1a2.54,2.54,0,0,0,1.289-.352,2.127,2.127,0,0,0,.883-.914V15.9H-12.32q-2.656,0-2.656,1.555a1.316,1.316,0,0,0,.453,1.063A1.742,1.742,0,0,0-13.359,18.9Zm13.234.078a2.082,2.082,0,0,0,1.352-.469,1.649,1.649,0,0,0,.641-1.172H3.234a2.621,2.621,0,0,1-.5,1.383A3.293,3.293,0,0,1,1.5,19.766a3.55,3.55,0,0,1-1.629.391A3.482,3.482,0,0,1-2.871,19a4.59,4.59,0,0,1-1.02-3.152v-.242a5.089,5.089,0,0,1,.453-2.2,3.451,3.451,0,0,1,1.3-1.492,3.7,3.7,0,0,1,2-.531,3.39,3.39,0,0,1,2.363.852,3.043,3.043,0,0,1,1,2.211H1.867a1.992,1.992,0,0,0-.621-1.348,1.932,1.932,0,0,0-1.379-.527,2.023,2.023,0,0,0-1.707.793,3.724,3.724,0,0,0-.605,2.293v.273a3.65,3.65,0,0,0,.6,2.25A2.033,2.033,0,0,0-.125,18.977Zm4.6-3.281a4.993,4.993,0,0,1,.488-2.234A3.643,3.643,0,0,1,6.324,11.93a3.7,3.7,0,0,1,1.988-.539,3.565,3.565,0,0,1,2.793,1.2,4.6,4.6,0,0,1,1.066,3.18v.1a5.036,5.036,0,0,1-.473,2.215,3.589,3.589,0,0,1-1.352,1.527,3.743,3.743,0,0,1-2.02.547,3.556,3.556,0,0,1-2.785-1.2A4.575,4.575,0,0,1,4.477,15.8Zm1.453.172a3.616,3.616,0,0,0,.652,2.258,2.088,2.088,0,0,0,1.746.852,2.075,2.075,0,0,0,1.75-.863,3.955,3.955,0,0,0,.648-2.418,3.61,3.61,0,0,0-.66-2.254,2.1,2.1,0,0,0-1.754-.863,2.075,2.075,0,0,0-1.727.852A3.925,3.925,0,0,0,5.93,15.867Zm9.422-4.32.047,1.063a3.08,3.08,0,0,1,2.531-1.219q2.68,0,2.7,3.023V20H19.188V14.406a1.946,1.946,0,0,0-.418-1.352,1.675,1.675,0,0,0-1.277-.437,2.086,2.086,0,0,0-1.234.375,2.546,2.546,0,0,0-.828.984V20H13.984V11.547Zm12.5-3.7.828.563a3.685,3.685,0,0,0-.75,2.141v1.063H26.492v-.906a3.584,3.584,0,0,1,.379-1.578A3.783,3.783,0,0,1,27.852,7.852Zm2.461,0,.828.563a3.685,3.685,0,0,0-.75,2.141v1.063H28.953v-.906a3.584,3.584,0,0,1,.379-1.578A3.783,3.783,0,0,1,30.313,7.852Zm4.8,8.563.219,1.5.32-1.352L37.9,8.625h1.266l2.2,7.938.313,1.375.242-1.531L43.68,8.625h1.508L42.43,20H41.063l-2.344-8.289-.18-.867-.18.867L35.93,20H34.563L31.813,8.625h1.5ZM55.594,20H54.086V14.742H48.352V20h-1.5V8.625h1.5v4.891h5.734V8.625h1.508Zm2.633-8.172-.82-.562a3.761,3.761,0,0,0,.75-2.141V8h1.43V9.016a3.613,3.613,0,0,1-.387,1.559A3.6,3.6,0,0,1,58.227,11.828Zm2.4,0-.82-.562a3.761,3.761,0,0,0,.75-2.141V8h1.43V9.016a3.613,3.613,0,0,1-.387,1.559A3.6,3.6,0,0,1,60.625,11.828Z" transform="translate(-6497 -4298)" fill="#12263f"/>
    <path id="Trazado_121679" data-name="Trazado 121679" d="M-34.531,0H-36.82l1.969-11.375h2.289Zm2.6.977h-1.734l6.2-12.352h1.742Zm8.656-8.492a2.946,2.946,0,0,1,2.289-1.094,2.143,2.143,0,0,1,1.848.9A3.548,3.548,0,0,1-18.7-5.328L-19.586,0h-2.2l.9-5.358a2.6,2.6,0,0,0,.016-.563.885.885,0,0,0-.984-.868,1.9,1.9,0,0,0-1.562.766L-24.484,0h-2.2l2.078-12H-22.4ZM-13.852.156a3.677,3.677,0,0,1-1.965-.543,3.292,3.292,0,0,1-1.277-1.469,4.093,4.093,0,0,1-.328-2.059l.023-.312a5.465,5.465,0,0,1,.719-2.266,4.341,4.341,0,0,1,1.547-1.59,3.827,3.827,0,0,1,2.094-.527,2.924,2.924,0,0,1,2.473,1.2A4.117,4.117,0,0,1-9.93-4.447l-.125.962h-5.18a1.814,1.814,0,0,0,.4,1.313,1.521,1.521,0,0,0,1.172.508A2.7,2.7,0,0,0-11.555-2.6l1.008,1.25A3.135,3.135,0,0,1-11.922-.23,4.5,4.5,0,0,1-13.852.156Zm.7-6.945a1.565,1.565,0,0,0-1.082.383,3.363,3.363,0,0,0-.848,1.383h3.031l.047-.2a2.071,2.071,0,0,0,.008-.594,1.134,1.134,0,0,0-.383-.707A1.2,1.2,0,0,0-13.148-6.789ZM-8.82.977h-1.734l6.2-12.352h1.742Zm10.2-3.359Q1.5-3.008.508-3.289L-.2-3.469q-2.523-.7-2.453-2.453A2.428,2.428,0,0,1-1.6-7.871,3.942,3.942,0,0,1,.859-8.609a3.536,3.536,0,0,1,2.313.758,2.5,2.5,0,0,1,.9,1.977L1.883-5.883A.963.963,0,0,0,.8-6.984a1.552,1.552,0,0,0-.895.258,1.061,1.061,0,0,0-.465.7q-.117.625.945.883l.313.07a6.285,6.285,0,0,1,1.648.59,2.488,2.488,0,0,1,.879.824,2.04,2.04,0,0,1,.285,1.18A2.251,2.251,0,0,1,3-1.078a3.18,3.18,0,0,1-1.359.93A4.736,4.736,0,0,1-.18.156,3.568,3.568,0,0,1-2.523-.652,2.607,2.607,0,0,1-3.477-2.7l2.078.016A1.142,1.142,0,0,0-.1-1.461a1.845,1.845,0,0,0,1-.25A.987.987,0,0,0,1.375-2.383ZM7.891-7.516A2.946,2.946,0,0,1,10.18-8.609a2.143,2.143,0,0,1,1.848.9,3.548,3.548,0,0,1,.441,2.379L11.578,0h-2.2l.9-5.358a2.6,2.6,0,0,0,.016-.563A.885.885,0,0,0,9.3-6.789a1.9,1.9,0,0,0-1.562.766L6.68,0h-2.2L6.555-12H8.766ZM17.313.156a3.677,3.677,0,0,1-1.965-.543A3.292,3.292,0,0,1,14.07-1.855a4.093,4.093,0,0,1-.328-2.059l.023-.312a5.465,5.465,0,0,1,.719-2.266,4.341,4.341,0,0,1,1.547-1.59,3.827,3.827,0,0,1,2.094-.527,2.924,2.924,0,0,1,2.473,1.2,4.117,4.117,0,0,1,.637,2.962l-.125.962H15.93a1.814,1.814,0,0,0,.4,1.313,1.521,1.521,0,0,0,1.172.508A2.7,2.7,0,0,0,19.609-2.6l1.008,1.25A3.135,3.135,0,0,1,19.242-.23,4.5,4.5,0,0,1,17.313.156Zm.7-6.945a1.565,1.565,0,0,0-1.082.383,3.363,3.363,0,0,0-.848,1.383h3.031l.047-.2a2.071,2.071,0,0,0,.008-.594,1.134,1.134,0,0,0-.383-.707A1.2,1.2,0,0,0,18.016-6.789ZM22.344.977H20.609l6.2-12.352h1.742ZM29.969,0H27.75l1.469-8.453h2.219Zm-.492-10.6a1.1,1.1,0,0,1,.344-.867,1.209,1.209,0,0,1,.867-.344,1.215,1.215,0,0,1,.867.3,1.1,1.1,0,0,1,.383.828,1.132,1.132,0,0,1-.324.844,1.215,1.215,0,0,1-.887.375,1.235,1.235,0,0,1-.863-.3A1.091,1.091,0,0,1,29.477-10.6Zm6.828.07-.367,2.078h1.406L37.055-6.8H35.648L34.93-2.562a1.077,1.077,0,0,0,.063.609q.109.211.531.227.125.008.672-.039L36.039-.039a3.706,3.706,0,0,1-1.266.18,1.985,1.985,0,0,1-1.617-.68,2.456,2.456,0,0,1-.437-1.8L33.445-6.8h-1.2l.289-1.656h1.2l.359-2.078ZM-36.148,20.922l2.008-5.375h2.2L-35.5,24h-1.844l-.625-5.289L-40.437,24h-1.844l-.625-8.453h2.063l.133,5.32,2.414-5.32H-36.7Zm7.867,3.234a3.677,3.677,0,0,1-1.965-.543,3.292,3.292,0,0,1-1.277-1.469,4.093,4.093,0,0,1-.328-2.059l.023-.312a5.465,5.465,0,0,1,.719-2.266,4.341,4.341,0,0,1,1.547-1.59,3.827,3.827,0,0,1,2.094-.527A2.924,2.924,0,0,1-25,16.592a4.117,4.117,0,0,1,.637,2.962l-.125.962h-5.18a1.814,1.814,0,0,0,.4,1.313,1.521,1.521,0,0,0,1.172.508,2.7,2.7,0,0,0,2.109-.937l1.008,1.25a3.135,3.135,0,0,1-1.375,1.121A4.5,4.5,0,0,1-28.281,24.156Zm.7-6.945a1.565,1.565,0,0,0-1.082.383,3.363,3.363,0,0,0-.848,1.383h3.031l.047-.2a2.071,2.071,0,0,0,.008-.594,1.134,1.134,0,0,0-.383-.707A1.2,1.2,0,0,0-27.578,17.211Zm4.328,7.766h-1.734l6.2-12.352h1.742Zm8.883-4.2,2.414-5.234H-9.5l-4.945,9.727a4.231,4.231,0,0,1-1.246,1.641,2.723,2.723,0,0,1-1.652.523,5.035,5.035,0,0,1-1.062-.164l.164-1.719.3.016a1.651,1.651,0,0,0,1.578-.789l.484-.9-1.383-8.336h2.281Zm9.117-5.391a3.39,3.39,0,0,1,1.926.574A3.234,3.234,0,0,1-2.137,17.5a4.762,4.762,0,0,1,.27,2.176,5.143,5.143,0,0,1-1.4,3.262,3.96,3.96,0,0,1-3.02,1.215A3.38,3.38,0,0,1-8.2,23.59a3.222,3.222,0,0,1-1.187-1.527,4.657,4.657,0,0,1-.273-2.156,5.3,5.3,0,0,1,1.422-3.328A3.878,3.878,0,0,1-5.25,15.391Zm-2.227,5.315a1.95,1.95,0,0,0,.352,1.182,1.168,1.168,0,0,0,.945.449A1.712,1.712,0,0,0-4.586,21.4a4.647,4.647,0,0,0,.539-2.531,2.122,2.122,0,0,0-.363-1.2,1.149,1.149,0,0,0-.949-.464,1.715,1.715,0,0,0-1.574.924A4.6,4.6,0,0,0-7.477,20.706ZM4,23.125a2.919,2.919,0,0,1-2.328,1.031,2.172,2.172,0,0,1-1.844-.875,3.2,3.2,0,0,1-.484-2.266l.914-5.469h2.2l-.93,5.5a2.175,2.175,0,0,0-.008.485.8.8,0,0,0,.867.806,2.014,2.014,0,0,0,1.7-.79l1.055-6H7.359L5.891,24H3.836Zm4.109,1.852H6.375l6.2-12.352H14.32Zm9.766-11.508-.367,2.078h1.406L18.625,17.2H17.219L16.5,21.438a1.077,1.077,0,0,0,.063.609q.109.211.531.227.125.008.672-.039l-.156,1.727a3.706,3.706,0,0,1-1.266.18,1.985,1.985,0,0,1-1.617-.68,2.456,2.456,0,0,1-.437-1.8l.727-4.461h-1.2l.289-1.656h1.2l.359-2.078Zm4.211,3.016a2.946,2.946,0,0,1,2.289-1.094,2.143,2.143,0,0,1,1.848.9,3.548,3.548,0,0,1,.441,2.379L25.773,24h-2.2l.9-5.358a2.6,2.6,0,0,0,.016-.563.885.885,0,0,0-.984-.868,1.9,1.9,0,0,0-1.562.766L20.875,24h-2.2L20.75,12h2.211Zm9.422,7.672a3.677,3.677,0,0,1-1.965-.543,3.292,3.292,0,0,1-1.277-1.469,4.093,4.093,0,0,1-.328-2.059l.023-.312a5.465,5.465,0,0,1,.719-2.266,4.341,4.341,0,0,1,1.547-1.59,3.827,3.827,0,0,1,2.094-.527,2.924,2.924,0,0,1,2.473,1.2,4.117,4.117,0,0,1,.637,2.962l-.125.962h-5.18a1.814,1.814,0,0,0,.4,1.313,1.521,1.521,0,0,0,1.172.508A2.7,2.7,0,0,0,33.8,21.4l1.008,1.25a3.135,3.135,0,0,1-1.375,1.121A4.5,4.5,0,0,1,31.508,24.156Zm.7-6.945a1.565,1.565,0,0,0-1.082.383,3.363,3.363,0,0,0-.848,1.383h3.031l.047-.2a2.071,2.071,0,0,0,.008-.594,1.134,1.134,0,0,0-.383-.707A1.2,1.2,0,0,0,32.211,17.211Zm7.336,3.57,2.414-5.234h2.453l-4.945,9.727a4.231,4.231,0,0,1-1.246,1.641,2.723,2.723,0,0,1-1.652.523,5.035,5.035,0,0,1-1.062-.164l.164-1.719.3.016a1.651,1.651,0,0,0,1.578-.789l.484-.9-1.383-8.336h2.281Z" transform="translate(-6142 -4232)" fill="#ff5f65"/>
    <path id="Trazado_121685" data-name="Trazado 121685" d="M-6.312-3.078-4.3-8.453h2.2L-5.664,0H-7.508l-.625-5.289L-10.6,0h-1.844l-.625-8.453h2.063l.133,5.32,2.414-5.32h1.594ZM2.43,0a2.281,2.281,0,0,1-.086-.766A2.863,2.863,0,0,1,.188.156a2.594,2.594,0,0,1-1.84-.723,2.186,2.186,0,0,1-.684-1.746,2.527,2.527,0,0,1,1.16-2.121,5.266,5.266,0,0,1,2.965-.738l1.031.016.109-.508a1.764,1.764,0,0,0,.023-.492.846.846,0,0,0-.277-.574.955.955,0,0,0-.629-.215,1.345,1.345,0,0,0-.875.254,1.231,1.231,0,0,0-.461.777L-1.5-5.906A2.457,2.457,0,0,1-.387-7.871a4.312,4.312,0,0,1,2.613-.738,3.117,3.117,0,0,1,2.25.855,2.5,2.5,0,0,1,.68,2.121L4.508-1.586l-.039.5A2.412,2.412,0,0,0,4.6-.148L4.594,0ZM.734-1.555A2.017,2.017,0,0,0,2.4-2.383l.273-1.461-.766-.008a2.139,2.139,0,0,0-1.758.742,1.292,1.292,0,0,0-.242.633.75.75,0,0,0,.176.668A.891.891,0,0,0,.734-1.555Zm10.1-.828q.125-.625-.867-.906l-.711-.18Q6.734-4.164,6.8-5.922A2.428,2.428,0,0,1,7.863-7.871a3.942,3.942,0,0,1,2.457-.738,3.536,3.536,0,0,1,2.313.758,2.5,2.5,0,0,1,.9,1.977l-2.187-.008a.963.963,0,0,0-1.078-1.1,1.552,1.552,0,0,0-.895.258,1.061,1.061,0,0,0-.465.7q-.117.625.945.883l.313.07a6.285,6.285,0,0,1,1.648.59,2.488,2.488,0,0,1,.879.824,2.04,2.04,0,0,1,.285,1.18,2.251,2.251,0,0,1-.52,1.406,3.18,3.18,0,0,1-1.359.93,4.736,4.736,0,0,1-1.816.3A3.568,3.568,0,0,1,6.938-.652,2.607,2.607,0,0,1,5.984-2.7l2.078.016a1.142,1.142,0,0,0,1.3,1.227,1.845,1.845,0,0,0,1-.25A.987.987,0,0,0,10.836-2.383Z" transform="translate(-6307 -4239)" fill="#ff5f65"/>
    <path id="Trazado_121696" data-name="Trazado 121696" d="M-10.492-3.3l2.742-8.07h2.336L-9.641,0h-2.3l-.6-7.578L-15.523,0h-2.3L-18.5-11.375h2.234l.227,8.031,3.063-8.031h1.945Zm7.7-4.211A2.946,2.946,0,0,1-.508-8.609a2.143,2.143,0,0,1,1.848.9,3.548,3.548,0,0,1,.441,2.379L.891,0h-2.2l.9-5.358A2.6,2.6,0,0,0-.4-5.921a.885.885,0,0,0-.984-.868,1.9,1.9,0,0,0-1.562.766L-4.008,0h-2.2l2.078-12h2.211ZM6.625.156A3.677,3.677,0,0,1,4.66-.387,3.292,3.292,0,0,1,3.383-1.855a4.093,4.093,0,0,1-.328-2.059l.023-.312A5.465,5.465,0,0,1,3.8-6.492a4.341,4.341,0,0,1,1.547-1.59,3.827,3.827,0,0,1,2.094-.527,2.924,2.924,0,0,1,2.473,1.2,4.117,4.117,0,0,1,.637,2.962l-.125.962H5.242a1.814,1.814,0,0,0,.4,1.313,1.521,1.521,0,0,0,1.172.508A2.7,2.7,0,0,0,8.922-2.6L9.93-1.352A3.135,3.135,0,0,1,8.555-.23,4.5,4.5,0,0,1,6.625.156Zm.7-6.945a1.565,1.565,0,0,0-1.082.383A3.363,3.363,0,0,0,5.4-5.023H8.43l.047-.2a2.071,2.071,0,0,0,.008-.594A1.134,1.134,0,0,0,8.1-6.527,1.2,1.2,0,0,0,7.328-6.789Zm7.234-1.672-.187,1a3.042,3.042,0,0,1,2.461-1.148,2.028,2.028,0,0,1,1.766.875,3.526,3.526,0,0,1,.414,2.359L18.125,0h-2.2l.906-5.4a2.528,2.528,0,0,0,.016-.555.9.9,0,0,0-1-.82,1.9,1.9,0,0,0-1.555.8L13.234,0h-2.2L12.5-8.453Z" transform="translate(-6497 -4239)" fill="#ff5f65"/>
    <path id="Trazado_121684" data-name="Trazado 121684" d="M-9.426-3.078l2.008-5.375h2.2L-8.777,0h-1.844l-.625-5.289L-13.715,0h-1.844l-.625-8.453h2.063l.133,5.32,2.414-5.32H-9.98ZM-1.559.156A3.677,3.677,0,0,1-3.523-.387,3.292,3.292,0,0,1-4.8-1.855a4.093,4.093,0,0,1-.328-2.059l.023-.312a5.465,5.465,0,0,1,.719-2.266A4.341,4.341,0,0,1-2.84-8.082,3.827,3.827,0,0,1-.746-8.609a2.924,2.924,0,0,1,2.473,1.2,4.117,4.117,0,0,1,.637,2.962l-.125.962h-5.18a1.814,1.814,0,0,0,.4,1.313,1.521,1.521,0,0,0,1.172.508A2.7,2.7,0,0,0,.738-2.6l1.008,1.25A3.135,3.135,0,0,1,.371-.23,4.5,4.5,0,0,1-1.559.156Zm.7-6.945a1.565,1.565,0,0,0-1.082.383,3.363,3.363,0,0,0-.848,1.383H.246l.047-.2A2.071,2.071,0,0,0,.3-5.82a1.134,1.134,0,0,0-.383-.707A1.2,1.2,0,0,0-.855-6.789Zm9.539.453a4.548,4.548,0,0,0-.742-.078,2.136,2.136,0,0,0-1.867.883L5.1,0h-2.2L4.363-8.453l2.07-.008L6.23-7.43A2.325,2.325,0,0,1,8.2-8.625a3.214,3.214,0,0,1,.766.109ZM12.652.156a3.677,3.677,0,0,1-1.965-.543A3.292,3.292,0,0,1,9.41-1.855a4.093,4.093,0,0,1-.328-2.059l.023-.312a5.465,5.465,0,0,1,.719-2.266,4.341,4.341,0,0,1,1.547-1.59,3.827,3.827,0,0,1,2.094-.527,2.924,2.924,0,0,1,2.473,1.2,4.117,4.117,0,0,1,.637,2.962l-.125.962H11.27a1.814,1.814,0,0,0,.4,1.313,1.521,1.521,0,0,0,1.172.508A2.7,2.7,0,0,0,14.949-2.6l1.008,1.25A3.135,3.135,0,0,1,14.582-.23,4.5,4.5,0,0,1,12.652.156Zm.7-6.945a1.565,1.565,0,0,0-1.082.383,3.363,3.363,0,0,0-.848,1.383h3.031l.047-.2a2.071,2.071,0,0,0,.008-.594,1.134,1.134,0,0,0-.383-.707A1.2,1.2,0,0,0,13.355-6.789Z" transform="translate(-6307 -4207)" fill="#ff5f65"/>
    <path id="Trazado_121693" data-name="Trazado 121693" d="M-26.453-3.3l2.742-8.07h2.336L-25.6,0h-2.3l-.6-7.578L-31.484,0h-2.3l-.672-11.375h2.234L-32-3.344l3.063-8.031h1.945Zm7.7-4.211a2.946,2.946,0,0,1,2.289-1.094,2.143,2.143,0,0,1,1.848.9,3.548,3.548,0,0,1,.441,2.379L-15.07,0h-2.2l.9-5.358a2.6,2.6,0,0,0,.016-.563.885.885,0,0,0-.984-.868,1.9,1.9,0,0,0-1.562.766L-19.969,0h-2.2l2.078-12h2.211ZM-8.461,0a2.281,2.281,0,0,1-.086-.766A2.863,2.863,0,0,1-10.7.156a2.594,2.594,0,0,1-1.84-.723,2.186,2.186,0,0,1-.684-1.746,2.527,2.527,0,0,1,1.16-2.121A5.266,5.266,0,0,1-9.1-5.172l1.031.016.109-.508a1.764,1.764,0,0,0,.023-.492.846.846,0,0,0-.277-.574.955.955,0,0,0-.629-.215,1.345,1.345,0,0,0-.875.254,1.231,1.231,0,0,0-.461.777l-2.211.008a2.457,2.457,0,0,1,1.113-1.965,4.312,4.312,0,0,1,2.613-.738,3.117,3.117,0,0,1,2.25.855,2.5,2.5,0,0,1,.68,2.121l-.648,4.047-.039.5a2.412,2.412,0,0,0,.133.938L-6.3,0Zm-1.7-1.555a2.017,2.017,0,0,0,1.664-.828l.273-1.461-.766-.008a2.139,2.139,0,0,0-1.758.742,1.292,1.292,0,0,0-.242.633.75.75,0,0,0,.176.668A.891.891,0,0,0-10.156-1.555Zm9.672-8.977L-.852-8.453H.555L.266-6.8H-1.141l-.719,4.234a1.077,1.077,0,0,0,.063.609q.109.211.531.227.125.008.672-.039L-.75-.039a3.706,3.706,0,0,1-1.266.18,1.985,1.985,0,0,1-1.617-.68,2.456,2.456,0,0,1-.437-1.8L-3.344-6.8h-1.2l.289-1.656h1.2l.359-2.078Zm9.266,0L8.414-8.453H9.82L9.531-6.8H8.125L7.406-2.562a1.077,1.077,0,0,0,.063.609q.109.211.531.227.125.008.672-.039L8.516-.039A3.706,3.706,0,0,1,7.25.141a1.985,1.985,0,0,1-1.617-.68,2.456,2.456,0,0,1-.437-1.8L5.922-6.8h-1.2l.289-1.656h1.2l.359-2.078ZM11.961,0H9.742l1.469-8.453H13.43Zm-.492-10.6a1.1,1.1,0,0,1,.344-.867,1.209,1.209,0,0,1,.867-.344,1.215,1.215,0,0,1,.867.3,1.1,1.1,0,0,1,.383.828,1.132,1.132,0,0,1-.324.844,1.215,1.215,0,0,1-.887.375,1.235,1.235,0,0,1-.863-.3A1.091,1.091,0,0,1,11.469-10.6Zm5.875,2.141-.18.961a3.112,3.112,0,0,1,2.477-1.109,2.379,2.379,0,0,1,1.3.359,1.679,1.679,0,0,1,.7.93,3.255,3.255,0,0,1,2.625-1.289,2.126,2.126,0,0,1,1.754.8,3.271,3.271,0,0,1,.5,2.234l-.016.2L25.594,0H23.383l.9-5.4a3.908,3.908,0,0,0,.023-.54.837.837,0,0,0-.937-.845,1.86,1.86,0,0,0-1.555.97l-.023.18L20.8,0H18.6l.9-5.383a3.9,3.9,0,0,0,.023-.539.836.836,0,0,0-.93-.852,1.867,1.867,0,0,0-1.508.789L16.031,0h-2.2l1.461-8.453ZM31.359.156a3.677,3.677,0,0,1-1.965-.543,3.292,3.292,0,0,1-1.277-1.469,4.093,4.093,0,0,1-.328-2.059l.023-.312a5.465,5.465,0,0,1,.719-2.266,4.341,4.341,0,0,1,1.547-1.59,3.827,3.827,0,0,1,2.094-.527,2.924,2.924,0,0,1,2.473,1.2,4.117,4.117,0,0,1,.637,2.962l-.125.962h-5.18a1.814,1.814,0,0,0,.4,1.313,1.521,1.521,0,0,0,1.172.508A2.7,2.7,0,0,0,33.656-2.6l1.008,1.25A3.135,3.135,0,0,1,33.289-.23,4.5,4.5,0,0,1,31.359.156Zm.7-6.945a1.565,1.565,0,0,0-1.082.383,3.363,3.363,0,0,0-.848,1.383h3.031l.047-.2a2.071,2.071,0,0,0,.008-.594,1.134,1.134,0,0,0-.383-.707A1.2,1.2,0,0,0,32.063-6.789Z" transform="translate(-6497 -4207)" fill="#ff5f65"/>
    <path id="Trazado_121694" data-name="Trazado 121694" d="M-19.434,0h-2.289l.844-4.875h-4.414L-26.145,0h-2.289l1.977-11.375h2.289l-.8,4.609h4.422l.8-4.609h2.289Zm6.742-8.609a3.39,3.39,0,0,1,1.926.574A3.234,3.234,0,0,1-9.578-6.5a4.762,4.762,0,0,1,.27,2.176,5.143,5.143,0,0,1-1.4,3.262A3.96,3.96,0,0,1-13.73.156,3.38,3.38,0,0,1-15.637-.41a3.222,3.222,0,0,1-1.187-1.527A4.657,4.657,0,0,1-17.1-4.094a5.3,5.3,0,0,1,1.422-3.328A3.878,3.878,0,0,1-12.691-8.609Zm-2.227,5.315a1.95,1.95,0,0,0,.352,1.182,1.168,1.168,0,0,0,.945.449A1.712,1.712,0,0,0-12.027-2.6a4.647,4.647,0,0,0,.539-2.531,2.122,2.122,0,0,0-.363-1.2,1.149,1.149,0,0,0-.949-.464,1.715,1.715,0,0,0-1.574.924A4.6,4.6,0,0,0-14.918-3.294Zm13.875.216L.965-8.453h2.2L-.395,0H-2.238l-.625-5.289L-5.332,0H-7.176L-7.8-8.453h2.063l.133,5.32,2.414-5.32H-1.6ZM11.59-8.609a3.39,3.39,0,0,1,1.926.574A3.234,3.234,0,0,1,14.7-6.5a4.762,4.762,0,0,1,.27,2.176,5.143,5.143,0,0,1-1.4,3.262A3.96,3.96,0,0,1,10.551.156,3.38,3.38,0,0,1,8.645-.41,3.222,3.222,0,0,1,7.457-1.937a4.657,4.657,0,0,1-.273-2.156A5.3,5.3,0,0,1,8.605-7.422,3.878,3.878,0,0,1,11.59-8.609ZM9.363-3.294a1.95,1.95,0,0,0,.352,1.182,1.168,1.168,0,0,0,.945.449A1.712,1.712,0,0,0,12.254-2.6a4.647,4.647,0,0,0,.539-2.531,2.122,2.122,0,0,0-.363-1.2,1.149,1.149,0,0,0-.949-.464,1.715,1.715,0,0,0-1.574.924A4.6,4.6,0,0,0,9.363-3.294ZM17.934,0H15.715L17.8-12h2.211ZM24-8.617a2.4,2.4,0,0,1,1.906.945L26.73-12h2.211L26.863,0H24.895l.125-.906a2.736,2.736,0,0,1-2.2,1.07A2.433,2.433,0,0,1,21.434-.25a2.607,2.607,0,0,1-.918-1.168,4.7,4.7,0,0,1-.355-1.7,6.4,6.4,0,0,1,.023-.953l.047-.352A6.767,6.767,0,0,1,20.953-6.7a3.766,3.766,0,0,1,1.313-1.461A3.094,3.094,0,0,1,24-8.617Zm-1.6,4.547a6.327,6.327,0,0,0-.039,1q.078,1.375,1.109,1.4a1.885,1.885,0,0,0,1.617-.875l.6-3.359a1.248,1.248,0,0,0-1.219-.875,1.606,1.606,0,0,0-1.34.621A4.176,4.176,0,0,0,22.395-4.07Z" transform="translate(-6497 -4175)" fill="#ff5f65"/>
    <path id="Trazado_121669" data-name="Trazado 121669" d="M-68.676-2.844l3.828-8.531h2.625L-67.84,0H-70.23l-2.047-11.375h2.461Zm9.531,3a3.677,3.677,0,0,1-1.965-.543,3.292,3.292,0,0,1-1.277-1.469,4.093,4.093,0,0,1-.328-2.059l.023-.312a5.465,5.465,0,0,1,.719-2.266,4.341,4.341,0,0,1,1.547-1.59,3.827,3.827,0,0,1,2.094-.527,2.924,2.924,0,0,1,2.473,1.2,4.117,4.117,0,0,1,.637,2.962l-.125.962h-5.18a1.814,1.814,0,0,0,.4,1.313,1.521,1.521,0,0,0,1.172.508A2.7,2.7,0,0,0-56.848-2.6l1.008,1.25A3.135,3.135,0,0,1-57.215-.23,4.5,4.5,0,0,1-59.145.156Zm.7-6.945a1.565,1.565,0,0,0-1.082.383,3.363,3.363,0,0,0-.848,1.383h3.031l.047-.2a2.071,2.071,0,0,0,.008-.594,1.134,1.134,0,0,0-.383-.707A1.2,1.2,0,0,0-58.441-6.789Zm9.539.453a4.548,4.548,0,0,0-.742-.078,2.136,2.136,0,0,0-1.867.883L-52.488,0h-2.2l1.469-8.453,2.07-.008-.2,1.031a2.325,2.325,0,0,1,1.969-1.2,3.214,3.214,0,0,1,.766.109ZM-40.824-4.2A6.061,6.061,0,0,1-42.043-1,3.033,3.033,0,0,1-44.59.164,2.357,2.357,0,0,1-46.621-.914l-.32.914h-2.008l2.078-12h2.211l-.852,4.32a2.634,2.634,0,0,1,2.063-.93,2.385,2.385,0,0,1,1.926.879,3.89,3.89,0,0,1,.746,2.387A9.132,9.132,0,0,1-40.824-4.2Zm-2.187-.165A6.554,6.554,0,0,0-42.965-5.4q-.086-1.364-1.125-1.387a1.833,1.833,0,0,0-1.617.885l-.609,3.37a1.258,1.258,0,0,0,1.266.878q1.625.047,1.992-2.367ZM-32.176.156a3.677,3.677,0,0,1-1.965-.543,3.292,3.292,0,0,1-1.277-1.469,4.093,4.093,0,0,1-.328-2.059l.023-.312A5.465,5.465,0,0,1-35-6.492a4.341,4.341,0,0,1,1.547-1.59,3.827,3.827,0,0,1,2.094-.527,2.924,2.924,0,0,1,2.473,1.2,4.117,4.117,0,0,1,.637,2.962l-.125.962h-5.18a1.814,1.814,0,0,0,.4,1.313,1.521,1.521,0,0,0,1.172.508A2.7,2.7,0,0,0-29.879-2.6l1.008,1.25A3.135,3.135,0,0,1-30.246-.23,4.5,4.5,0,0,1-32.176.156Zm.7-6.945a1.565,1.565,0,0,0-1.082.383A3.363,3.363,0,0,0-33.4-5.023h3.031l.047-.2a2.071,2.071,0,0,0,.008-.594,1.134,1.134,0,0,0-.383-.707A1.2,1.2,0,0,0-31.473-6.789Zm7.234-1.672-.187,1a3.042,3.042,0,0,1,2.461-1.148,2.028,2.028,0,0,1,1.766.875,3.526,3.526,0,0,1,.414,2.359L-20.676,0h-2.2l.906-5.4a2.528,2.528,0,0,0,.016-.555.9.9,0,0,0-1-.82,1.9,1.9,0,0,0-1.555.8L-25.566,0h-2.2L-26.3-8.453Zm9.484-.156a2.4,2.4,0,0,1,1.906.945L-12.02-12h2.211L-11.887,0h-1.969l.125-.906a2.736,2.736,0,0,1-2.2,1.07A2.433,2.433,0,0,1-17.316-.25a2.607,2.607,0,0,1-.918-1.168,4.7,4.7,0,0,1-.355-1.7,6.4,6.4,0,0,1,.023-.953l.047-.352A6.767,6.767,0,0,1-17.8-6.7a3.766,3.766,0,0,1,1.313-1.461A3.094,3.094,0,0,1-14.754-8.617Zm-1.6,4.547a6.327,6.327,0,0,0-.039,1q.078,1.375,1.109,1.4a1.885,1.885,0,0,0,1.617-.875l.6-3.359a1.248,1.248,0,0,0-1.219-.875,1.606,1.606,0,0,0-1.34.621A4.176,4.176,0,0,0-16.355-4.07ZM-7.8,0H-10.02l1.469-8.453h2.219Zm-.492-10.6a1.1,1.1,0,0,1,.344-.867,1.209,1.209,0,0,1,.867-.344,1.215,1.215,0,0,1,.867.3,1.1,1.1,0,0,1,.383.828,1.132,1.132,0,0,1-.324.844,1.215,1.215,0,0,1-.887.375,1.235,1.235,0,0,1-.863-.3A1.091,1.091,0,0,1-8.293-10.6Zm5.844,2.141-.187,1A3.042,3.042,0,0,1-.176-8.609a2.028,2.028,0,0,1,1.766.875A3.526,3.526,0,0,1,2-5.375L1.113,0h-2.2l.906-5.4a2.528,2.528,0,0,0,.016-.555.9.9,0,0,0-1-.82,1.9,1.9,0,0,0-1.555.8L-3.777,0h-2.2l1.469-8.453ZM3.262-4.234A5.849,5.849,0,0,1,4.539-7.418a3.242,3.242,0,0,1,2.629-1.2,2.37,2.37,0,0,1,2.016.977l.289-.82,2.023.008L10.113-.289A3.983,3.983,0,0,1,8.676,2.383a4.471,4.471,0,0,1-3,.953A4.168,4.168,0,0,1,4,2.957a3.575,3.575,0,0,1-1.312-1L3.785.617a2.349,2.349,0,0,0,1.844.961A2.166,2.166,0,0,0,7.1,1.129,2.4,2.4,0,0,0,7.926-.227l.125-.508A2.749,2.749,0,0,1,5.98.156,2.428,2.428,0,0,1,4.02-.762a3.947,3.947,0,0,1-.8-2.348A7.89,7.89,0,0,1,3.262-4.234Zm2.164.927A2.02,2.02,0,0,0,5.734-2.13a1.08,1.08,0,0,0,.895.466,1.972,1.972,0,0,0,1.594-.767l.656-3.583a1.3,1.3,0,0,0-1.242-.767,1.728,1.728,0,0,0-1.43.681,3.561,3.561,0,0,0-.734,1.87A8.214,8.214,0,0,0,5.426-3.307ZM18.051,0H15.832L17.3-8.453H19.52Zm-.492-10.6a1.1,1.1,0,0,1,.344-.867,1.209,1.209,0,0,1,.867-.344,1.215,1.215,0,0,1,.867.3,1.1,1.1,0,0,1,.383.828,1.132,1.132,0,0,1-.324.844,1.215,1.215,0,0,1-.887.375,1.235,1.235,0,0,1-.863-.3A1.091,1.091,0,0,1,17.559-10.6ZM23.4-8.461l-.187,1a3.042,3.042,0,0,1,2.461-1.148,2.028,2.028,0,0,1,1.766.875,3.526,3.526,0,0,1,.414,2.359L26.965,0h-2.2l.906-5.4a2.528,2.528,0,0,0,.016-.555.9.9,0,0,0-1-.82,1.9,1.9,0,0,0-1.555.8L22.074,0h-2.2L21.34-8.453Zm12.617-3.8,1.047.641a10.708,10.708,0,0,0-.641,1.074,4.383,4.383,0,0,0-.406,1.184l-.2,1.18h-1.75l.156-1.031A4.779,4.779,0,0,1,36.02-12.266Zm2.594,0,1.047.641a10.708,10.708,0,0,0-.641,1.074,4.383,4.383,0,0,0-.406,1.184l-.2,1.18H36.66l.156-1.031A4.779,4.779,0,0,1,38.613-12.266Zm5.359,8.3H39.691L40-5.781h4.289ZM47.434,0H45.215l1.469-8.453H48.9Zm-.492-10.6a1.1,1.1,0,0,1,.344-.867,1.209,1.209,0,0,1,.867-.344,1.215,1.215,0,0,1,.867.3,1.1,1.1,0,0,1,.383.828,1.132,1.132,0,0,1-.324.844,1.215,1.215,0,0,1-.887.375,1.235,1.235,0,0,1-.863-.3A1.091,1.091,0,0,1,46.941-10.6Zm5.844,2.141-.187,1a3.042,3.042,0,0,1,2.461-1.148,2.028,2.028,0,0,1,1.766.875,3.526,3.526,0,0,1,.414,2.359L56.348,0h-2.2l.906-5.4a2.528,2.528,0,0,0,.016-.555.9.9,0,0,0-1-.82,1.9,1.9,0,0,0-1.555.8L51.457,0h-2.2l1.469-8.453ZM58.5-4.234a5.849,5.849,0,0,1,1.277-3.184,3.242,3.242,0,0,1,2.629-1.2,2.37,2.37,0,0,1,2.016.977l.289-.82,2.023.008L65.348-.289A3.983,3.983,0,0,1,63.91,2.383a4.471,4.471,0,0,1-3,.953,4.168,4.168,0,0,1-1.672-.379,3.575,3.575,0,0,1-1.312-1L59.02.617a2.349,2.349,0,0,0,1.844.961,2.166,2.166,0,0,0,1.469-.449A2.4,2.4,0,0,0,63.16-.227l.125-.508a2.749,2.749,0,0,1-2.07.891,2.428,2.428,0,0,1-1.961-.918,3.947,3.947,0,0,1-.8-2.348A7.89,7.89,0,0,1,58.5-4.234Zm2.164.927a2.02,2.02,0,0,0,.309,1.178,1.08,1.08,0,0,0,.895.466,1.972,1.972,0,0,0,1.594-.767l.656-3.583a1.3,1.3,0,0,0-1.242-.767,1.728,1.728,0,0,0-1.43.681,3.561,3.561,0,0,0-.734,1.87A8.214,8.214,0,0,0,60.66-3.307Zm8.664-4.56-1.117-.656a6.183,6.183,0,0,0,1.008-2.031L69.473-12H71.23l-.18,1.156A4.806,4.806,0,0,1,69.324-7.867Zm2.625,0-1.117-.656a6.183,6.183,0,0,0,1.008-2.031L72.1-12h1.758l-.18,1.156A4.806,4.806,0,0,1,71.949-7.867Z" transform="translate(-5938 -4235)" fill="#ff5f65"/>
    <path id="Trazado_121676" data-name="Trazado 121676" d="M-88.641-2.82l2.578-8.555h2.609L-87.414,0h-2.445L-93.8-11.375h2.6Zm10,2.977A4.15,4.15,0,0,1-81.668-.984a4.054,4.054,0,0,1-1.168-3.039v-.219a5.106,5.106,0,0,1,.492-2.277,3.612,3.612,0,0,1,1.395-1.547,3.914,3.914,0,0,1,2.059-.543,3.508,3.508,0,0,1,2.73,1.094,4.444,4.444,0,0,1,1,3.1v.922h-5.383a2.1,2.1,0,0,0,.66,1.328,2,2,0,0,0,1.395.5,2.437,2.437,0,0,0,2.039-.945l1.109,1.242A3.389,3.389,0,0,1-76.719-.246,4.511,4.511,0,0,1-78.641.156ZM-78.9-6.789a1.411,1.411,0,0,0-1.09.455,2.357,2.357,0,0,0-.535,1.3h3.141v-.181a1.681,1.681,0,0,0-.406-1.165A1.456,1.456,0,0,0-78.9-6.789Zm9.766.453a6.134,6.134,0,0,0-.812-.062,1.654,1.654,0,0,0-1.68.867V0h-2.258V-8.453h2.133l.063,1.008A2.092,2.092,0,0,1-69.8-8.609a2.366,2.366,0,0,1,.7.1Zm8.7,2.188A5.119,5.119,0,0,1-61.3-.98,2.872,2.872,0,0,1-63.719.156,2.639,2.639,0,0,1-65.914-.9l-.1.9h-2.031V-12h2.258v4.3a2.571,2.571,0,0,1,2.055-.914,2.9,2.9,0,0,1,2.426,1.137,5.126,5.126,0,0,1,.879,3.2Zm-2.258-.164a3.363,3.363,0,0,0-.406-1.871,1.374,1.374,0,0,0-1.211-.59,1.489,1.489,0,0,0-1.484.883v3.336a1.509,1.509,0,0,0,1.5.891,1.394,1.394,0,0,0,1.438-1.078A5.562,5.562,0,0,0-62.687-4.312Zm3.3.008a5.013,5.013,0,0,1,.484-2.242A3.546,3.546,0,0,1-57.512-8.07,4.069,4.069,0,0,1-55.4-8.609a3.849,3.849,0,0,1,2.793,1.047A4.2,4.2,0,0,1-51.4-4.719l.016.578A4.418,4.418,0,0,1-52.469-1.02,3.775,3.775,0,0,1-55.383.156,3.793,3.793,0,0,1-58.3-1.016,4.5,4.5,0,0,1-59.391-4.2Zm2.258.16A3.16,3.16,0,0,0-56.68-2.3a1.5,1.5,0,0,0,1.3.638,1.5,1.5,0,0,0,1.281-.63,3.457,3.457,0,0,0,.461-2.015A3.128,3.128,0,0,0-54.1-6.14a1.5,1.5,0,0,0-1.3-.649,1.474,1.474,0,0,0-1.281.646A3.516,3.516,0,0,0-57.133-4.144ZM-43.3-10.531v2.078h1.445V-6.8H-43.3v4.219a1.007,1.007,0,0,0,.18.672.9.9,0,0,0,.688.2,3.6,3.6,0,0,0,.664-.055V-.047a4.648,4.648,0,0,1-1.367.2,2.156,2.156,0,0,1-2.422-2.4V-6.8H-46.8V-8.453h1.234v-2.078ZM-36.711.156A4.15,4.15,0,0,1-39.738-.984a4.054,4.054,0,0,1-1.168-3.039v-.219a5.106,5.106,0,0,1,.492-2.277A3.612,3.612,0,0,1-39.02-8.066a3.914,3.914,0,0,1,2.059-.543,3.508,3.508,0,0,1,2.73,1.094,4.444,4.444,0,0,1,1,3.1v.922h-5.383a2.1,2.1,0,0,0,.66,1.328,2,2,0,0,0,1.395.5,2.437,2.437,0,0,0,2.039-.945l1.109,1.242A3.389,3.389,0,0,1-34.789-.246,4.511,4.511,0,0,1-36.711.156Zm-.258-6.945a1.411,1.411,0,0,0-1.09.455,2.357,2.357,0,0,0-.535,1.3h3.141v-.181a1.681,1.681,0,0,0-.406-1.165A1.456,1.456,0,0,0-36.969-6.789Zm9.766.453a6.134,6.134,0,0,0-.812-.062,1.654,1.654,0,0,0-1.68.867V0h-2.258V-8.453h2.133l.063,1.008a2.092,2.092,0,0,1,1.883-1.164,2.366,2.366,0,0,1,.7.1ZM-24-8.453l.07.945a2.971,2.971,0,0,1,2.43-1.1A2.255,2.255,0,0,1-19.258-7.32a2.9,2.9,0,0,1,2.539-1.289,2.521,2.521,0,0,1,2.047.8A3.681,3.681,0,0,1-14-5.4V0h-2.266V-5.391a1.61,1.61,0,0,0-.281-1.051,1.246,1.246,0,0,0-.992-.332,1.409,1.409,0,0,0-1.406.969l.008,5.8H-21.2V-5.383a1.59,1.59,0,0,0-.289-1.062,1.259,1.259,0,0,0-.984-.328,1.463,1.463,0,0,0-1.391.8V0h-2.258V-8.453ZM-9.883,0h-2.266V-8.453h2.266Zm-2.4-10.641a1.112,1.112,0,0,1,.34-.836,1.277,1.277,0,0,1,.926-.328,1.28,1.28,0,0,1,.922.328,1.105,1.105,0,0,1,.344.836A1.108,1.108,0,0,1-10.1-9.8a1.283,1.283,0,0,1-.918.328,1.283,1.283,0,0,1-.918-.328A1.108,1.108,0,0,1-12.281-10.641Zm6.336,2.188.07.977a2.951,2.951,0,0,1,2.43-1.133,2.453,2.453,0,0,1,2,.789A3.682,3.682,0,0,1-.773-5.461V0H-3.031V-5.406a1.465,1.465,0,0,0-.312-1.043,1.4,1.4,0,0,0-1.039-.324,1.553,1.553,0,0,0-1.43.813V0H-8.07V-8.453ZM5.836,0a2.507,2.507,0,0,1-.227-.758A2.732,2.732,0,0,1,3.477.156,3,3,0,0,1,1.418-.562,2.312,2.312,0,0,1,.6-2.375a2.389,2.389,0,0,1,1-2.062,4.915,4.915,0,0,1,2.879-.727H5.516v-.484a1.393,1.393,0,0,0-.3-.937,1.183,1.183,0,0,0-.949-.352,1.345,1.345,0,0,0-.895.273.929.929,0,0,0-.324.75H.789a2.268,2.268,0,0,1,.453-1.359,3,3,0,0,1,1.281-.98,4.669,4.669,0,0,1,1.859-.355,3.689,3.689,0,0,1,2.48.785,2.747,2.747,0,0,1,.918,2.207v3.664a4.041,4.041,0,0,0,.336,1.82V0ZM3.969-1.57a1.945,1.945,0,0,0,.922-.223,1.462,1.462,0,0,0,.625-.6V-3.844H4.672q-1.7,0-1.8,1.172l-.008.133a.9.9,0,0,0,.3.7A1.153,1.153,0,0,0,3.969-1.57Zm5.2-2.719a5.094,5.094,0,0,1,.887-3.148,2.877,2.877,0,0,1,2.426-1.172,2.589,2.589,0,0,1,2.039.922V-12h2.266V0H14.742l-.109-.9A2.657,2.657,0,0,1,12.461.156,2.869,2.869,0,0,1,10.066-1.02,5.258,5.258,0,0,1,9.164-4.289Zm2.258.168A3.337,3.337,0,0,0,11.836-2.3a1.349,1.349,0,0,0,1.2.634,1.511,1.511,0,0,0,1.477-.884V-5.889a1.489,1.489,0,0,0-1.461-.884Q11.422-6.773,11.422-4.121ZM18.18-4.3a5.013,5.013,0,0,1,.484-2.242A3.546,3.546,0,0,1,20.059-8.07a4.069,4.069,0,0,1,2.113-.539,3.849,3.849,0,0,1,2.793,1.047,4.2,4.2,0,0,1,1.207,2.844l.016.578A4.418,4.418,0,0,1,25.1-1.02,3.775,3.775,0,0,1,22.188.156,3.793,3.793,0,0,1,19.27-1.016,4.5,4.5,0,0,1,18.18-4.2Zm2.258.16A3.16,3.16,0,0,0,20.891-2.3a1.5,1.5,0,0,0,1.3.638,1.5,1.5,0,0,0,1.281-.63,3.457,3.457,0,0,0,.461-2.015,3.128,3.128,0,0,0-.461-1.831,1.5,1.5,0,0,0-1.3-.649,1.474,1.474,0,0,0-1.281.646A3.516,3.516,0,0,0,20.438-4.144ZM35.453.156A4.15,4.15,0,0,1,32.426-.984a4.054,4.054,0,0,1-1.168-3.039v-.219A5.106,5.106,0,0,1,31.75-6.52a3.612,3.612,0,0,1,1.395-1.547A3.914,3.914,0,0,1,35.2-8.609a3.508,3.508,0,0,1,2.73,1.094,4.444,4.444,0,0,1,1,3.1v.922H33.547a2.1,2.1,0,0,0,.66,1.328,2,2,0,0,0,1.395.5,2.437,2.437,0,0,0,2.039-.945L38.75-1.367A3.389,3.389,0,0,1,37.375-.246,4.511,4.511,0,0,1,35.453.156ZM35.2-6.789a1.411,1.411,0,0,0-1.09.455,2.357,2.357,0,0,0-.535,1.3h3.141v-.181A1.681,1.681,0,0,0,36.3-6.377,1.456,1.456,0,0,0,35.2-6.789Zm7.094-1.664.07.977a2.951,2.951,0,0,1,2.43-1.133,2.453,2.453,0,0,1,2,.789,3.682,3.682,0,0,1,.672,2.359V0H45.2V-5.406a1.465,1.465,0,0,0-.312-1.043,1.4,1.4,0,0,0-1.039-.324,1.553,1.553,0,0,0-1.43.813V0H40.164V-8.453Zm12.3-3.812,1.063.617a4.168,4.168,0,0,0-.7,2.156v1.3H53.164V-9.359a3.557,3.557,0,0,1,.41-1.566A4.085,4.085,0,0,1,54.586-12.266Zm2.68,0,1.063.617a4.168,4.168,0,0,0-.7,2.156v1.3H55.844V-9.359a3.557,3.557,0,0,1,.41-1.566A4.085,4.085,0,0,1,57.266-12.266Zm6.773,8.3h-4.4v-1.82h4.4ZM68.234,0H65.969V-8.453h2.266Zm-2.4-10.641a1.112,1.112,0,0,1,.34-.836A1.277,1.277,0,0,1,67.1-11.8a1.28,1.28,0,0,1,.922.328,1.105,1.105,0,0,1,.344.836,1.108,1.108,0,0,1-.348.844,1.283,1.283,0,0,1-.918.328,1.283,1.283,0,0,1-.918-.328A1.108,1.108,0,0,1,65.836-10.641Zm6.336,2.188.07.977a2.951,2.951,0,0,1,2.43-1.133,2.453,2.453,0,0,1,2,.789,3.682,3.682,0,0,1,.672,2.359V0H75.086V-5.406a1.465,1.465,0,0,0-.312-1.043,1.4,1.4,0,0,0-1.039-.324,1.553,1.553,0,0,0-1.43.813V0H70.047V-8.453Zm6.555,4.164a4.954,4.954,0,0,1,.926-3.133,3,3,0,0,1,2.5-1.187,2.631,2.631,0,0,1,2.164.953l.094-.8h2.047V-.281a3.613,3.613,0,0,1-.5,1.93A3.236,3.236,0,0,1,84.531,2.9a4.985,4.985,0,0,1-2.141.43,4.635,4.635,0,0,1-1.812-.371A3.217,3.217,0,0,1,79.242,2l1-1.375a2.645,2.645,0,0,0,2.047.945,1.936,1.936,0,0,0,1.4-.48,1.8,1.8,0,0,0,.5-1.363V-.727a2.612,2.612,0,0,1-2.055.883,2.992,2.992,0,0,1-2.465-1.191,4.953,4.953,0,0,1-.941-3.16Zm2.258.168a3.085,3.085,0,0,0,.461,1.8,1.466,1.466,0,0,0,1.266.653,1.568,1.568,0,0,0,1.477-.775V-6a1.564,1.564,0,0,0-1.461-.775,1.476,1.476,0,0,0-1.277.665A3.477,3.477,0,0,0,80.984-4.121Zm7.961-3.762L87.883-8.5a4.172,4.172,0,0,0,.7-2.18V-12h1.8v1.211a3.569,3.569,0,0,1-.391,1.523A4.188,4.188,0,0,1,88.945-7.883Zm2.711,0L90.594-8.5a4.172,4.172,0,0,0,.7-2.18V-12h1.8v1.211A3.569,3.569,0,0,1,92.7-9.266,4.188,4.188,0,0,1,91.656-7.883Z" transform="translate(-5938 -4214)" fill="#12263f"/>
    <path id="Trazado_121670" data-name="Trazado 121670" d="M1.617-2.328A1.22,1.22,0,0,1,2.512-2a1.111,1.111,0,0,1,.371.855,1.151,1.151,0,0,1-.344.879,1.194,1.194,0,0,1-.883.363A1.2,1.2,0,0,1,.773-.219,1.149,1.149,0,0,1,.4-1.07a1.161,1.161,0,0,1,.336-.883A1.238,1.238,0,0,1,1.617-2.328Zm3.586,0A1.22,1.22,0,0,1,6.1-2a1.111,1.111,0,0,1,.371.855,1.151,1.151,0,0,1-.344.879,1.194,1.194,0,0,1-.883.363,1.2,1.2,0,0,1-.883-.312,1.149,1.149,0,0,1-.375-.852,1.161,1.161,0,0,1,.336-.883A1.238,1.238,0,0,1,5.2-2.328Zm3.516,0A1.22,1.22,0,0,1,9.613-2a1.111,1.111,0,0,1,.371.855,1.151,1.151,0,0,1-.344.879,1.194,1.194,0,0,1-.883.363,1.2,1.2,0,0,1-.883-.312A1.149,1.149,0,0,1,7.5-1.07a1.161,1.161,0,0,1,.336-.883A1.238,1.238,0,0,1,8.719-2.328ZM15.1-8.461l-.18.961A3.112,3.112,0,0,1,17.4-8.609a2.379,2.379,0,0,1,1.3.359,1.679,1.679,0,0,1,.7.93,3.255,3.255,0,0,1,2.625-1.289,2.126,2.126,0,0,1,1.754.8,3.271,3.271,0,0,1,.5,2.234l-.016.2L23.352,0H21.141l.9-5.4a3.908,3.908,0,0,0,.023-.54.837.837,0,0,0-.937-.845,1.86,1.86,0,0,0-1.555.97l-.023.18L18.563,0h-2.2l.9-5.383a3.9,3.9,0,0,0,.023-.539.836.836,0,0,0-.93-.852,1.867,1.867,0,0,0-1.508.789L13.789,0h-2.2l1.461-8.453Zm14.836-.148a3.39,3.39,0,0,1,1.926.574A3.234,3.234,0,0,1,33.051-6.5a4.762,4.762,0,0,1,.27,2.176,5.143,5.143,0,0,1-1.4,3.262A3.96,3.96,0,0,1,28.9.156,3.38,3.38,0,0,1,26.992-.41,3.222,3.222,0,0,1,25.8-1.937a4.657,4.657,0,0,1-.273-2.156,5.3,5.3,0,0,1,1.422-3.328A3.878,3.878,0,0,1,29.938-8.609ZM27.711-3.294a1.95,1.95,0,0,0,.352,1.182,1.168,1.168,0,0,0,.945.449A1.712,1.712,0,0,0,30.6-2.6a4.647,4.647,0,0,0,.539-2.531,2.122,2.122,0,0,0-.363-1.2,1.149,1.149,0,0,0-.949-.464,1.715,1.715,0,0,0-1.574.924A4.6,4.6,0,0,0,27.711-3.294ZM39.742-6.336A4.548,4.548,0,0,0,39-6.414a2.136,2.136,0,0,0-1.867.883L36.156,0h-2.2l1.469-8.453,2.07-.008-.2,1.031a2.325,2.325,0,0,1,1.969-1.2,3.214,3.214,0,0,1,.766.109ZM43.711.156a3.677,3.677,0,0,1-1.965-.543,3.292,3.292,0,0,1-1.277-1.469,4.093,4.093,0,0,1-.328-2.059l.023-.312a5.465,5.465,0,0,1,.719-2.266,4.341,4.341,0,0,1,1.547-1.59,3.827,3.827,0,0,1,2.094-.527A2.924,2.924,0,0,1,47-7.408a4.117,4.117,0,0,1,.637,2.962l-.125.962h-5.18a1.814,1.814,0,0,0,.4,1.313,1.521,1.521,0,0,0,1.172.508A2.7,2.7,0,0,0,46.008-2.6l1.008,1.25A3.135,3.135,0,0,1,45.641-.23,4.5,4.5,0,0,1,43.711.156Zm.7-6.945a1.565,1.565,0,0,0-1.082.383,3.363,3.363,0,0,0-.848,1.383h3.031l.047-.2a2.071,2.071,0,0,0,.008-.594,1.134,1.134,0,0,0-.383-.707A1.2,1.2,0,0,0,44.414-6.789ZM54.438,0H52.219l1.469-8.453h2.219Zm-.492-10.6a1.1,1.1,0,0,1,.344-.867,1.209,1.209,0,0,1,.867-.344,1.215,1.215,0,0,1,.867.3,1.1,1.1,0,0,1,.383.828,1.132,1.132,0,0,1-.324.844,1.215,1.215,0,0,1-.887.375,1.235,1.235,0,0,1-.863-.3A1.091,1.091,0,0,1,53.945-10.6Zm5.844,2.141-.187,1a3.042,3.042,0,0,1,2.461-1.148,2.028,2.028,0,0,1,1.766.875,3.526,3.526,0,0,1,.414,2.359L63.352,0h-2.2l.906-5.4a2.528,2.528,0,0,0,.016-.555.9.9,0,0,0-1-.82,1.9,1.9,0,0,0-1.555.8L58.461,0h-2.2l1.469-8.453ZM65.672,0l1.18-6.8H65.633l.289-1.648,1.219-.008L67.25-9.3a3.332,3.332,0,0,1,1.1-2.121,3.334,3.334,0,0,1,2.289-.754,7.33,7.33,0,0,1,1.2.163l-.2,1.751a2.732,2.732,0,0,0-.648-.094,1.615,1.615,0,0,0-1,.3,1.355,1.355,0,0,0-.52.918l-.117.69h1.633L70.7-6.8H69.07L67.891,0Zm9.883-8.609a3.39,3.39,0,0,1,1.926.574A3.234,3.234,0,0,1,78.668-6.5a4.762,4.762,0,0,1,.27,2.176,5.143,5.143,0,0,1-1.4,3.262A3.96,3.96,0,0,1,74.516.156,3.38,3.38,0,0,1,72.609-.41a3.222,3.222,0,0,1-1.187-1.527,4.657,4.657,0,0,1-.273-2.156A5.3,5.3,0,0,1,72.57-7.422,3.878,3.878,0,0,1,75.555-8.609ZM73.328-3.294a1.95,1.95,0,0,0,.352,1.182,1.168,1.168,0,0,0,.945.449A1.712,1.712,0,0,0,76.219-2.6a4.647,4.647,0,0,0,.539-2.531,2.122,2.122,0,0,0-.363-1.2,1.149,1.149,0,0,0-.949-.464,1.715,1.715,0,0,0-1.574.924A4.6,4.6,0,0,0,73.328-3.294ZM85.359-6.336a4.548,4.548,0,0,0-.742-.078,2.136,2.136,0,0,0-1.867.883L81.773,0h-2.2l1.469-8.453,2.07-.008-.2,1.031a2.325,2.325,0,0,1,1.969-1.2,3.214,3.214,0,0,1,.766.109Zm3.469-2.125-.18.961a3.112,3.112,0,0,1,2.477-1.109,2.379,2.379,0,0,1,1.3.359,1.679,1.679,0,0,1,.7.93,3.255,3.255,0,0,1,2.625-1.289,2.126,2.126,0,0,1,1.754.8,3.271,3.271,0,0,1,.5,2.234l-.016.2L97.078,0H94.867l.9-5.4a3.907,3.907,0,0,0,.023-.54.837.837,0,0,0-.937-.845,1.86,1.86,0,0,0-1.555.97l-.023.18L92.289,0h-2.2l.9-5.383a3.9,3.9,0,0,0,.023-.539.836.836,0,0,0-.93-.852,1.867,1.867,0,0,0-1.508.789L87.516,0h-2.2l1.461-8.453ZM103.719,0a2.281,2.281,0,0,1-.086-.766,2.863,2.863,0,0,1-2.156.922,2.594,2.594,0,0,1-1.84-.723,2.186,2.186,0,0,1-.684-1.746,2.527,2.527,0,0,1,1.16-2.121,5.266,5.266,0,0,1,2.965-.738l1.031.016.109-.508a1.764,1.764,0,0,0,.023-.492.846.846,0,0,0-.277-.574.955.955,0,0,0-.629-.215,1.345,1.345,0,0,0-.875.254,1.231,1.231,0,0,0-.461.777l-2.211.008A2.457,2.457,0,0,1,100.9-7.871a4.312,4.312,0,0,1,2.613-.738,3.117,3.117,0,0,1,2.25.855,2.5,2.5,0,0,1,.68,2.121L105.8-1.586l-.039.5a2.412,2.412,0,0,0,.133.938L105.883,0Zm-1.7-1.555a2.017,2.017,0,0,0,1.664-.828l.273-1.461-.766-.008a2.139,2.139,0,0,0-1.758.742,1.292,1.292,0,0,0-.242.633.75.75,0,0,0,.176.668A.891.891,0,0,0,102.023-1.555Zm9.672-8.977-.367,2.078h1.406L112.445-6.8h-1.406l-.719,4.234a1.077,1.077,0,0,0,.063.609q.109.211.531.227.125.008.672-.039L111.43-.039a3.706,3.706,0,0,1-1.266.18,1.985,1.985,0,0,1-1.617-.68,2.456,2.456,0,0,1-.437-1.8l.727-4.461h-1.2l.289-1.656h1.2l.359-2.078ZM114.875,0h-2.219l1.469-8.453h2.219Zm-.492-10.6a1.1,1.1,0,0,1,.344-.867,1.209,1.209,0,0,1,.867-.344,1.215,1.215,0,0,1,.867.3,1.1,1.1,0,0,1,.383.828,1.132,1.132,0,0,1-.324.844,1.215,1.215,0,0,1-.887.375,1.235,1.235,0,0,1-.863-.3A1.091,1.091,0,0,1,114.383-10.6Zm7.2,1.992a3.39,3.39,0,0,1,1.926.574A3.234,3.234,0,0,1,124.691-6.5a4.762,4.762,0,0,1,.27,2.176,5.143,5.143,0,0,1-1.4,3.262,3.96,3.96,0,0,1-3.02,1.215,3.38,3.38,0,0,1-1.906-.566,3.222,3.222,0,0,1-1.187-1.527,4.657,4.657,0,0,1-.273-2.156,5.3,5.3,0,0,1,1.422-3.328A3.878,3.878,0,0,1,121.578-8.609Zm-2.227,5.315a1.95,1.95,0,0,0,.352,1.182,1.168,1.168,0,0,0,.945.449,1.712,1.712,0,0,0,1.594-.932,4.647,4.647,0,0,0,.539-2.531,2.122,2.122,0,0,0-.363-1.2,1.149,1.149,0,0,0-.949-.464,1.715,1.715,0,0,0-1.574.924A4.6,4.6,0,0,0,119.352-3.294Zm9.727-5.167-.187,1a3.042,3.042,0,0,1,2.461-1.148,2.028,2.028,0,0,1,1.766.875,3.526,3.526,0,0,1,.414,2.359L132.641,0h-2.2l.906-5.4a2.527,2.527,0,0,0,.016-.555.9.9,0,0,0-1-.82,1.9,1.9,0,0,0-1.555.8L127.75,0h-2.2l1.469-8.453Z" transform="translate(-5786 -4235)" fill="#ff5f65"/>
    <path id="Trazado_121677" data-name="Trazado 121677" d="M1.617-2.328A1.22,1.22,0,0,1,2.512-2a1.111,1.111,0,0,1,.371.855,1.151,1.151,0,0,1-.344.879,1.194,1.194,0,0,1-.883.363A1.2,1.2,0,0,1,.773-.219,1.149,1.149,0,0,1,.4-1.07a1.161,1.161,0,0,1,.336-.883A1.238,1.238,0,0,1,1.617-2.328Zm3.586,0A1.22,1.22,0,0,1,6.1-2a1.111,1.111,0,0,1,.371.855,1.151,1.151,0,0,1-.344.879,1.194,1.194,0,0,1-.883.363,1.2,1.2,0,0,1-.883-.312,1.149,1.149,0,0,1-.375-.852,1.161,1.161,0,0,1,.336-.883A1.238,1.238,0,0,1,5.2-2.328Zm3.516,0A1.22,1.22,0,0,1,9.613-2a1.111,1.111,0,0,1,.371.855,1.151,1.151,0,0,1-.344.879,1.194,1.194,0,0,1-.883.363,1.2,1.2,0,0,1-.883-.312A1.149,1.149,0,0,1,7.5-1.07a1.161,1.161,0,0,1,.336-.883A1.238,1.238,0,0,1,8.719-2.328ZM15.1-8.461l-.18.961A3.112,3.112,0,0,1,17.4-8.609a2.379,2.379,0,0,1,1.3.359,1.679,1.679,0,0,1,.7.93,3.255,3.255,0,0,1,2.625-1.289,2.126,2.126,0,0,1,1.754.8,3.271,3.271,0,0,1,.5,2.234l-.016.2L23.352,0H21.141l.9-5.4a3.908,3.908,0,0,0,.023-.54.837.837,0,0,0-.937-.845,1.86,1.86,0,0,0-1.555.97l-.023.18L18.563,0h-2.2l.9-5.383a3.9,3.9,0,0,0,.023-.539.836.836,0,0,0-.93-.852,1.867,1.867,0,0,0-1.508.789L13.789,0h-2.2l1.461-8.453ZM29.992,0a2.281,2.281,0,0,1-.086-.766A2.863,2.863,0,0,1,27.75.156a2.594,2.594,0,0,1-1.84-.723,2.186,2.186,0,0,1-.684-1.746,2.527,2.527,0,0,1,1.16-2.121,5.266,5.266,0,0,1,2.965-.738l1.031.016.109-.508a1.764,1.764,0,0,0,.023-.492.846.846,0,0,0-.277-.574.955.955,0,0,0-.629-.215,1.345,1.345,0,0,0-.875.254,1.231,1.231,0,0,0-.461.777l-2.211.008a2.457,2.457,0,0,1,1.113-1.965,4.312,4.312,0,0,1,2.613-.738,3.117,3.117,0,0,1,2.25.855,2.5,2.5,0,0,1,.68,2.121L32.07-1.586l-.039.5a2.412,2.412,0,0,0,.133.938L32.156,0ZM28.3-1.555a2.017,2.017,0,0,0,1.664-.828l.273-1.461-.766-.008a2.139,2.139,0,0,0-1.758.742,1.292,1.292,0,0,0-.242.633.75.75,0,0,0,.176.668A.891.891,0,0,0,28.3-1.555ZM30.859-12h2.555L30.93-9.578H28.984ZM38.4-2.383q.125-.625-.867-.906l-.711-.18q-2.523-.7-2.453-2.453a2.428,2.428,0,0,1,1.059-1.949,3.942,3.942,0,0,1,2.457-.738,3.536,3.536,0,0,1,2.313.758,2.5,2.5,0,0,1,.9,1.977l-2.187-.008a.963.963,0,0,0-1.078-1.1,1.552,1.552,0,0,0-.895.258,1.061,1.061,0,0,0-.465.7q-.117.625.945.883l.313.07a6.285,6.285,0,0,1,1.648.59,2.488,2.488,0,0,1,.879.824,2.04,2.04,0,0,1,.285,1.18,2.251,2.251,0,0,1-.52,1.406,3.18,3.18,0,0,1-1.359.93,4.736,4.736,0,0,1-1.816.3A3.568,3.568,0,0,1,34.5-.652,2.607,2.607,0,0,1,33.547-2.7l2.078.016a1.142,1.142,0,0,0,1.3,1.227,1.845,1.845,0,0,0,1-.25A.987.987,0,0,0,38.4-2.383ZM47.828,0H45.609l1.469-8.453H49.3Zm-.492-10.6a1.1,1.1,0,0,1,.344-.867,1.209,1.209,0,0,1,.867-.344,1.215,1.215,0,0,1,.867.3,1.1,1.1,0,0,1,.383.828,1.132,1.132,0,0,1-.324.844,1.215,1.215,0,0,1-.887.375,1.235,1.235,0,0,1-.863-.3A1.091,1.091,0,0,1,47.336-10.6ZM53.18-8.461l-.187,1a3.042,3.042,0,0,1,2.461-1.148,2.028,2.028,0,0,1,1.766.875,3.526,3.526,0,0,1,.414,2.359L56.742,0h-2.2l.906-5.4a2.528,2.528,0,0,0,.016-.555.9.9,0,0,0-1-.82,1.9,1.9,0,0,0-1.555.8L51.852,0h-2.2l1.469-8.453ZM59.063,0l1.18-6.8H59.023l.289-1.648,1.219-.008.109-.844a3.332,3.332,0,0,1,1.1-2.121,3.334,3.334,0,0,1,2.289-.754,7.33,7.33,0,0,1,1.2.163l-.2,1.751a2.732,2.732,0,0,0-.648-.094,1.615,1.615,0,0,0-1,.3,1.355,1.355,0,0,0-.52.918l-.117.69h1.633L64.086-6.8H62.461L61.281,0Zm9.883-8.609a3.39,3.39,0,0,1,1.926.574A3.234,3.234,0,0,1,72.059-6.5a4.762,4.762,0,0,1,.27,2.176,5.143,5.143,0,0,1-1.4,3.262A3.96,3.96,0,0,1,67.906.156,3.38,3.38,0,0,1,66-.41a3.222,3.222,0,0,1-1.187-1.527,4.657,4.657,0,0,1-.273-2.156,5.3,5.3,0,0,1,1.422-3.328A3.878,3.878,0,0,1,68.945-8.609ZM66.719-3.294a1.95,1.95,0,0,0,.352,1.182,1.168,1.168,0,0,0,.945.449A1.712,1.712,0,0,0,69.609-2.6a4.647,4.647,0,0,0,.539-2.531,2.122,2.122,0,0,0-.363-1.2,1.149,1.149,0,0,0-.949-.464,1.715,1.715,0,0,0-1.574.924A4.6,4.6,0,0,0,66.719-3.294ZM78.75-6.336a4.548,4.548,0,0,0-.742-.078,2.136,2.136,0,0,0-1.867.883L75.164,0h-2.2L74.43-8.453l2.07-.008L76.3-7.43a2.325,2.325,0,0,1,1.969-1.2,3.214,3.214,0,0,1,.766.109Zm3.469-2.125-.18.961a3.112,3.112,0,0,1,2.477-1.109,2.379,2.379,0,0,1,1.3.359,1.679,1.679,0,0,1,.7.93,3.255,3.255,0,0,1,2.625-1.289,2.126,2.126,0,0,1,1.754.8,3.271,3.271,0,0,1,.5,2.234l-.016.2L90.469,0H88.258l.9-5.4a3.907,3.907,0,0,0,.023-.54.837.837,0,0,0-.937-.845,1.86,1.86,0,0,0-1.555.97l-.023.18L85.68,0h-2.2l.9-5.383a3.9,3.9,0,0,0,.023-.539.836.836,0,0,0-.93-.852,1.867,1.867,0,0,0-1.508.789L80.906,0H78.7l1.461-8.453ZM97.109,0a2.281,2.281,0,0,1-.086-.766,2.863,2.863,0,0,1-2.156.922,2.594,2.594,0,0,1-1.84-.723,2.186,2.186,0,0,1-.684-1.746A2.527,2.527,0,0,1,93.5-4.434a5.266,5.266,0,0,1,2.965-.738l1.031.016.109-.508a1.764,1.764,0,0,0,.023-.492.846.846,0,0,0-.277-.574.955.955,0,0,0-.629-.215,1.345,1.345,0,0,0-.875.254,1.231,1.231,0,0,0-.461.777l-2.211.008a2.457,2.457,0,0,1,1.113-1.965,4.312,4.312,0,0,1,2.613-.738,3.117,3.117,0,0,1,2.25.855,2.5,2.5,0,0,1,.68,2.121l-.648,4.047-.039.5a2.412,2.412,0,0,0,.133.938L99.273,0Zm-1.7-1.555a2.017,2.017,0,0,0,1.664-.828l.273-1.461-.766-.008a2.139,2.139,0,0,0-1.758.742,1.292,1.292,0,0,0-.242.633.75.75,0,0,0,.176.668A.891.891,0,0,0,95.414-1.555Zm8.906-.1a1.447,1.447,0,0,0,1.016-.332,1.632,1.632,0,0,0,.531-.926l2.07-.008a3.037,3.037,0,0,1-.559,1.6,3.394,3.394,0,0,1-1.344,1.109,3.847,3.847,0,0,1-1.77.375A3.123,3.123,0,0,1,101.828-.9a3.965,3.965,0,0,1-.867-2.766l.023-.43.008-.086a5.284,5.284,0,0,1,1.391-3.27,3.761,3.761,0,0,1,2.914-1.16,3.047,3.047,0,0,1,2.27.934,3.3,3.3,0,0,1,.824,2.379h-2.055a1.73,1.73,0,0,0-.3-1.07,1.128,1.128,0,0,0-.891-.422q-1.578-.047-1.914,2.3a7.782,7.782,0,0,0-.086,1.438Q103.227-1.68,104.32-1.656ZM111.117,0H108.9l1.469-8.453h2.219Zm-.492-10.6a1.1,1.1,0,0,1,.344-.867,1.209,1.209,0,0,1,.867-.344,1.215,1.215,0,0,1,.867.3,1.1,1.1,0,0,1,.383.828,1.132,1.132,0,0,1-.324.844,1.215,1.215,0,0,1-.887.375,1.235,1.235,0,0,1-.863-.3A1.091,1.091,0,0,1,110.625-10.6Zm7.2,1.992a3.39,3.39,0,0,1,1.926.574A3.234,3.234,0,0,1,120.934-6.5a4.762,4.762,0,0,1,.27,2.176,5.143,5.143,0,0,1-1.4,3.262,3.96,3.96,0,0,1-3.02,1.215,3.38,3.38,0,0,1-1.906-.566,3.222,3.222,0,0,1-1.187-1.527,4.657,4.657,0,0,1-.273-2.156,5.3,5.3,0,0,1,1.422-3.328A3.878,3.878,0,0,1,117.82-8.609Zm-2.227,5.315a1.95,1.95,0,0,0,.352,1.182,1.168,1.168,0,0,0,.945.449,1.712,1.712,0,0,0,1.594-.932,4.647,4.647,0,0,0,.539-2.531,2.122,2.122,0,0,0-.363-1.2,1.149,1.149,0,0,0-.949-.464,1.715,1.715,0,0,0-1.574.924A4.6,4.6,0,0,0,115.594-3.294ZM118.836-12h2.555l-2.484,2.422h-1.945Zm6.484,3.539-.187,1a3.042,3.042,0,0,1,2.461-1.148,2.028,2.028,0,0,1,1.766.875,3.526,3.526,0,0,1,.414,2.359L128.883,0h-2.2l.906-5.4a2.528,2.528,0,0,0,.016-.555.9.9,0,0,0-1-.82,1.9,1.9,0,0,0-1.555.8L123.992,0h-2.2l1.469-8.453Z" transform="translate(-5786 -4214)" fill="#12263f"/>
    <path id="Trazado_121666" data-name="Trazado 121666" d="M-28.449-1.992l3.25-9.383h1.641L-27.777,0h-1.328l-4.211-11.375h1.633Zm9.7,2.148a3.693,3.693,0,0,1-2.8-1.129,4.19,4.19,0,0,1-1.078-3.02v-.266a5.073,5.073,0,0,1,.48-2.246A3.748,3.748,0,0,1-20.8-8.051a3.378,3.378,0,0,1,1.871-.559,3.166,3.166,0,0,1,2.563,1.086,4.7,4.7,0,0,1,.914,3.109v.6h-5.727a3,3,0,0,0,.73,2.02,2.3,2.3,0,0,0,1.777.77,2.517,2.517,0,0,0,1.3-.312,3.259,3.259,0,0,0,.93-.828l.883.688A3.55,3.55,0,0,1-18.754.156Zm-.18-7.578a1.928,1.928,0,0,0-1.469.637A3.1,3.1,0,0,0-21.137-5H-16.9v-.109A2.753,2.753,0,0,0-17.5-6.816,1.815,1.815,0,0,0-18.934-7.422Zm9.234.266a4.331,4.331,0,0,0-.711-.055A1.9,1.9,0,0,0-12.34-6V0h-1.445V-8.453h1.406l.023.977A2.251,2.251,0,0,1-10.34-8.609,1.477,1.477,0,0,1-9.7-8.5Zm8.484,3.023A5.026,5.026,0,0,1-2.105-1.02,2.846,2.846,0,0,1-4.5.156,2.947,2.947,0,0,1-6.973-.977L-7.043,0H-8.371V-12h1.445v4.477A2.93,2.93,0,0,1-4.512-8.609,2.863,2.863,0,0,1-2.094-7.445a5.177,5.177,0,0,1,.879,3.188ZM-2.66-4.3a3.906,3.906,0,0,0-.57-2.281,1.888,1.888,0,0,0-1.641-.8A2.122,2.122,0,0,0-6.926-6.055V-2.4A2.181,2.181,0,0,0-4.855-1.07a1.878,1.878,0,0,0,1.617-.8A4.153,4.153,0,0,0-2.66-4.3Zm10.234.055H3.762v-1.18H7.574ZM10.551,0H9.105V-8.453h1.445ZM8.988-10.7a.863.863,0,0,1,.215-.594.807.807,0,0,1,.637-.242.819.819,0,0,1,.641.242.854.854,0,0,1,.219.594.826.826,0,0,1-.219.586.834.834,0,0,1-.641.234.821.821,0,0,1-.637-.234A.834.834,0,0,1,8.988-10.7ZM14.23-8.453l.047,1.063a3.08,3.08,0,0,1,2.531-1.219q2.68,0,2.7,3.023V0H18.066V-5.594a1.946,1.946,0,0,0-.418-1.352,1.675,1.675,0,0,0-1.277-.437,2.086,2.086,0,0,0-1.234.375,2.546,2.546,0,0,0-.828.984V0H12.863V-8.453ZM21.348-4.3a4.968,4.968,0,0,1,.914-3.145,2.923,2.923,0,0,1,2.422-1.168A2.908,2.908,0,0,1,27.1-7.516l.07-.937h1.32V-.2a3.439,3.439,0,0,1-.973,2.586,3.589,3.589,0,0,1-2.613.945,4.348,4.348,0,0,1-1.789-.391,3.08,3.08,0,0,1-1.336-1.07L22.527,1A2.826,2.826,0,0,0,24.8,2.148a2.214,2.214,0,0,0,1.645-.594,2.269,2.269,0,0,0,.59-1.672V-.844a2.971,2.971,0,0,1-2.367,1,2.887,2.887,0,0,1-2.4-1.2A5.224,5.224,0,0,1,21.348-4.3Zm1.453.164a3.79,3.79,0,0,0,.586,2.246,1.9,1.9,0,0,0,1.641.816,2.117,2.117,0,0,0,2.008-1.242V-6.172a2.142,2.142,0,0,0-1.992-1.211,1.921,1.921,0,0,0-1.648.82A4.128,4.128,0,0,0,22.8-4.133ZM-31.031,18.008l3.25-9.383h1.641L-30.359,20h-1.328L-35.9,8.625h1.633Zm9.7,2.148a3.693,3.693,0,0,1-2.8-1.129,4.19,4.19,0,0,1-1.078-3.02v-.266a5.073,5.073,0,0,1,.48-2.246,3.748,3.748,0,0,1,1.344-1.547,3.378,3.378,0,0,1,1.871-.559,3.166,3.166,0,0,1,2.563,1.086,4.7,4.7,0,0,1,.914,3.109v.6h-5.727a3,3,0,0,0,.73,2.02,2.3,2.3,0,0,0,1.777.77,2.517,2.517,0,0,0,1.3-.312,3.259,3.259,0,0,0,.93-.828l.883.688A3.55,3.55,0,0,1-21.336,20.156Zm-.18-7.578a1.928,1.928,0,0,0-1.469.637A3.1,3.1,0,0,0-23.719,15h4.234v-.109a2.753,2.753,0,0,0-.594-1.707A1.815,1.815,0,0,0-21.516,12.578Zm9.234.266a4.331,4.331,0,0,0-.711-.055A1.9,1.9,0,0,0-14.922,14v6h-1.445V11.547h1.406l.023.977a2.251,2.251,0,0,1,2.016-1.133,1.477,1.477,0,0,1,.641.109ZM-3.8,15.867a5.026,5.026,0,0,1-.891,3.113,2.846,2.846,0,0,1-2.391,1.176,2.947,2.947,0,0,1-2.477-1.133l-.07.977h-1.328V8h1.445v4.477a2.93,2.93,0,0,1,2.414-1.086,2.863,2.863,0,0,1,2.418,1.164A5.177,5.177,0,0,1-3.8,15.742ZM-5.242,15.7a3.906,3.906,0,0,0-.57-2.281,1.888,1.888,0,0,0-1.641-.8,2.122,2.122,0,0,0-2.055,1.328V17.6a2.181,2.181,0,0,0,2.07,1.328,1.878,1.878,0,0,0,1.617-.8A4.153,4.153,0,0,0-5.242,15.7Zm2.883-.008a4.993,4.993,0,0,1,.488-2.234A3.643,3.643,0,0,1-.512,11.93a3.7,3.7,0,0,1,1.988-.539,3.565,3.565,0,0,1,2.793,1.2,4.6,4.6,0,0,1,1.066,3.18v.1a5.036,5.036,0,0,1-.473,2.215,3.589,3.589,0,0,1-1.352,1.527,3.743,3.743,0,0,1-2.02.547,3.556,3.556,0,0,1-2.785-1.2A4.575,4.575,0,0,1-2.359,15.8Zm1.453.172a3.616,3.616,0,0,0,.652,2.258,2.088,2.088,0,0,0,1.746.852,2.075,2.075,0,0,0,1.75-.863A3.955,3.955,0,0,0,3.891,15.7a3.61,3.61,0,0,0-.66-2.254,2.1,2.1,0,0,0-1.754-.863A2.075,2.075,0,0,0-.25,13.43,3.925,3.925,0,0,0-.906,15.867Zm15.023-.109H10.3v-1.18h3.813ZM17.094,20H15.648V11.547h1.445ZM15.531,9.3a.863.863,0,0,1,.215-.594.807.807,0,0,1,.637-.242.819.819,0,0,1,.641.242.854.854,0,0,1,.219.594.826.826,0,0,1-.219.586.834.834,0,0,1-.641.234.821.821,0,0,1-.637-.234A.834.834,0,0,1,15.531,9.3Zm5.242,2.242.047,1.063a3.08,3.08,0,0,1,2.531-1.219q2.68,0,2.7,3.023V20H24.609V14.406a1.946,1.946,0,0,0-.418-1.352,1.675,1.675,0,0,0-1.277-.437,2.086,2.086,0,0,0-1.234.375,2.546,2.546,0,0,0-.828.984V20H19.406V11.547ZM27.891,15.7a4.968,4.968,0,0,1,.914-3.145,3.151,3.151,0,0,1,4.836-.074l.07-.937h1.32V19.8a3.439,3.439,0,0,1-.973,2.586,3.589,3.589,0,0,1-2.613.945,4.348,4.348,0,0,1-1.789-.391,3.08,3.08,0,0,1-1.336-1.07L29.07,21a2.826,2.826,0,0,0,2.273,1.148,2.214,2.214,0,0,0,1.645-.594,2.269,2.269,0,0,0,.59-1.672v-.727a2.971,2.971,0,0,1-2.367,1,2.887,2.887,0,0,1-2.4-1.2A5.224,5.224,0,0,1,27.891,15.7Zm1.453.164a3.79,3.79,0,0,0,.586,2.246,1.9,1.9,0,0,0,1.641.816,2.117,2.117,0,0,0,2.008-1.242V13.828a2.142,2.142,0,0,0-1.992-1.211,1.921,1.921,0,0,0-1.648.82A4.128,4.128,0,0,0,29.344,15.867Z" transform="translate(-5944 -4299)" fill="#12263f"/>
    <path id="Trazado_121663" data-name="Trazado 121663" d="M9.688-3.609A4.185,4.185,0,0,1,8.355-.824a4.365,4.365,0,0,1-2.98.98,4.008,4.008,0,0,1-3.23-1.445A5.815,5.815,0,0,1,.93-5.156V-6.25A6.481,6.481,0,0,1,1.5-9.039,4.231,4.231,0,0,1,3.1-10.887a4.47,4.47,0,0,1,2.406-.645A4.11,4.11,0,0,1,8.414-10.52a4.235,4.235,0,0,1,1.273,2.8H8.18a3.268,3.268,0,0,0-.848-1.975A2.565,2.565,0,0,0,5.508-10.3,2.684,2.684,0,0,0,3.254-9.241a4.882,4.882,0,0,0-.816,3.026v1.1a5.018,5.018,0,0,0,.773,2.948A2.5,2.5,0,0,0,5.375-1.07a2.887,2.887,0,0,0,1.918-.566A3.143,3.143,0,0,0,8.18-3.609Zm1.438-.7a4.993,4.993,0,0,1,.488-2.234A3.643,3.643,0,0,1,12.973-8.07a3.7,3.7,0,0,1,1.988-.539,3.565,3.565,0,0,1,2.793,1.2,4.6,4.6,0,0,1,1.066,3.18v.1a5.036,5.036,0,0,1-.473,2.215A3.589,3.589,0,0,1,17-.391a3.743,3.743,0,0,1-2.02.547,3.556,3.556,0,0,1-2.785-1.2A4.575,4.575,0,0,1,11.125-4.2Zm1.453.172a3.616,3.616,0,0,0,.652,2.258,2.088,2.088,0,0,0,1.746.852,2.075,2.075,0,0,0,1.75-.863A3.955,3.955,0,0,0,17.375-4.3a3.61,3.61,0,0,0-.66-2.254,2.1,2.1,0,0,0-1.754-.863,2.075,2.075,0,0,0-1.727.852A3.925,3.925,0,0,0,12.578-4.133Zm9.414-4.32.039.938a3.122,3.122,0,0,1,2.508-1.094A2.417,2.417,0,0,1,26.953-7.25a3.2,3.2,0,0,1,1.1-.984,3.242,3.242,0,0,1,1.6-.375q2.781,0,2.828,2.945V0H31.031V-5.578a1.941,1.941,0,0,0-.414-1.355,1.823,1.823,0,0,0-1.391-.449,1.916,1.916,0,0,0-1.336.48,1.949,1.949,0,0,0-.617,1.293V0H25.82V-5.539a1.613,1.613,0,0,0-1.8-1.844A1.934,1.934,0,0,0,22.07-6.172V0H20.625V-8.453Zm19.8,4.32a5.062,5.062,0,0,1-.883,3.109A2.829,2.829,0,0,1,38.523.156,3.1,3.1,0,0,1,36.1-.82V3.25H34.656v-11.7h1.32l.07.938A2.977,2.977,0,0,1,38.5-8.609a2.882,2.882,0,0,1,2.41,1.148,5.117,5.117,0,0,1,.887,3.2ZM40.352-4.3a3.735,3.735,0,0,0-.609-2.258,1.963,1.963,0,0,0-1.672-.828A2.125,2.125,0,0,0,36.1-6.219V-2.18a2.129,2.129,0,0,0,1.984,1.156,1.954,1.954,0,0,0,1.652-.824A4.077,4.077,0,0,0,40.352-4.3ZM45.2,0H43.758V-12H45.2Zm5.82.156a3.693,3.693,0,0,1-2.8-1.129,4.19,4.19,0,0,1-1.078-3.02v-.266a5.073,5.073,0,0,1,.48-2.246,3.748,3.748,0,0,1,1.344-1.547,3.378,3.378,0,0,1,1.871-.559,3.166,3.166,0,0,1,2.563,1.086,4.7,4.7,0,0,1,.914,3.109v.6H48.594a3,3,0,0,0,.73,2.02,2.3,2.3,0,0,0,1.777.77,2.517,2.517,0,0,0,1.3-.312,3.259,3.259,0,0,0,.93-.828l.883.688A3.55,3.55,0,0,1,51.023.156Zm-.18-7.578a1.928,1.928,0,0,0-1.469.637A3.1,3.1,0,0,0,48.641-5h4.234v-.109a2.753,2.753,0,0,0-.594-1.707A1.815,1.815,0,0,0,50.844-7.422Zm6.508-1.031.039.938A3.122,3.122,0,0,1,59.9-8.609,2.417,2.417,0,0,1,62.313-7.25a3.2,3.2,0,0,1,1.1-.984,3.242,3.242,0,0,1,1.6-.375q2.781,0,2.828,2.945V0H66.391V-5.578a1.941,1.941,0,0,0-.414-1.355,1.823,1.823,0,0,0-1.391-.449,1.916,1.916,0,0,0-1.336.48,1.949,1.949,0,0,0-.617,1.293V0H61.18V-5.539a1.613,1.613,0,0,0-1.8-1.844A1.934,1.934,0,0,0,57.43-6.172V0H55.984V-8.453ZM73.523.156a3.693,3.693,0,0,1-2.8-1.129,4.19,4.19,0,0,1-1.078-3.02v-.266a5.073,5.073,0,0,1,.48-2.246,3.748,3.748,0,0,1,1.344-1.547,3.378,3.378,0,0,1,1.871-.559,3.166,3.166,0,0,1,2.563,1.086,4.7,4.7,0,0,1,.914,3.109v.6H71.094a3,3,0,0,0,.73,2.02,2.3,2.3,0,0,0,1.777.77,2.517,2.517,0,0,0,1.3-.312,3.259,3.259,0,0,0,.93-.828l.883.688A3.55,3.55,0,0,1,73.523.156Zm-.18-7.578a1.928,1.928,0,0,0-1.469.637A3.1,3.1,0,0,0,71.141-5h4.234v-.109a2.753,2.753,0,0,0-.594-1.707A1.815,1.815,0,0,0,73.344-7.422Zm6.516-1.031.047,1.063a3.08,3.08,0,0,1,2.531-1.219q2.68,0,2.7,3.023V0H83.7V-5.594a1.946,1.946,0,0,0-.418-1.352A1.675,1.675,0,0,0,82-7.383a2.086,2.086,0,0,0-1.234.375,2.546,2.546,0,0,0-.828.984V0H78.492V-8.453ZM89.281-10.5v2.047h1.578v1.117H89.281v5.249a1.173,1.173,0,0,0,.211.763.888.888,0,0,0,.719.254,3.5,3.5,0,0,0,.688-.094V0a4.215,4.215,0,0,1-1.109.155A1.8,1.8,0,0,1,88.328-.43a2.517,2.517,0,0,1-.492-1.664V-7.336H86.3V-8.453h1.539V-10.5ZM9.688,16.391a4.185,4.185,0,0,1-1.332,2.785,4.365,4.365,0,0,1-2.98.98,4.008,4.008,0,0,1-3.23-1.445A5.815,5.815,0,0,1,.93,14.844V13.75A6.481,6.481,0,0,1,1.5,10.961,4.231,4.231,0,0,1,3.1,9.113a4.47,4.47,0,0,1,2.406-.645A4.11,4.11,0,0,1,8.414,9.48a4.235,4.235,0,0,1,1.273,2.8H8.18a3.268,3.268,0,0,0-.848-1.975A2.565,2.565,0,0,0,5.508,9.7a2.684,2.684,0,0,0-2.254,1.063,4.882,4.882,0,0,0-.816,3.026v1.1a5.018,5.018,0,0,0,.773,2.948A2.5,2.5,0,0,0,5.375,18.93a2.887,2.887,0,0,0,1.918-.566,3.143,3.143,0,0,0,.887-1.973Zm1.438-.7a4.993,4.993,0,0,1,.488-2.234,3.643,3.643,0,0,1,1.359-1.531,3.7,3.7,0,0,1,1.988-.539,3.565,3.565,0,0,1,2.793,1.2,4.6,4.6,0,0,1,1.066,3.18v.1a5.036,5.036,0,0,1-.473,2.215A3.589,3.589,0,0,1,17,19.609a3.743,3.743,0,0,1-2.02.547,3.556,3.556,0,0,1-2.785-1.2A4.575,4.575,0,0,1,11.125,15.8Zm1.453.172a3.616,3.616,0,0,0,.652,2.258,2.211,2.211,0,0,0,3.5-.012,3.955,3.955,0,0,0,.648-2.418,3.61,3.61,0,0,0-.66-2.254,2.1,2.1,0,0,0-1.754-.863,2.075,2.075,0,0,0-1.727.852A3.925,3.925,0,0,0,12.578,15.867Zm9.414-4.32.039.938a3.122,3.122,0,0,1,2.508-1.094,2.417,2.417,0,0,1,2.414,1.359,3.2,3.2,0,0,1,1.1-.984,3.242,3.242,0,0,1,1.6-.375q2.781,0,2.828,2.945V20H31.031V14.422a1.941,1.941,0,0,0-.414-1.355,1.823,1.823,0,0,0-1.391-.449,1.916,1.916,0,0,0-1.336.48,1.949,1.949,0,0,0-.617,1.293V20H25.82V14.461a1.613,1.613,0,0,0-1.8-1.844,1.934,1.934,0,0,0-1.945,1.211V20H20.625V11.547Zm19.8,4.32a5.062,5.062,0,0,1-.883,3.109,2.829,2.829,0,0,1-2.391,1.18A3.1,3.1,0,0,1,36.1,19.18v4.07H34.656v-11.7h1.32l.07.938A2.977,2.977,0,0,1,38.5,11.391a2.882,2.882,0,0,1,2.41,1.148,5.117,5.117,0,0,1,.887,3.2ZM40.352,15.7a3.735,3.735,0,0,0-.609-2.258,1.963,1.963,0,0,0-1.672-.828A2.125,2.125,0,0,0,36.1,13.781V17.82a2.129,2.129,0,0,0,1.984,1.156,1.954,1.954,0,0,0,1.652-.824A4.077,4.077,0,0,0,40.352,15.7ZM45.2,20H43.758V8H45.2Zm5.82.156a3.693,3.693,0,0,1-2.8-1.129,4.19,4.19,0,0,1-1.078-3.02v-.266a5.073,5.073,0,0,1,.48-2.246,3.748,3.748,0,0,1,1.344-1.547,3.378,3.378,0,0,1,1.871-.559,3.166,3.166,0,0,1,2.563,1.086,4.7,4.7,0,0,1,.914,3.109v.6H48.594a3,3,0,0,0,.73,2.02,2.3,2.3,0,0,0,1.777.77,2.517,2.517,0,0,0,1.3-.312,3.259,3.259,0,0,0,.93-.828l.883.688A3.55,3.55,0,0,1,51.023,20.156Zm-.18-7.578a1.928,1.928,0,0,0-1.469.637A3.1,3.1,0,0,0,48.641,15h4.234v-.109a2.753,2.753,0,0,0-.594-1.707A1.815,1.815,0,0,0,50.844,12.578Zm6.508-1.031.039.938A3.122,3.122,0,0,1,59.9,11.391a2.417,2.417,0,0,1,2.414,1.359,3.2,3.2,0,0,1,1.1-.984,3.242,3.242,0,0,1,1.6-.375q2.781,0,2.828,2.945V20H66.391V14.422a1.941,1.941,0,0,0-.414-1.355,1.823,1.823,0,0,0-1.391-.449,1.916,1.916,0,0,0-1.336.48,1.949,1.949,0,0,0-.617,1.293V20H61.18V14.461a1.613,1.613,0,0,0-1.8-1.844,1.934,1.934,0,0,0-1.945,1.211V20H55.984V11.547Zm16.172,8.609a3.693,3.693,0,0,1-2.8-1.129,4.19,4.19,0,0,1-1.078-3.02v-.266a5.073,5.073,0,0,1,.48-2.246,3.748,3.748,0,0,1,1.344-1.547,3.378,3.378,0,0,1,1.871-.559,3.166,3.166,0,0,1,2.563,1.086,4.7,4.7,0,0,1,.914,3.109v.6H71.094a3,3,0,0,0,.73,2.02,2.3,2.3,0,0,0,1.777.77,2.517,2.517,0,0,0,1.3-.312,3.259,3.259,0,0,0,.93-.828l.883.688A3.55,3.55,0,0,1,73.523,20.156Zm-.18-7.578a1.928,1.928,0,0,0-1.469.637A3.1,3.1,0,0,0,71.141,15h4.234v-.109a2.753,2.753,0,0,0-.594-1.707A1.815,1.815,0,0,0,73.344,12.578Zm6.516-1.031.047,1.063a3.08,3.08,0,0,1,2.531-1.219q2.68,0,2.7,3.023V20H83.7V14.406a1.946,1.946,0,0,0-.418-1.352A1.675,1.675,0,0,0,82,12.617a2.086,2.086,0,0,0-1.234.375,2.546,2.546,0,0,0-.828.984V20H78.492V11.547ZM89.281,9.5v2.047h1.578v1.117H89.281v5.249a1.173,1.173,0,0,0,.211.763.888.888,0,0,0,.719.254,3.5,3.5,0,0,0,.688-.094V20a4.215,4.215,0,0,1-1.109.155,1.8,1.8,0,0,1-1.461-.586,2.517,2.517,0,0,1-.492-1.664V12.664H86.3V11.547h1.539V9.5Zm2.727,6.2a4.993,4.993,0,0,1,.488-2.234,3.643,3.643,0,0,1,1.359-1.531,3.7,3.7,0,0,1,1.988-.539,3.565,3.565,0,0,1,2.793,1.2,4.6,4.6,0,0,1,1.066,3.18v.1a5.036,5.036,0,0,1-.473,2.215,3.589,3.589,0,0,1-1.352,1.527,3.743,3.743,0,0,1-2.02.547,3.556,3.556,0,0,1-2.785-1.2A4.575,4.575,0,0,1,92.008,15.8Zm1.453.172a3.616,3.616,0,0,0,.652,2.258,2.211,2.211,0,0,0,3.5-.012,3.955,3.955,0,0,0,.648-2.418,3.61,3.61,0,0,0-.66-2.254,2.1,2.1,0,0,0-1.754-.863,2.075,2.075,0,0,0-1.727.852A3.925,3.925,0,0,0,93.461,15.867Z" transform="translate(-5769 -4298)" fill="#12263f"/>
    <path id="Trazado_121686" data-name="Trazado 121686" d="M8.227-9.68h4v3.387h-4v4.582H4.535V-6.293H.527V-9.68H4.535v-4.453H8.227Z" transform="translate(-6403 -4276)" fill="#ff5f65"/>
    <path id="Trazado_121672" data-name="Trazado 121672" d="M8.227-9.68h4v3.387h-4v4.582H4.535V-6.293H.527V-9.68H4.535v-4.453H8.227Z" transform="translate(-6060 -4276)" fill="#ff5f65"/>
    <path id="Trazado_121687" data-name="Trazado 121687" d="M8.227-9.68h4v3.387h-4v4.582H4.535V-6.293H.527V-9.68H4.535v-4.453H8.227Z" transform="translate(-6403 -4222)" fill="#3c3fa7"/>
    <path id="Trazado_121673" data-name="Trazado 121673" d="M8.227-9.68h4v3.387h-4v4.582H4.535V-6.293H.527V-9.68H4.535v-4.453H8.227Z" transform="translate(-6060 -4222)" fill="#3c3fa7"/>
    <path id="Trazado_121664" data-name="Trazado 121664" d="M8.227-9.68h4v3.387h-4v4.582H4.535V-6.293H.527V-9.68H4.535v-4.453H8.227Z" transform="translate(-5826 -4276)" fill="#ff5f65"/>
    <path id="Trazado_121671" data-name="Trazado 121671" d="M8.227-9.68h4v3.387h-4v4.582H4.535V-6.293H.527V-9.68H4.535v-4.453H8.227Z" transform="translate(-5826 -4222)" fill="#3c3fa7"/>
  </g>
</svg>
