<svg xmlns="http://www.w3.org/2000/svg" width="893" height="231.65" viewBox="0 0 893 231.65">
  <g id="Grupo_88138" data-name="Grupo 88138" transform="translate(9599.5 711.65)">
    <g id="Grupo_88137" data-name="Grupo 88137">
      <g id="Grupo_88130" data-name="Grupo 88130" transform="translate(-9953 -11724)">
        <rect id="Rectángulo_34774" data-name="Rectángulo 34774" width="166" height="231.65" rx="20" transform="translate(607.5 11012.35)" fill="#e1e8ff"/>
        <rect id="Rectángulo_34777" data-name="Rectángulo 34777" width="178" height="231.65" rx="20" transform="translate(1068.5 11012.35)" fill="#e1e8ff"/>
        <rect id="Rectángulo_34776" data-name="Rectángulo 34776" width="190" height="231.65" rx="20" transform="translate(828.5 11012.35)" fill="#e1e8ff"/>
        <rect id="Rectángulo_34775" data-name="Rectángulo 34775" width="210" height="231.65" rx="20" transform="translate(353.5 11012.35)" fill="#e1e8ff"/>
        <path id="Rectángulo_35446" data-name="Rectángulo 35446" d="M20,0H146a20,20,0,0,1,20,20V129.15a0,0,0,0,1,0,0H0a0,0,0,0,1,0,0V20A20,20,0,0,1,20,0Z" transform="translate(607.5 11012.35)" fill="#c4d1ff"/>
        <path id="Rectángulo_35447" data-name="Rectángulo 35447" d="M20,0H170a20,20,0,0,1,20,20V129.15a0,0,0,0,1,0,0H0a0,0,0,0,1,0,0V20A20,20,0,0,1,20,0Z" transform="translate(828.5 11012.35)" fill="#c4d1ff"/>
        <path id="Trazado_120494" data-name="Trazado 120494" d="M10.45,14.192,13.122,6.2h3.041L11.522,19H8.411l-.519-7.251L5.133,19H2.021L1.38,6.2H4.307l.176,7.954L7.418,6.2H9.976ZM25.673,19H22.685l.923-5.344H19.222L18.29,19H15.284L17.5,6.2h3.015l-.888,5.08h4.395L24.9,6.2h3ZM33.9,14.623H28.758l.4-2.285h5.142Zm16.55-.431L53.121,6.2h3.041L51.521,19H48.41l-.519-7.251L45.132,19H42.021L41.379,6.2h2.927l.176,7.954L47.417,6.2h2.558Zm9.976-4.878a3.994,3.994,0,0,1,2.206.637A3.59,3.59,0,0,1,64,11.679a5.33,5.33,0,0,1,.312,2.461l-.018.193a5.636,5.636,0,0,1-1.626,3.533,4.575,4.575,0,0,1-3.41,1.31,3.977,3.977,0,0,1-2.188-.628A3.612,3.612,0,0,1,55.7,16.838a5.179,5.179,0,0,1-.321-2.443,5.863,5.863,0,0,1,1.6-3.727A4.547,4.547,0,0,1,60.425,9.314ZM58.271,14.4l-.026.518q-.123,1.957,1.2,1.992,1.705.053,1.978-2.764l.035-.8a2.155,2.155,0,0,0-.294-1.259,1.073,1.073,0,0,0-.918-.487,1.512,1.512,0,0,0-1.314.654A4.278,4.278,0,0,0,58.271,14.4ZM71.64,12.171a8.273,8.273,0,0,0-.9-.088,2.233,2.233,0,0,0-1.986.9L67.685,19H64.793l1.652-9.51,2.7-.009-.22,1.248a2.64,2.64,0,0,1,2.2-1.441,4.144,4.144,0,0,1,.9.123Zm.316,2.057a6.917,6.917,0,0,1,1.371-3.6,3.4,3.4,0,0,1,2.865-1.31,2.592,2.592,0,0,1,2.013,1.02L79.128,5.5h2.9L79.69,19H77.115l.123-1.028a2.968,2.968,0,0,1-2.364,1.213,2.62,2.62,0,0,1-2.149-1.015,4.476,4.476,0,0,1-.831-2.676,8.231,8.231,0,0,1,.035-1.081Zm2.883.2a6.9,6.9,0,0,0-.062.984q0,1.459.984,1.485a1.844,1.844,0,0,0,1.521-.817l.65-3.647a1.171,1.171,0,0,0-1.16-.835,1.478,1.478,0,0,0-1.305.7A4.507,4.507,0,0,0,74.839,14.43Z" transform="translate(382.5 11041.35)" fill="#ff5f65"/>
        <text id="Palabra_con_WH_" data-name="Palabra con “WH”" transform="translate(382.5 11062.35)" fill="#12263f" font-size="18" font-family="Roboto-Black, Roboto" font-weight="800"><tspan x="0" y="19">Palabra con “WH”</tspan></text>
        <path id="Trazado_120477" data-name="Trazado 120477" d="M5.44,15.484,9.36,6.2h3.445L6.618,19H3.331L1.187,6.2H4.438Zm10.793,3.691a4.421,4.421,0,0,1-2.272-.6,3.793,3.793,0,0,1-1.507-1.652,4.44,4.44,0,0,1-.4-2.333l.026-.246a5.829,5.829,0,0,1,1.63-3.713,4.51,4.51,0,0,1,3.415-1.314,3.678,3.678,0,0,1,2.092.621A3.468,3.468,0,0,1,20.487,11.6a5.1,5.1,0,0,1,.264,2.381l-.167,1.206h-5.66a1.854,1.854,0,0,0,.422,1.213,1.549,1.549,0,0,0,1.178.492,2.993,2.993,0,0,0,2.259-.967L20,17.528a3.578,3.578,0,0,1-1.5,1.2,5.263,5.263,0,0,1-2.1.451Zm.7-7.576a1.487,1.487,0,0,0-1.068.385,3.229,3.229,0,0,0-.787,1.347h2.892l.053-.254a1.929,1.929,0,0,0,.018-.577A1.017,1.017,0,0,0,16.937,11.6Zm11.03.571a8.273,8.273,0,0,0-.9-.088,2.233,2.233,0,0,0-1.986.9L24.012,19H21.12l1.652-9.51,2.7-.009-.22,1.248a2.64,2.64,0,0,1,2.2-1.441,4.144,4.144,0,0,1,.9.123ZM37.2,14.263A6.891,6.891,0,0,1,35.833,17.9a3.409,3.409,0,0,1-2.865,1.283,2.522,2.522,0,0,1-2.162-1.178l-.36.993H27.826L30.173,5.5h2.892l-.94,4.772a2.87,2.87,0,0,1,2.136-.958,2.679,2.679,0,0,1,2.18,1,4.351,4.351,0,0,1,.826,2.667,9.674,9.674,0,0,1-.044,1.1Zm-2.874-.171a9.1,9.1,0,0,0,.079-1.018q0-1.413-1.011-1.474a1.732,1.732,0,0,0-1.5.763L31.2,16.154a1.163,1.163,0,0,0,1.2.746q1.415.044,1.784-1.843l.123-.781Zm11.8-8.952,1.31.729q-.387.615-.7,1.217a4.719,4.719,0,0,0-.444,1.288l-.255,1.468H43.928l.22-1.415a4.568,4.568,0,0,1,.694-1.815A6.81,6.81,0,0,1,46.125,5.14Zm2.988,0,1.31.729q-.387.615-.7,1.217a4.719,4.719,0,0,0-.444,1.288l-.255,1.468H46.916l.22-1.415a4.568,4.568,0,0,1,.694-1.815A6.81,6.81,0,0,1,49.113,5.14Zm6.021,1.986L54.721,9.49h1.521l-.36,2.057H54.36l-.738,4.368a1.164,1.164,0,0,0,.057.677q.119.229.593.246a6.873,6.873,0,0,0,.756-.044l-.211,2.145a4.673,4.673,0,0,1-1.556.22,2.563,2.563,0,0,1-2.013-.791,2.7,2.7,0,0,1-.545-2.1l.773-4.72H50.3l.352-2.057h1.178l.413-2.364Zm5.941,2.188a3.994,3.994,0,0,1,2.206.637,3.59,3.59,0,0,1,1.367,1.727,5.33,5.33,0,0,1,.312,2.461l-.018.193a5.636,5.636,0,0,1-1.626,3.533,4.575,4.575,0,0,1-3.41,1.31,3.977,3.977,0,0,1-2.188-.628,3.612,3.612,0,0,1-1.367-1.709,5.179,5.179,0,0,1-.321-2.443,5.863,5.863,0,0,1,1.6-3.727A4.547,4.547,0,0,1,61.075,9.314ZM58.922,14.4l-.026.518q-.123,1.957,1.2,1.992,1.705.053,1.978-2.764l.035-.8a2.155,2.155,0,0,0-.294-1.259,1.073,1.073,0,0,0-.918-.487,1.512,1.512,0,0,0-1.314.654A4.278,4.278,0,0,0,58.922,14.4Zm20.329-.136A6.891,6.891,0,0,1,77.889,17.9a3.409,3.409,0,0,1-2.865,1.283,2.522,2.522,0,0,1-2.162-1.178L72.5,19H69.882L72.229,5.5H75.12l-.94,4.772a2.87,2.87,0,0,1,2.136-.958,2.679,2.679,0,0,1,2.18,1,4.351,4.351,0,0,1,.826,2.667,9.674,9.674,0,0,1-.044,1.1Zm-2.874-.171a9.1,9.1,0,0,0,.079-1.018q0-1.413-1.011-1.474a1.732,1.732,0,0,0-1.5.763l-.686,3.791a1.163,1.163,0,0,0,1.2.746q1.415.044,1.784-1.843l.123-.781Zm8.13,5.084a4.421,4.421,0,0,1-2.272-.6,3.793,3.793,0,0,1-1.507-1.652,4.44,4.44,0,0,1-.4-2.333l.026-.246a5.829,5.829,0,0,1,1.63-3.713,4.51,4.51,0,0,1,3.415-1.314,3.678,3.678,0,0,1,2.092.621A3.468,3.468,0,0,1,88.761,11.6a5.1,5.1,0,0,1,.264,2.381l-.167,1.206H83.2a1.854,1.854,0,0,0,.422,1.213,1.549,1.549,0,0,0,1.178.492,2.993,2.993,0,0,0,2.259-.967l1.213,1.6a3.578,3.578,0,0,1-1.5,1.2,5.263,5.263,0,0,1-2.1.451Zm.7-7.576a1.487,1.487,0,0,0-1.068.385,3.229,3.229,0,0,0-.787,1.347h2.892l.053-.254a1.929,1.929,0,0,0,.018-.577A1.017,1.017,0,0,0,85.21,11.6Zm6.9-1.38L90.8,9.49a12.124,12.124,0,0,0,.787-1.411,5.223,5.223,0,0,0,.365-1.147L92.2,5.5h2.109L94.1,6.88A5.469,5.469,0,0,1,92.109,10.22Zm3.085,0-1.31-.729a12.124,12.124,0,0,0,.787-1.411,5.223,5.223,0,0,0,.365-1.147L95.282,5.5h2.109l-.211,1.38A5.469,5.469,0,0,1,95.194,10.22Z" transform="translate(634.5 11041.35)" fill="#ff5f65"/>
        <path id="Trazado_120478" data-name="Trazado 120478" d="M5.933,15.52,8.481,6.2h3.445L7.62,19H4.245L-.026,6.2H3.393Zm11.391,3.656a4.889,4.889,0,0,1-3.542-1.305,4.507,4.507,0,0,1-1.354-3.4v-.246a5.84,5.84,0,0,1,.541-2.575,3.955,3.955,0,0,1,1.578-1.727,4.763,4.763,0,0,1,2.461-.611,4.117,4.117,0,0,1,3.164,1.244,4.887,4.887,0,0,1,1.16,3.467v1.151H15.442a2.135,2.135,0,0,0,.694,1.257,2.066,2.066,0,0,0,1.389.457,2.662,2.662,0,0,0,2.2-.984l1.354,1.6a3.784,3.784,0,0,1-1.569,1.217A5.3,5.3,0,0,1,17.323,19.176ZM16.989,11.6q-1.3,0-1.547,1.723h2.988v-.229a1.467,1.467,0,0,0-.36-1.1A1.434,1.434,0,0,0,16.989,11.6Zm11.285.571L27.3,12.1a1.752,1.752,0,0,0-1.793.879V19H22.544V9.49h2.777l.1,1.222a2.294,2.294,0,0,1,2.083-1.4,2.888,2.888,0,0,1,.826.105Zm9.9,2.153a5.8,5.8,0,0,1-.967,3.595,3.238,3.238,0,0,1-2.725,1.257,2.81,2.81,0,0,1-2.338-1.151L32.019,19H29.364V5.5h2.962v4.755a2.711,2.711,0,0,1,2.136-.94A3.239,3.239,0,0,1,37.2,10.589a5.826,5.826,0,0,1,.967,3.586ZM35.2,14.135a3.866,3.866,0,0,0-.365-1.952,1.229,1.229,0,0,0-1.121-.584,1.418,1.418,0,0,0-1.389.763v3.773a1.426,1.426,0,0,0,1.406.755,1.258,1.258,0,0,0,1.327-1.018A7.309,7.309,0,0,0,35.2,14.135Zm3.9.022a5.613,5.613,0,0,1,.554-2.536,3.96,3.96,0,0,1,1.591-1.709,4.791,4.791,0,0,1,2.435-.6,4.373,4.373,0,0,1,3.366,1.323,5.076,5.076,0,0,1,1.23,3.6v.105a4.925,4.925,0,0,1-1.235,3.529A4.384,4.384,0,0,1,43.7,19.176a4.434,4.434,0,0,1-3.261-1.217,4.761,4.761,0,0,1-1.327-3.3Zm2.962.185a3.538,3.538,0,0,0,.413,1.934,1.376,1.376,0,0,0,1.222.615q1.582,0,1.617-2.435v-.3q0-2.558-1.635-2.558-1.485,0-1.608,2.206Zm13.79-9.193,1.3.7a5.325,5.325,0,0,0-.747,2.435V9.842H54.246V8.392a3.92,3.92,0,0,1,.475-1.718A5.22,5.22,0,0,1,55.854,5.148Zm3.085,0,1.3.7a5.325,5.325,0,0,0-.747,2.435V9.842H57.331V8.392a3.92,3.92,0,0,1,.475-1.718A5.22,5.22,0,0,1,58.939,5.148Zm6.267,1.978V9.49h1.564v2.057H65.206V15.9a1.111,1.111,0,0,0,.193.747,1.037,1.037,0,0,0,.765.211A4.345,4.345,0,0,0,66.9,16.8v2.118a5.466,5.466,0,0,1-1.67.255,3.1,3.1,0,0,1-2.259-.721,2.954,2.954,0,0,1-.729-2.188v-4.72H61.031V9.49h1.213V7.126ZM67.3,14.157a5.613,5.613,0,0,1,.554-2.536,3.96,3.96,0,0,1,1.591-1.709,4.791,4.791,0,0,1,2.435-.6,4.373,4.373,0,0,1,3.366,1.323,5.076,5.076,0,0,1,1.23,3.6v.105a4.925,4.925,0,0,1-1.235,3.529,4.384,4.384,0,0,1-3.344,1.305,4.434,4.434,0,0,1-3.261-1.217,4.761,4.761,0,0,1-1.327-3.3Zm2.962.185a3.538,3.538,0,0,0,.413,1.934,1.376,1.376,0,0,0,1.222.615q1.582,0,1.617-2.435v-.3q0-2.558-1.635-2.558-1.485,0-1.608,2.206Zm20.83-.018a5.8,5.8,0,0,1-.967,3.595A3.238,3.238,0,0,1,87.4,19.176a2.81,2.81,0,0,1-2.338-1.151L84.938,19H82.283V5.5h2.962v4.755a2.711,2.711,0,0,1,2.136-.94,3.239,3.239,0,0,1,2.742,1.274,5.826,5.826,0,0,1,.967,3.586Zm-2.971-.189a3.866,3.866,0,0,0-.365-1.952,1.229,1.229,0,0,0-1.121-.584,1.418,1.418,0,0,0-1.389.763v3.773a1.426,1.426,0,0,0,1.406.755,1.258,1.258,0,0,0,1.327-1.018A7.309,7.309,0,0,0,88.119,14.135ZM97,19.176a4.889,4.889,0,0,1-3.542-1.305,4.507,4.507,0,0,1-1.354-3.4v-.246a5.84,5.84,0,0,1,.541-2.575,3.955,3.955,0,0,1,1.578-1.727,4.763,4.763,0,0,1,2.461-.611,4.117,4.117,0,0,1,3.164,1.244A4.887,4.887,0,0,1,101,14.025v1.151H95.115a2.135,2.135,0,0,0,.694,1.257,2.066,2.066,0,0,0,1.389.457,2.662,2.662,0,0,0,2.2-.984l1.354,1.6a3.784,3.784,0,0,1-1.569,1.217A5.3,5.3,0,0,1,97,19.176ZM96.662,11.6q-1.3,0-1.547,1.723H98.1v-.229a1.467,1.467,0,0,0-.36-1.1A1.434,1.434,0,0,0,96.662,11.6Zm6.583-1.389-1.3-.7a5.1,5.1,0,0,0,.747-2.479V5.5h2.162V6.933a3.875,3.875,0,0,1-.47,1.745A5.248,5.248,0,0,1,103.245,10.211Zm3.182,0-1.3-.7a5.1,5.1,0,0,0,.747-2.479V5.5h2.162V6.933a3.875,3.875,0,0,1-.47,1.745A5.248,5.248,0,0,1,106.427,10.211Z" transform="translate(634.5 11062.35)" fill="#12263f"/>
        <path id="Trazado_120481" data-name="Trazado 120481" d="M10.74,14.641a4.614,4.614,0,0,1-.883,2.391A5,5,0,0,1,7.835,18.64a6.259,6.259,0,0,1-2.711.536,4.215,4.215,0,0,1-3.155-1.292A5.193,5.193,0,0,1,.712,14.5a11.02,11.02,0,0,1,.312-3.1A8.2,8.2,0,0,1,2.3,8.475,5.855,5.855,0,0,1,4.381,6.612,5.407,5.407,0,0,1,7,6.019a4.577,4.577,0,0,1,3.309,1.257,4.92,4.92,0,0,1,1.323,3.366l-3-.009a2.465,2.465,0,0,0-.422-1.67,1.852,1.852,0,0,0-1.389-.536q-2.373-.079-2.892,3.691A20.283,20.283,0,0,0,3.7,14.553q-.044,2.162,1.6,2.224A2.348,2.348,0,0,0,7,16.253,2.615,2.615,0,0,0,7.8,14.676Zm6.24-5.326a3.994,3.994,0,0,1,2.206.637,3.59,3.59,0,0,1,1.367,1.727,5.33,5.33,0,0,1,.312,2.461l-.018.193a5.636,5.636,0,0,1-1.626,3.533,4.575,4.575,0,0,1-3.41,1.31,3.977,3.977,0,0,1-2.188-.628,3.612,3.612,0,0,1-1.367-1.709,5.179,5.179,0,0,1-.321-2.443,5.863,5.863,0,0,1,1.6-3.727A4.547,4.547,0,0,1,16.98,9.314ZM14.827,14.4l-.026.518q-.123,1.957,1.2,1.992,1.705.053,1.978-2.764l.035-.8a2.155,2.155,0,0,0-.294-1.259A1.073,1.073,0,0,0,16.8,11.6a1.512,1.512,0,0,0-1.314.654A4.278,4.278,0,0,0,14.827,14.4ZM25.69,9.481,25.5,10.624a3.414,3.414,0,0,1,2.777-1.31,2.509,2.509,0,0,1,1.415.4,1.843,1.843,0,0,1,.738,1.028,3.619,3.619,0,0,1,2.892-1.433,2.241,2.241,0,0,1,1.956.989,4.117,4.117,0,0,1,.461,2.711L34.743,19h-2.9l1.011-5.987.035-.518q0-.869-.817-.9a1.872,1.872,0,0,0-1.424.781L29.5,19H26.6l1-5.969.035-.527q0-.9-.817-.9a1.86,1.86,0,0,0-1.406.781L24.24,19H21.349L23,9.49Zm20.162,4.772a7.9,7.9,0,0,1-.782,2.659,4.348,4.348,0,0,1-1.481,1.731,3.417,3.417,0,0,1-1.973.541,2.584,2.584,0,0,1-2.021-.984l-.861,4.456H35.842L38.127,9.49,40.8,9.481l-.149.905a2.8,2.8,0,0,1,2.259-1.072,2.662,2.662,0,0,1,2.167.993,4.388,4.388,0,0,1,.831,2.663A10.274,10.274,0,0,1,45.853,14.254ZM43.04,13.076Q43,11.626,42.056,11.6a1.7,1.7,0,0,0-1.521.747l-.677,3.771a1.173,1.173,0,0,0,1.213.782q1.538.026,1.89-2.646Q43.04,13.41,43.04,13.076ZM49.421,19h-2.9L48.858,5.5h2.9Zm6.565.176a4.421,4.421,0,0,1-2.272-.6,3.793,3.793,0,0,1-1.507-1.652,4.44,4.44,0,0,1-.4-2.333l.026-.246a5.829,5.829,0,0,1,1.63-3.713,4.51,4.51,0,0,1,3.415-1.314,3.678,3.678,0,0,1,2.092.621A3.468,3.468,0,0,1,60.24,11.6,5.1,5.1,0,0,1,60.5,13.98l-.167,1.206h-5.66A1.854,1.854,0,0,0,55.1,16.4a1.549,1.549,0,0,0,1.178.492,2.993,2.993,0,0,0,2.259-.967l1.213,1.6a3.578,3.578,0,0,1-1.5,1.2,5.263,5.263,0,0,1-2.1.451Zm.7-7.576a1.487,1.487,0,0,0-1.068.385,3.229,3.229,0,0,0-.787,1.347h2.892l.053-.254A1.929,1.929,0,0,0,57.8,12.5,1.017,1.017,0,0,0,56.689,11.6Zm8.525-2.118-.193,1.143A3.414,3.414,0,0,1,67.8,9.314a2.509,2.509,0,0,1,1.415.4,1.843,1.843,0,0,1,.738,1.028,3.619,3.619,0,0,1,2.892-1.433A2.241,2.241,0,0,1,74.8,10.3a4.117,4.117,0,0,1,.461,2.711L74.268,19h-2.9l1.011-5.987.035-.518q0-.869-.817-.9a1.872,1.872,0,0,0-1.424.781L69.021,19h-2.9l1-5.969.035-.527q0-.9-.817-.9a1.86,1.86,0,0,0-1.406.781L63.765,19H60.873l1.652-9.51Zm15.5,9.694a4.421,4.421,0,0,1-2.272-.6,3.793,3.793,0,0,1-1.507-1.652,4.44,4.44,0,0,1-.4-2.333l.026-.246a5.829,5.829,0,0,1,1.63-3.713A4.51,4.51,0,0,1,81.6,9.314a3.678,3.678,0,0,1,2.092.621A3.468,3.468,0,0,1,84.964,11.6a5.1,5.1,0,0,1,.264,2.381l-.167,1.206H79.4a1.854,1.854,0,0,0,.422,1.213A1.549,1.549,0,0,0,81,16.891a2.993,2.993,0,0,0,2.259-.967l1.213,1.6a3.578,3.578,0,0,1-1.5,1.2,5.263,5.263,0,0,1-2.1.451Zm.7-7.576a1.487,1.487,0,0,0-1.068.385,3.229,3.229,0,0,0-.787,1.347H82.45l.053-.254a1.929,1.929,0,0,0,.018-.577A1.017,1.017,0,0,0,81.413,11.6Zm8.455-2.118-.2,1.143a3.38,3.38,0,0,1,2.751-1.318,2.27,2.27,0,0,1,1.964.98,4.1,4.1,0,0,1,.47,2.729L93.85,19h-2.9l1.011-6.01a3.108,3.108,0,0,0,.018-.563q-.062-.836-.984-.836a1.807,1.807,0,0,0-1.4.678L88.409,19H85.518L87.17,9.49Zm11.065-2.355-.413,2.364h1.521l-.36,2.057H100.16l-.738,4.368a1.164,1.164,0,0,0,.057.677q.119.229.593.246a6.873,6.873,0,0,0,.756-.044l-.211,2.145a4.673,4.673,0,0,1-1.556.22,2.563,2.563,0,0,1-2.013-.791,2.7,2.7,0,0,1-.545-2.1l.773-4.72H96.1l.352-2.057h1.178l.413-2.364Z" transform="translate(1098.5 11041.35)" fill="#ff5f65"/>
        <path id="Trazado_120476" data-name="Trazado 120476" d="M11.32,14.667a4.673,4.673,0,0,1-.721,2.36,4.35,4.35,0,0,1-1.85,1.586,6.3,6.3,0,0,1-2.72.563,5.025,5.025,0,0,1-3.973-1.644,6.786,6.786,0,0,1-1.45-4.641v-.633a7.746,7.746,0,0,1,.655-3.292,4.961,4.961,0,0,1,1.885-2.18,5.26,5.26,0,0,1,2.848-.769A5.516,5.516,0,0,1,9.738,7.245a4.844,4.844,0,0,1,1.608,3.379H8.271a2.292,2.292,0,0,0-.589-1.679,2.422,2.422,0,0,0-1.687-.51A1.843,1.843,0,0,0,4.307,9.3a5.536,5.536,0,0,0-.562,2.751v.905a6.125,6.125,0,0,0,.514,2.927,1.882,1.882,0,0,0,1.771.879,2.369,2.369,0,0,0,1.626-.5,2.126,2.126,0,0,0,.6-1.591Zm.949-.51a5.613,5.613,0,0,1,.554-2.536,3.96,3.96,0,0,1,1.591-1.709,4.791,4.791,0,0,1,2.435-.6,4.373,4.373,0,0,1,3.366,1.323,5.076,5.076,0,0,1,1.23,3.6v.105a4.925,4.925,0,0,1-1.235,3.529,4.384,4.384,0,0,1-3.344,1.305,4.434,4.434,0,0,1-3.261-1.217,4.761,4.761,0,0,1-1.327-3.3Zm2.962.185a3.538,3.538,0,0,0,.413,1.934,1.376,1.376,0,0,0,1.222.615q1.582,0,1.617-2.435v-.3q0-2.558-1.635-2.558-1.485,0-1.608,2.206ZM25.55,9.49l.1,1.116a3.27,3.27,0,0,1,2.716-1.292A2.407,2.407,0,0,1,30.8,10.747a3.165,3.165,0,0,1,2.795-1.433q2.892,0,2.971,3.5V19H33.592V13a1.813,1.813,0,0,0-.246-1.063,1.048,1.048,0,0,0-.9-.334,1.4,1.4,0,0,0-1.31.782l.009.123V19H28.178V13.015a1.906,1.906,0,0,0-.237-1.081,1.045,1.045,0,0,0-.905-.334,1.42,1.42,0,0,0-1.3.782V19H22.772V9.49Zm21.533,4.825a5.735,5.735,0,0,1-1,3.538,3.2,3.2,0,0,1-2.694,1.323,2.742,2.742,0,0,1-2.153-.958v4.438H38.276V9.49h2.769l.088.879a2.742,2.742,0,0,1,2.241-1.055,3.224,3.224,0,0,1,2.733,1.3,5.805,5.805,0,0,1,.976,3.564Zm-2.962-.185q0-2.531-1.477-2.531a1.394,1.394,0,0,0-1.406.756V16.1a1.439,1.439,0,0,0,1.424.791q1.415,0,1.459-2.443ZM51.513,19H48.542V5.5h2.971Zm6.425.176A4.889,4.889,0,0,1,54.4,17.871a4.507,4.507,0,0,1-1.354-3.4v-.246a5.84,5.84,0,0,1,.541-2.575A3.955,3.955,0,0,1,55.16,9.925a4.763,4.763,0,0,1,2.461-.611,4.117,4.117,0,0,1,3.164,1.244,4.887,4.887,0,0,1,1.16,3.467v1.151H56.057a2.135,2.135,0,0,0,.694,1.257,2.066,2.066,0,0,0,1.389.457,2.662,2.662,0,0,0,2.2-.984l1.354,1.6a3.784,3.784,0,0,1-1.569,1.217A5.3,5.3,0,0,1,57.938,19.176ZM57.6,11.6q-1.3,0-1.547,1.723h2.988v-.229a1.467,1.467,0,0,0-.36-1.1A1.434,1.434,0,0,0,57.6,11.6ZM65.936,9.49l.1,1.116a3.27,3.27,0,0,1,2.716-1.292,2.407,2.407,0,0,1,2.435,1.433,3.165,3.165,0,0,1,2.795-1.433q2.892,0,2.971,3.5V19H73.978V13a1.813,1.813,0,0,0-.246-1.063,1.048,1.048,0,0,0-.9-.334,1.4,1.4,0,0,0-1.31.782l.009.123V19H68.563V13.015a1.906,1.906,0,0,0-.237-1.081,1.045,1.045,0,0,0-.905-.334,1.42,1.42,0,0,0-1.3.782V19H63.158V9.49Zm17.306,9.686A4.889,4.889,0,0,1,79.7,17.871a4.507,4.507,0,0,1-1.354-3.4v-.246a5.84,5.84,0,0,1,.541-2.575,3.955,3.955,0,0,1,1.578-1.727,4.763,4.763,0,0,1,2.461-.611,4.117,4.117,0,0,1,3.164,1.244,4.887,4.887,0,0,1,1.16,3.467v1.151H81.36a2.135,2.135,0,0,0,.694,1.257,2.066,2.066,0,0,0,1.389.457,2.662,2.662,0,0,0,2.2-.984l1.354,1.6a3.784,3.784,0,0,1-1.569,1.217A5.3,5.3,0,0,1,83.241,19.176ZM82.907,11.6q-1.3,0-1.547,1.723h2.988v-.229a1.467,1.467,0,0,0-.36-1.1A1.434,1.434,0,0,0,82.907,11.6ZM91.16,9.49l.1,1.116a3.225,3.225,0,0,1,2.716-1.292,2.713,2.713,0,0,1,2.219.888,4.226,4.226,0,0,1,.76,2.672V19H93.981V13a1.6,1.6,0,0,0-.29-1.059,1.342,1.342,0,0,0-1.055-.338,1.413,1.413,0,0,0-1.292.686V19H88.383V9.49Zm10.881-2.364V9.49h1.564v2.057h-1.564V15.9a1.111,1.111,0,0,0,.193.747,1.037,1.037,0,0,0,.765.211,4.345,4.345,0,0,0,.738-.053v2.118a5.466,5.466,0,0,1-1.67.255,3.1,3.1,0,0,1-2.259-.721,2.954,2.954,0,0,1-.729-2.188v-4.72H97.866V9.49h1.213V7.126Zm2.092,7.031a5.613,5.613,0,0,1,.554-2.536,3.96,3.96,0,0,1,1.591-1.709,4.791,4.791,0,0,1,2.435-.6,4.373,4.373,0,0,1,3.366,1.323,5.076,5.076,0,0,1,1.23,3.6v.105a4.925,4.925,0,0,1-1.235,3.529,4.384,4.384,0,0,1-3.344,1.305,4.434,4.434,0,0,1-3.261-1.217,4.761,4.761,0,0,1-1.327-3.3Zm2.962.185a3.538,3.538,0,0,0,.413,1.934,1.376,1.376,0,0,0,1.222.615q1.582,0,1.617-2.435v-.3q0-2.558-1.635-2.558-1.485,0-1.608,2.206Z" transform="translate(1098.5 11061.35)" fill="#12263f"/>
        <path id="Trazado_120479" data-name="Trazado 120479" d="M7.049,15.537Q7.242,14.544,5.977,14l-1.441-.6Q1.5,12.039,1.652,9.692a3.274,3.274,0,0,1,.738-1.912A4.385,4.385,0,0,1,4.263,6.476a6.889,6.889,0,0,1,2.61-.448A4.439,4.439,0,0,1,9.927,7.135a3.679,3.679,0,0,1,1.138,2.874H8.077a1.79,1.79,0,0,0-.312-1.182,1.351,1.351,0,0,0-1.112-.461,2.33,2.33,0,0,0-1.336.352,1.426,1.426,0,0,0-.686.993q-.167.879,1.305,1.441a14.352,14.352,0,0,1,2.14.967,3.534,3.534,0,0,1,1.969,3.393,3.474,3.474,0,0,1-.712,1.942,4.115,4.115,0,0,1-1.78,1.292A6.576,6.576,0,0,1,5,19.185a6.164,6.164,0,0,1-1.925-.325,4.235,4.235,0,0,1-1.521-.9,3.9,3.9,0,0,1-1.23-3.12l3.015.009a2.064,2.064,0,0,0,.378,1.49,1.816,1.816,0,0,0,1.45.505A2.176,2.176,0,0,0,6.429,16.5,1.441,1.441,0,0,0,7.049,15.537Zm9.738,2.426a3.148,3.148,0,0,1-2.566,1.222,2.492,2.492,0,0,1-2.1-.976,3.6,3.6,0,0,1-.549-2.566L12.595,9.49h2.892L14.44,15.685a2.064,2.064,0,0,0,0,.466.766.766,0,0,0,.853.748,1.868,1.868,0,0,0,1.556-.722L18.026,9.49h2.909L19.283,19H16.594Zm13.438-3.7A6.891,6.891,0,0,1,28.863,17.9,3.409,3.409,0,0,1,26,19.185a2.522,2.522,0,0,1-2.162-1.178l-.36.993H20.856L23.2,5.5h2.892l-.94,4.772a2.87,2.87,0,0,1,2.136-.958,2.679,2.679,0,0,1,2.18,1,4.351,4.351,0,0,1,.826,2.667,9.674,9.674,0,0,1-.044,1.1Zm-2.874-.171a9.1,9.1,0,0,0,.079-1.018q0-1.413-1.011-1.474a1.732,1.732,0,0,0-1.5.763l-.686,3.791a1.163,1.163,0,0,0,1.2.746q1.415.044,1.784-1.843l.123-.781Zm8.156-4.6L33.847,19.3a4.036,4.036,0,0,1-1.283,2.641,3.9,3.9,0,0,1-2.725.927,9.185,9.185,0,0,1-1.45-.167l.237-2.25a3.9,3.9,0,0,0,.8.105A1.407,1.407,0,0,0,30.938,19.2l1.67-9.712Zm-2.681-2.4a1.326,1.326,0,0,1,.457-1.075,1.646,1.646,0,0,1,1.134-.423,1.6,1.6,0,0,1,1.125.375,1.332,1.332,0,0,1,.475,1.018,1.35,1.35,0,0,1-.435,1.058A1.757,1.757,0,0,1,33.3,8.1,1.323,1.323,0,0,1,32.827,7.087ZM40.28,19.176a4.421,4.421,0,0,1-2.272-.6A3.793,3.793,0,0,1,36.5,16.921a4.44,4.44,0,0,1-.4-2.333l.026-.246a5.829,5.829,0,0,1,1.63-3.713,4.51,4.51,0,0,1,3.415-1.314,3.678,3.678,0,0,1,2.092.621A3.468,3.468,0,0,1,44.534,11.6,5.1,5.1,0,0,1,44.8,13.98l-.167,1.206h-5.66a1.854,1.854,0,0,0,.422,1.213,1.549,1.549,0,0,0,1.178.492,2.993,2.993,0,0,0,2.259-.967l1.213,1.6a3.578,3.578,0,0,1-1.5,1.2,5.263,5.263,0,0,1-2.1.451Zm.7-7.576a1.487,1.487,0,0,0-1.068.385,3.229,3.229,0,0,0-.787,1.347h2.892l.053-.254a1.929,1.929,0,0,0,.018-.577A1.017,1.017,0,0,0,40.983,11.6Zm8.569,5.291a1.244,1.244,0,0,0,.976-.345,1.717,1.717,0,0,0,.448-.938l2.707-.009a3.559,3.559,0,0,1-.62,1.872,3.745,3.745,0,0,1-1.529,1.279,4.521,4.521,0,0,1-2.061.426,3.57,3.57,0,0,1-2.927-1.367,4.726,4.726,0,0,1-.835-3.441l.026-.211a6.371,6.371,0,0,1,.809-2.553,4.626,4.626,0,0,1,1.709-1.718,4.433,4.433,0,0,1,2.369-.571,3.536,3.536,0,0,1,2.624,1.059,3.755,3.755,0,0,1,.927,2.764l-2.707-.009q.044-1.5-1.081-1.529-1.529-.053-1.758,2.567l-.079.893-.009.333Q48.542,16.864,49.553,16.891ZM59.73,7.126,59.317,9.49h1.521l-.36,2.057H58.957l-.738,4.368a1.164,1.164,0,0,0,.057.677q.119.229.593.246a6.873,6.873,0,0,0,.756-.044l-.211,2.145a4.673,4.673,0,0,1-1.556.22,2.563,2.563,0,0,1-2.013-.791,2.7,2.7,0,0,1-.545-2.1l.773-4.72H54.9l.352-2.057h1.178l.413-2.364Z" transform="translate(861.5 11041.35)" fill="#ff5f65"/>
        <path id="Trazado_120480" data-name="Trazado 120480" d="M7.567,15.6a1.268,1.268,0,0,0-.479-1.055,5.954,5.954,0,0,0-1.683-.782,16.147,16.147,0,0,1-1.969-.782Q.949,11.758.949,9.622a3.011,3.011,0,0,1,.62-1.876A4.008,4.008,0,0,1,3.322,6.48a6.823,6.823,0,0,1,2.549-.453,5.969,5.969,0,0,1,2.474.492,3.917,3.917,0,0,1,1.7,1.4A3.661,3.661,0,0,1,10.652,10H7.576A1.547,1.547,0,0,0,7.1,8.787a1.867,1.867,0,0,0-1.3-.431A2.106,2.106,0,0,0,4.5,8.721a1.074,1.074,0,0,0,.048,1.819,6.65,6.65,0,0,0,1.854.826,11.36,11.36,0,0,1,2.18.918,3.663,3.663,0,0,1,2.074,3.3,3.125,3.125,0,0,1-1.266,2.637,5.629,5.629,0,0,1-3.472.958A6.888,6.888,0,0,1,3.1,18.618a4.247,4.247,0,0,1-1.9-1.529,3.985,3.985,0,0,1-.637-2.237H3.656a1.963,1.963,0,0,0,.532,1.516,2.513,2.513,0,0,0,1.727.488,1.985,1.985,0,0,0,1.208-.33A1.088,1.088,0,0,0,7.567,15.6Zm10.2,2.373a3.054,3.054,0,0,1-2.54,1.2,3,3,0,0,1-2.369-.91,3.826,3.826,0,0,1-.8-2.615V9.49h2.962v6.179A1.065,1.065,0,0,0,16.2,16.891a1.548,1.548,0,0,0,1.45-.729V9.49h2.979V19H17.851ZM25.436,9.49v9.835a3.452,3.452,0,0,1-.967,2.6,3.714,3.714,0,0,1-2.672.914,6.308,6.308,0,0,1-1.4-.149V20.45a5.667,5.667,0,0,0,.835.079,1.084,1.084,0,0,0,1.23-1.222V9.49Zm-3.19-2.452A1.322,1.322,0,0,1,22.7,6a1.943,1.943,0,0,1,2.373,0,1.322,1.322,0,0,1,.457,1.037,1.322,1.322,0,0,1-.457,1.037,1.943,1.943,0,0,1-2.373,0A1.322,1.322,0,0,1,22.245,7.038Zm9.466,12.138a4.889,4.889,0,0,1-3.542-1.305,4.507,4.507,0,0,1-1.354-3.4v-.246a5.84,5.84,0,0,1,.541-2.575,3.955,3.955,0,0,1,1.578-1.727,4.763,4.763,0,0,1,2.461-.611,4.117,4.117,0,0,1,3.164,1.244,4.887,4.887,0,0,1,1.16,3.467v1.151H29.83a2.135,2.135,0,0,0,.694,1.257,2.066,2.066,0,0,0,1.389.457,2.662,2.662,0,0,0,2.2-.984l1.354,1.6A3.784,3.784,0,0,1,33.9,18.723,5.3,5.3,0,0,1,31.711,19.176ZM31.377,11.6q-1.3,0-1.547,1.723h2.988v-.229a1.467,1.467,0,0,0-.36-1.1A1.434,1.434,0,0,0,31.377,11.6Zm8.982-4.474V9.49h1.564v2.057H40.359V15.9a1.111,1.111,0,0,0,.193.747,1.037,1.037,0,0,0,.765.211,4.345,4.345,0,0,0,.738-.053v2.118a5.466,5.466,0,0,1-1.67.255,3.1,3.1,0,0,1-2.259-.721,2.954,2.954,0,0,1-.729-2.188v-4.72H36.185V9.49H37.4V7.126Zm2.092,7.031A5.613,5.613,0,0,1,43,11.622,3.96,3.96,0,0,1,44.6,9.912a4.791,4.791,0,0,1,2.435-.6A4.373,4.373,0,0,1,50.4,10.637a5.076,5.076,0,0,1,1.23,3.6v.105a4.925,4.925,0,0,1-1.235,3.529,4.384,4.384,0,0,1-3.344,1.305,4.434,4.434,0,0,1-3.261-1.217,4.761,4.761,0,0,1-1.327-3.3Zm2.962.185a3.538,3.538,0,0,0,.413,1.934,1.376,1.376,0,0,0,1.222.615q1.582,0,1.617-2.435v-.3q0-2.558-1.635-2.558-1.485,0-1.608,2.206Z" transform="translate(861.5 11063.35)" fill="#12263f"/>
        <path id="Trazado_120490" data-name="Trazado 120490" d="M13.025-15.326h6.327v5.362H13.025v7.255H7.181V-9.964H.835v-5.362H7.181v-7.051h5.845Z" transform="translate(572.5 11154.35)" fill="#3c3fa7"/>
        <text id="_" data-name="+" transform="translate(1032.5 11154.35)" fill="#3c3fa7" font-size="38" font-family="Roboto-Black, Roboto" font-weight="800"><tspan x="0" y="0">+</tspan></text>
        <path id="Trazado_120489" data-name="Trazado 120489" d="M13.025-15.326h6.327v5.362H13.025v7.255H7.181V-9.964H.835v-5.362H7.181v-7.051h5.845Z" transform="translate(793.5 11154.35)" fill="#3c3fa7"/>
        <path id="Trazado_120485" data-name="Trazado 120485" d="M10.5-3.718,13.588-12.8h2.628L11.461,0H8.868L8.191-8.525,4.843,0H2.25L1.494-12.8H4.008l.255,9.035L7.708-12.8H9.9ZM19.16-8.455a3.314,3.314,0,0,1,2.575-1.23A2.411,2.411,0,0,1,23.814-8.67a3.991,3.991,0,0,1,.5,2.676L23.309,0H20.83l1.011-6.028a2.921,2.921,0,0,0,.018-.633,1,1,0,0,0-1.107-.977,2.141,2.141,0,0,0-1.758.862L17.8,0H15.319l2.338-13.5h2.487ZM29.76.176a4.137,4.137,0,0,1-2.21-.611,3.7,3.7,0,0,1-1.437-1.652A4.605,4.605,0,0,1,25.743-4.4l.026-.352A6.148,6.148,0,0,1,26.578-7.3a4.884,4.884,0,0,1,1.74-1.789,4.306,4.306,0,0,1,2.355-.593,3.29,3.29,0,0,1,2.782,1.351A4.631,4.631,0,0,1,34.172-5L34.031-3.92H28.2a2.041,2.041,0,0,0,.448,1.477,1.711,1.711,0,0,0,1.318.571,3.041,3.041,0,0,0,2.373-1.055l1.134,1.406A3.527,3.527,0,0,1,31.931-.259,5.059,5.059,0,0,1,29.76.176Zm.791-7.813a1.761,1.761,0,0,0-1.217.431,3.784,3.784,0,0,0-.954,1.556h3.41l.053-.229a2.33,2.33,0,0,0,.009-.668,1.276,1.276,0,0,0-.431-.8A1.35,1.35,0,0,0,30.551-7.638Zm10.731.51a5.117,5.117,0,0,0-.835-.088,2.4,2.4,0,0,0-2.1.993L37.248,0H34.77l1.652-9.51,2.329-.009-.229,1.16A2.615,2.615,0,0,1,40.737-9.7a3.615,3.615,0,0,1,.861.123Zm4.465,7.3a4.137,4.137,0,0,1-2.21-.611A3.7,3.7,0,0,1,42.1-2.087,4.605,4.605,0,0,1,41.73-4.4l.026-.352A6.148,6.148,0,0,1,42.565-7.3a4.884,4.884,0,0,1,1.74-1.789,4.306,4.306,0,0,1,2.355-.593,3.29,3.29,0,0,1,2.782,1.351A4.631,4.631,0,0,1,50.159-5L50.019-3.92H44.191a2.041,2.041,0,0,0,.448,1.477,1.711,1.711,0,0,0,1.318.571,3.041,3.041,0,0,0,2.373-1.055l1.134,1.406A3.527,3.527,0,0,1,47.918-.259,5.059,5.059,0,0,1,45.747.176Zm.791-7.813a1.761,1.761,0,0,0-1.217.431,3.784,3.784,0,0,0-.954,1.556h3.41l.053-.229a2.33,2.33,0,0,0,.009-.668,1.276,1.276,0,0,0-.431-.8A1.35,1.35,0,0,0,46.538-7.638Z" transform="translate(382.5 11120)" fill="#ff5f65"/>
        <path id="Trazado_120486" data-name="Trazado 120486" d="M10.5-3.718,13.588-12.8h2.628L11.461,0H8.868L8.191-8.525,4.843,0H2.25L1.494-12.8H4.008l.255,9.035L7.708-12.8H9.9ZM19.16-8.455a3.314,3.314,0,0,1,2.575-1.23A2.411,2.411,0,0,1,23.814-8.67a3.991,3.991,0,0,1,.5,2.676L23.309,0H20.83l1.011-6.028a2.921,2.921,0,0,0,.018-.633,1,1,0,0,0-1.107-.977,2.141,2.141,0,0,0-1.758.862L17.8,0H15.319l2.338-13.5h2.487ZM29.276-3.621,31.992-9.51h2.76L29.188,1.433a4.76,4.76,0,0,1-1.4,1.846,3.063,3.063,0,0,1-1.859.589,5.665,5.665,0,0,1-1.2-.185l.185-1.934.343.018A1.858,1.858,0,0,0,27.035.879L27.58-.132,26.024-9.51h2.566Z" transform="translate(382.5 11162)" fill="#ff5f65"/>
        <path id="Trazado_120487" data-name="Trazado 120487" d="M10.5-3.718,13.588-12.8h2.628L11.461,0H8.868L8.191-8.525,4.843,0H2.25L1.494-12.8H4.008l.255,9.035L7.708-12.8H9.9ZM19.16-8.455a3.314,3.314,0,0,1,2.575-1.23A2.411,2.411,0,0,1,23.814-8.67a3.991,3.991,0,0,1,.5,2.676L23.309,0H20.83l1.011-6.028a2.921,2.921,0,0,0,.018-.633,1,1,0,0,0-1.107-.977,2.141,2.141,0,0,0-1.758.862L17.8,0H15.319l2.338-13.5h2.487ZM29.76.176a4.137,4.137,0,0,1-2.21-.611,3.7,3.7,0,0,1-1.437-1.652A4.605,4.605,0,0,1,25.743-4.4l.026-.352A6.148,6.148,0,0,1,26.578-7.3a4.884,4.884,0,0,1,1.74-1.789,4.306,4.306,0,0,1,2.355-.593,3.29,3.29,0,0,1,2.782,1.351A4.631,4.631,0,0,1,34.172-5L34.031-3.92H28.2a2.041,2.041,0,0,0,.448,1.477,1.711,1.711,0,0,0,1.318.571,3.041,3.041,0,0,0,2.373-1.055l1.134,1.406A3.527,3.527,0,0,1,31.931-.259,5.059,5.059,0,0,1,29.76.176Zm.791-7.813a1.761,1.761,0,0,0-1.217.431,3.784,3.784,0,0,0-.954,1.556h3.41l.053-.229a2.33,2.33,0,0,0,.009-.668,1.276,1.276,0,0,0-.431-.8A1.35,1.35,0,0,0,30.551-7.638Zm8.139-1.881-.211,1.125a3.422,3.422,0,0,1,2.769-1.292,2.281,2.281,0,0,1,1.986.984A3.966,3.966,0,0,1,43.7-6.047L42.7,0H40.219l1.02-6.073a2.844,2.844,0,0,0,.018-.624,1.007,1.007,0,0,0-1.125-.923,2.133,2.133,0,0,0-1.749.905L37.2,0H34.717l1.652-9.51Z" transform="translate(382.5 11204.35)" fill="#ff5f65"/>
        <path id="Trazado_120484" data-name="Trazado 120484" d="M10.5-3.718,13.588-12.8h2.628L11.461,0H8.868L8.191-8.525,4.843,0H2.25L1.494-12.8H4.008l.255,9.035L7.708-12.8H9.9ZM20.593,0a2.566,2.566,0,0,1-.1-.861A3.221,3.221,0,0,1,18.07.176,2.919,2.919,0,0,1,16-.637,2.46,2.46,0,0,1,15.231-2.6a2.843,2.843,0,0,1,1.305-2.386,5.924,5.924,0,0,1,3.335-.831l1.16.018.123-.571a1.984,1.984,0,0,0,.026-.554.952.952,0,0,0-.312-.646,1.075,1.075,0,0,0-.708-.242,1.514,1.514,0,0,0-.984.286,1.384,1.384,0,0,0-.519.875l-2.487.009a2.764,2.764,0,0,1,1.252-2.21,4.851,4.851,0,0,1,2.94-.831,3.507,3.507,0,0,1,2.531.962,2.816,2.816,0,0,1,.765,2.386l-.729,4.553-.044.563a2.714,2.714,0,0,0,.149,1.055L23.027,0ZM18.686-1.749a2.27,2.27,0,0,0,1.872-.932l.308-1.644L20-4.333a2.406,2.406,0,0,0-1.978.835,1.454,1.454,0,0,0-.272.712.844.844,0,0,0,.2.751A1,1,0,0,0,18.686-1.749ZM30.05-2.681q.141-.7-.976-1.02l-.8-.2q-2.839-.782-2.76-2.76a2.731,2.731,0,0,1,1.191-2.193,4.434,4.434,0,0,1,2.764-.831,3.978,3.978,0,0,1,2.6.853,2.809,2.809,0,0,1,1.011,2.224l-2.461-.009a1.084,1.084,0,0,0-1.213-1.239,1.745,1.745,0,0,0-1.006.29,1.194,1.194,0,0,0-.523.782q-.132.7,1.063.993l.352.079a7.071,7.071,0,0,1,1.854.664,2.8,2.8,0,0,1,.989.927,2.3,2.3,0,0,1,.321,1.327,2.533,2.533,0,0,1-.584,1.582A3.577,3.577,0,0,1,30.344-.167,5.328,5.328,0,0,1,28.3.176a4.015,4.015,0,0,1-2.637-.91,2.933,2.933,0,0,1-1.072-2.307l2.338.018a1.285,1.285,0,0,0,1.459,1.38,2.076,2.076,0,0,0,1.129-.281A1.111,1.111,0,0,0,30.05-2.681Z" transform="translate(634.5 11127)" fill="#ff5f65"/>
        <path id="Trazado_120488" data-name="Trazado 120488" d="M10.5-3.718,13.588-12.8h2.628L11.461,0H8.868L8.191-8.525,4.843,0H2.25L1.494-12.8H4.008l.255,9.035L7.708-12.8H9.9ZM19.9.176a4.137,4.137,0,0,1-2.21-.611,3.7,3.7,0,0,1-1.437-1.652A4.605,4.605,0,0,1,15.882-4.4l.026-.352A6.148,6.148,0,0,1,16.717-7.3a4.884,4.884,0,0,1,1.74-1.789,4.306,4.306,0,0,1,2.355-.593,3.29,3.29,0,0,1,2.782,1.351A4.631,4.631,0,0,1,24.311-5L24.17-3.92H18.343a2.041,2.041,0,0,0,.448,1.477,1.711,1.711,0,0,0,1.318.571,3.041,3.041,0,0,0,2.373-1.055l1.134,1.406A3.527,3.527,0,0,1,22.069-.259,5.059,5.059,0,0,1,19.9.176Zm.791-7.813a1.761,1.761,0,0,0-1.217.431,3.784,3.784,0,0,0-.954,1.556h3.41l.053-.229a2.33,2.33,0,0,0,.009-.668,1.276,1.276,0,0,0-.431-.8A1.35,1.35,0,0,0,20.689-7.638Zm10.731.51a5.117,5.117,0,0,0-.835-.088,2.4,2.4,0,0,0-2.1.993L27.387,0H24.908l1.652-9.51,2.329-.009-.229,1.16A2.615,2.615,0,0,1,30.876-9.7a3.615,3.615,0,0,1,.861.123Zm4.465,7.3a4.137,4.137,0,0,1-2.21-.611,3.7,3.7,0,0,1-1.437-1.652A4.605,4.605,0,0,1,31.869-4.4l.026-.352A6.148,6.148,0,0,1,32.7-7.3a4.884,4.884,0,0,1,1.74-1.789A4.306,4.306,0,0,1,36.8-9.686a3.29,3.29,0,0,1,2.782,1.351A4.631,4.631,0,0,1,40.3-5L40.157-3.92H34.33a2.041,2.041,0,0,0,.448,1.477,1.711,1.711,0,0,0,1.318.571A3.041,3.041,0,0,0,38.47-2.927L39.6-1.521A3.527,3.527,0,0,1,38.057-.259,5.059,5.059,0,0,1,35.886.176Zm.791-7.813a1.761,1.761,0,0,0-1.217.431,3.784,3.784,0,0,0-.954,1.556h3.41l.053-.229a2.33,2.33,0,0,0,.009-.668,1.276,1.276,0,0,0-.431-.8A1.35,1.35,0,0,0,36.677-7.638Z" transform="translate(634.5 11167)" fill="#ff5f65"/>
        <path id="Trazado_120491" data-name="Trazado 120491" d="M8.613-3.463,10.872-9.51h2.47L9.343,0H7.269l-.7-5.95L3.788,0H1.714l-.7-9.51h2.32L3.48-3.524,6.2-9.51H7.989ZM17.464.176a4.137,4.137,0,0,1-2.21-.611,3.7,3.7,0,0,1-1.437-1.652A4.605,4.605,0,0,1,13.447-4.4l.026-.352A6.148,6.148,0,0,1,14.282-7.3a4.884,4.884,0,0,1,1.74-1.789,4.306,4.306,0,0,1,2.355-.593A3.29,3.29,0,0,1,21.16-8.334,4.631,4.631,0,0,1,21.876-5L21.735-3.92H15.908a2.041,2.041,0,0,0,.448,1.477,1.711,1.711,0,0,0,1.318.571,3.041,3.041,0,0,0,2.373-1.055l1.134,1.406A3.527,3.527,0,0,1,19.635-.259,5.059,5.059,0,0,1,17.464.176Zm.791-7.813a1.761,1.761,0,0,0-1.217.431,3.784,3.784,0,0,0-.954,1.556h3.41l.053-.229a2.33,2.33,0,0,0,.009-.668,1.276,1.276,0,0,0-.431-.8A1.35,1.35,0,0,0,18.255-7.638ZM23.68,1.1H21.729l6.979-13.9h1.96ZM34.187-3.8,36.9-9.686h2.76L34.1,1.257A4.76,4.76,0,0,1,32.7,3.1a3.063,3.063,0,0,1-1.859.589,5.665,5.665,0,0,1-1.2-.185l.185-1.934.343.018A1.858,1.858,0,0,0,31.945.7L32.49-.308,30.935-9.686H33.5ZM44.443-9.861a3.814,3.814,0,0,1,2.167.646,3.638,3.638,0,0,1,1.336,1.731,5.357,5.357,0,0,1,.3,2.448,5.786,5.786,0,0,1-1.578,3.669A4.455,4.455,0,0,1,43.274,0,3.8,3.8,0,0,1,41.13-.637a3.624,3.624,0,0,1-1.336-1.718,5.239,5.239,0,0,1-.308-2.426,5.957,5.957,0,0,1,1.6-3.744A4.363,4.363,0,0,1,44.443-9.861Zm-2.5,5.979a2.194,2.194,0,0,0,.4,1.33,1.314,1.314,0,0,0,1.063.5A1.926,1.926,0,0,0,45.19-3.1,5.227,5.227,0,0,0,45.8-5.944a2.387,2.387,0,0,0-.409-1.347,1.293,1.293,0,0,0-1.068-.522,1.929,1.929,0,0,0-1.771,1.04A5.173,5.173,0,0,0,41.938-3.882ZM54.85-1.16A3.283,3.283,0,0,1,52.23,0a2.443,2.443,0,0,1-2.074-.984,3.6,3.6,0,0,1-.545-2.549L50.64-9.686h2.479L52.072-3.5a2.446,2.446,0,0,0-.009.545.9.9,0,0,0,.976.906,2.265,2.265,0,0,0,1.907-.889l1.187-6.749h2.5L56.977-.176H54.665ZM60.6,1.1H58.651L65.63-12.8h1.96Zm12.03-13.122L72.22-9.686H73.8l-.325,1.863H71.895l-.809,4.764a1.211,1.211,0,0,0,.07.686q.123.237.6.255.141.009.756-.044L72.334-.22a4.169,4.169,0,0,1-1.424.2,2.234,2.234,0,0,1-1.819-.765A2.763,2.763,0,0,1,68.6-2.8l.817-5.019H68.071L68.4-9.686h1.345l.4-2.338ZM77.37-8.631a3.314,3.314,0,0,1,2.575-1.23,2.411,2.411,0,0,1,2.079,1.015,3.991,3.991,0,0,1,.5,2.676l-1,5.994H79.04L80.051-6.2a2.921,2.921,0,0,0,.018-.633,1,1,0,0,0-1.107-.977,2.141,2.141,0,0,0-1.758.862l-1.2,6.775H73.529l2.338-13.5h2.487ZM87.97,0a4.137,4.137,0,0,1-2.21-.611,3.7,3.7,0,0,1-1.437-1.652,4.605,4.605,0,0,1-.369-2.316l.026-.352a6.148,6.148,0,0,1,.809-2.549,4.884,4.884,0,0,1,1.74-1.789,4.306,4.306,0,0,1,2.355-.593A3.29,3.29,0,0,1,91.666-8.51a4.631,4.631,0,0,1,.716,3.332L92.241-4.1H86.414a2.041,2.041,0,0,0,.448,1.477,1.711,1.711,0,0,0,1.318.571A3.041,3.041,0,0,0,90.554-3.1L91.688-1.7A3.527,3.527,0,0,1,90.141-.435,5.059,5.059,0,0,1,87.97,0Zm.791-7.813a1.761,1.761,0,0,0-1.217.431,3.784,3.784,0,0,0-.954,1.556H90l.053-.229a2.33,2.33,0,0,0,.009-.668,1.276,1.276,0,0,0-.431-.8A1.35,1.35,0,0,0,88.761-7.813ZM97.014-3.8l2.716-5.889h2.76L96.926,1.257a4.76,4.76,0,0,1-1.4,1.846,3.063,3.063,0,0,1-1.859.589,5.665,5.665,0,0,1-1.2-.185l.185-1.934L93,1.591A1.858,1.858,0,0,0,94.772.7l.545-1.011L93.762-9.686h2.566Z" transform="translate(861.5 11165.316)" fill="#ff5f65"/>
        <path id="Trazado_120482" data-name="Trazado 120482" d="M4.061-3.621,6.776-9.51h2.76L3.973,1.433a4.76,4.76,0,0,1-1.4,1.846,3.063,3.063,0,0,1-1.859.589,5.665,5.665,0,0,1-1.2-.185L-.3,1.749l.343.018A1.858,1.858,0,0,0,1.819.879L2.364-.132.809-9.51H3.375Zm9.334,3.8a4.137,4.137,0,0,1-2.21-.611A3.7,3.7,0,0,1,9.747-2.087,4.605,4.605,0,0,1,9.378-4.4L9.4-4.755A6.148,6.148,0,0,1,10.213-7.3a4.884,4.884,0,0,1,1.74-1.789,4.306,4.306,0,0,1,2.355-.593A3.29,3.29,0,0,1,17.09-8.334,4.631,4.631,0,0,1,17.807-5L17.666-3.92H11.839a2.041,2.041,0,0,0,.448,1.477,1.711,1.711,0,0,0,1.318.571,3.041,3.041,0,0,0,2.373-1.055l1.134,1.406A3.527,3.527,0,0,1,15.565-.259,5.059,5.059,0,0,1,13.395.176Zm.791-7.813a1.761,1.761,0,0,0-1.217.431,3.784,3.784,0,0,0-.954,1.556h3.41l.053-.229a2.33,2.33,0,0,0,.009-.668,1.276,1.276,0,0,0-.431-.8A1.35,1.35,0,0,0,14.186-7.638Zm9.729,4.957q.141-.7-.976-1.02l-.8-.2q-2.839-.782-2.76-2.76a2.731,2.731,0,0,1,1.191-2.193,4.434,4.434,0,0,1,2.764-.831,3.978,3.978,0,0,1,2.6.853,2.809,2.809,0,0,1,1.011,2.224l-2.461-.009a1.084,1.084,0,0,0-1.213-1.239,1.745,1.745,0,0,0-1.006.29,1.194,1.194,0,0,0-.523.782q-.132.7,1.063.993l.352.079a7.071,7.071,0,0,1,1.854.664A2.8,2.8,0,0,1,26-4.122a2.3,2.3,0,0,1,.321,1.327,2.533,2.533,0,0,1-.584,1.582A3.577,3.577,0,0,1,24.209-.167a5.328,5.328,0,0,1-2.043.343,4.015,4.015,0,0,1-2.637-.91,2.933,2.933,0,0,1-1.072-2.307l2.338.018a1.285,1.285,0,0,0,1.459,1.38,2.076,2.076,0,0,0,1.129-.281A1.111,1.111,0,0,0,23.915-2.681Zm8.578-9.167L32.08-9.51h1.582l-.325,1.863H31.755l-.809,4.764a1.211,1.211,0,0,0,.07.686q.123.237.6.255.141.009.756-.044L32.194-.044a4.169,4.169,0,0,1-1.424.2,2.234,2.234,0,0,1-1.819-.765,2.763,2.763,0,0,1-.492-2.021l.817-5.019H27.932l.325-1.863H29.6l.4-2.338ZM37.969.176a4.137,4.137,0,0,1-2.21-.611,3.7,3.7,0,0,1-1.437-1.652A4.605,4.605,0,0,1,33.952-4.4l.026-.352A6.148,6.148,0,0,1,34.787-7.3a4.884,4.884,0,0,1,1.74-1.789,4.306,4.306,0,0,1,2.355-.593,3.29,3.29,0,0,1,2.782,1.351A4.631,4.631,0,0,1,42.381-5L42.24-3.92H36.413a2.041,2.041,0,0,0,.448,1.477,1.711,1.711,0,0,0,1.318.571,3.041,3.041,0,0,0,2.373-1.055l1.134,1.406A3.527,3.527,0,0,1,40.14-.259,5.059,5.059,0,0,1,37.969.176Zm.791-7.813a1.761,1.761,0,0,0-1.217.431,3.784,3.784,0,0,0-.954,1.556H40l.053-.229a2.33,2.33,0,0,0,.009-.668,1.276,1.276,0,0,0-.431-.8A1.35,1.35,0,0,0,38.76-7.638Zm10.731.51a5.117,5.117,0,0,0-.835-.088,2.4,2.4,0,0,0-2.1.993L45.457,0H42.979l1.652-9.51,2.329-.009-.229,1.16A2.615,2.615,0,0,1,48.946-9.7a3.615,3.615,0,0,1,.861.123Zm4.667-2.566A2.706,2.706,0,0,1,56.3-8.631l.932-4.869h2.487L57.384,0H55.169l.141-1.02a3.078,3.078,0,0,1-2.479,1.2,2.738,2.738,0,0,1-1.556-.466A2.933,2.933,0,0,1,50.243-1.6a5.292,5.292,0,0,1-.4-1.912,7.2,7.2,0,0,1,.026-1.072l.053-.4a7.613,7.613,0,0,1,.813-2.566,4.237,4.237,0,0,1,1.477-1.644A3.481,3.481,0,0,1,54.158-9.694Zm-1.8,5.115a7.118,7.118,0,0,0-.044,1.125q.088,1.547,1.248,1.573a2.121,2.121,0,0,0,1.819-.984l.677-3.779a1.4,1.4,0,0,0-1.371-.984,1.806,1.806,0,0,0-1.507.7A4.7,4.7,0,0,0,52.356-4.579ZM64.863,0a2.566,2.566,0,0,1-.1-.861A3.221,3.221,0,0,1,62.341.176a2.919,2.919,0,0,1-2.07-.813A2.46,2.46,0,0,1,59.5-2.6a2.843,2.843,0,0,1,1.305-2.386,5.924,5.924,0,0,1,3.335-.831L65.3-5.8l.123-.571a1.984,1.984,0,0,0,.026-.554.952.952,0,0,0-.312-.646,1.075,1.075,0,0,0-.708-.242,1.514,1.514,0,0,0-.984.286,1.384,1.384,0,0,0-.519.875l-2.487.009a2.764,2.764,0,0,1,1.252-2.21,4.851,4.851,0,0,1,2.94-.831,3.507,3.507,0,0,1,2.531.962,2.816,2.816,0,0,1,.765,2.386L67.2-1.784l-.044.563a2.714,2.714,0,0,0,.149,1.055L67.3,0ZM62.956-1.749a2.27,2.27,0,0,0,1.872-.932l.308-1.644-.861-.009A2.406,2.406,0,0,0,62.3-3.5a1.454,1.454,0,0,0-.272.712.844.844,0,0,0,.2.751A1,1,0,0,0,62.956-1.749Zm9.888-1.872L75.56-9.51h2.76L72.756,1.433a4.76,4.76,0,0,1-1.4,1.846,3.063,3.063,0,0,1-1.859.589,5.665,5.665,0,0,1-1.2-.185l.185-1.934.343.018A1.858,1.858,0,0,0,70.6.879l.545-1.011L69.592-9.51h2.566Zm6.548,1a1.373,1.373,0,0,1,1.006.365,1.249,1.249,0,0,1,.417.962,1.3,1.3,0,0,1-.387.989,1.343,1.343,0,0,1-.993.409,1.355,1.355,0,0,1-.993-.352,1.293,1.293,0,0,1-.422-.958A1.306,1.306,0,0,1,78.4-2.2,1.392,1.392,0,0,1,79.392-2.619Zm5.159,0a1.373,1.373,0,0,1,1.006.365,1.249,1.249,0,0,1,.417.962,1.3,1.3,0,0,1-.387.989,1.343,1.343,0,0,1-.993.409A1.355,1.355,0,0,1,83.6-.246,1.293,1.293,0,0,1,83.18-1.2a1.306,1.306,0,0,1,.378-.993A1.392,1.392,0,0,1,84.551-2.619Zm5.159,0a1.373,1.373,0,0,1,1.006.365,1.249,1.249,0,0,1,.417.962,1.3,1.3,0,0,1-.387.989,1.343,1.343,0,0,1-.993.409,1.355,1.355,0,0,1-.993-.352,1.293,1.293,0,0,1-.422-.958,1.306,1.306,0,0,1,.378-.993A1.392,1.392,0,0,1,89.71-2.619Z" transform="translate(1098.5 11126.35)" fill="#ff5f65"/>
        <path id="Trazado_120492" data-name="Trazado 120492" d="M5.528,0a2.566,2.566,0,0,1-.1-.861A3.221,3.221,0,0,1,3.006.176,2.919,2.919,0,0,1,.936-.637,2.46,2.46,0,0,1,.167-2.6,2.843,2.843,0,0,1,1.472-4.988a5.924,5.924,0,0,1,3.335-.831l1.16.018.123-.571a1.984,1.984,0,0,0,.026-.554.952.952,0,0,0-.312-.646A1.075,1.075,0,0,0,5.1-7.813a1.514,1.514,0,0,0-.984.286,1.384,1.384,0,0,0-.519.875l-2.487.009A2.764,2.764,0,0,1,2.36-8.855,4.851,4.851,0,0,1,5.3-9.686a3.507,3.507,0,0,1,2.531.962A2.816,2.816,0,0,1,8.6-6.337L7.866-1.784l-.044.563A2.714,2.714,0,0,0,7.972-.167L7.963,0ZM3.621-1.749a2.27,2.27,0,0,0,1.872-.932L5.8-4.324l-.861-.009A2.406,2.406,0,0,0,2.962-3.5a1.454,1.454,0,0,0-.272.712.844.844,0,0,0,.2.751A1,1,0,0,0,3.621-1.749Zm9.773-7.77-.211,1.125a3.422,3.422,0,0,1,2.769-1.292,2.281,2.281,0,0,1,1.986.984A3.966,3.966,0,0,1,18.4-6.047L17.4,0H14.924l1.02-6.073a2.844,2.844,0,0,0,.018-.624,1.007,1.007,0,0,0-1.125-.923,2.133,2.133,0,0,0-1.749.905L11.9,0H9.422l1.652-9.51Zm6.425,4.755a6.58,6.58,0,0,1,1.437-3.582,3.647,3.647,0,0,1,2.958-1.349,2.667,2.667,0,0,1,2.268,1.1l.325-.923,2.276.009L27.527-.325A4.481,4.481,0,0,1,25.91,2.681a5.03,5.03,0,0,1-3.375,1.072,4.689,4.689,0,0,1-1.881-.426,4.022,4.022,0,0,1-1.477-1.121L20.408.694a2.642,2.642,0,0,0,2.074,1.081,2.436,2.436,0,0,0,1.652-.505,2.7,2.7,0,0,0,.932-1.525l.141-.571a3.092,3.092,0,0,1-2.329,1A2.732,2.732,0,0,1,20.672-.857a4.44,4.44,0,0,1-.9-2.641A8.876,8.876,0,0,1,19.819-4.764Zm2.435,1.043A2.273,2.273,0,0,0,22.6-2.4a1.215,1.215,0,0,0,1.006.524A2.219,2.219,0,0,0,25.4-2.735l.738-4.031a1.458,1.458,0,0,0-1.4-.863,1.944,1.944,0,0,0-1.608.766,4.006,4.006,0,0,0-.826,2.1A9.241,9.241,0,0,0,22.254-3.721ZM35.912-7.128a5.117,5.117,0,0,0-.835-.088,2.4,2.4,0,0,0-2.1.993L31.878,0H29.4l1.652-9.51,2.329-.009-.229,1.16A2.615,2.615,0,0,1,35.367-9.7a3.615,3.615,0,0,1,.861.123Zm3.981,3.507L42.609-9.51h2.76L39.806,1.433a4.76,4.76,0,0,1-1.4,1.846,3.063,3.063,0,0,1-1.859.589,5.665,5.665,0,0,1-1.2-.185l.185-1.934.343.018A1.858,1.858,0,0,0,37.652.879L38.2-.132,36.642-9.51h2.566Zm6.609,1a1.373,1.373,0,0,1,1.006.365,1.249,1.249,0,0,1,.417.962A1.3,1.3,0,0,1,47.54-.3a1.343,1.343,0,0,1-.993.409,1.355,1.355,0,0,1-.993-.352,1.293,1.293,0,0,1-.422-.958A1.306,1.306,0,0,1,45.51-2.2,1.392,1.392,0,0,1,46.5-2.619Zm4.034,0a1.373,1.373,0,0,1,1.006.365,1.249,1.249,0,0,1,.417.962,1.3,1.3,0,0,1-.387.989,1.343,1.343,0,0,1-.993.409,1.355,1.355,0,0,1-.993-.352,1.293,1.293,0,0,1-.422-.958,1.306,1.306,0,0,1,.378-.993A1.392,1.392,0,0,1,50.537-2.619Zm3.955,0a1.373,1.373,0,0,1,1.006.365,1.249,1.249,0,0,1,.417.962,1.3,1.3,0,0,1-.387.989,1.343,1.343,0,0,1-.993.409,1.355,1.355,0,0,1-.993-.352,1.293,1.293,0,0,1-.422-.958A1.306,1.306,0,0,1,53.5-2.2,1.392,1.392,0,0,1,54.492-2.619Z" transform="translate(1098.5 11168.35)" fill="#ff5f65"/>
        <path id="Trazado_120493" data-name="Trazado 120493" d="M5.528,0a2.566,2.566,0,0,1-.1-.861A3.221,3.221,0,0,1,3.006.176,2.919,2.919,0,0,1,.936-.637,2.46,2.46,0,0,1,.167-2.6,2.843,2.843,0,0,1,1.472-4.988a5.924,5.924,0,0,1,3.335-.831l1.16.018.123-.571a1.984,1.984,0,0,0,.026-.554.952.952,0,0,0-.312-.646A1.075,1.075,0,0,0,5.1-7.813a1.514,1.514,0,0,0-.984.286,1.384,1.384,0,0,0-.519.875l-2.487.009A2.764,2.764,0,0,1,2.36-8.855,4.851,4.851,0,0,1,5.3-9.686a3.507,3.507,0,0,1,2.531.962A2.816,2.816,0,0,1,8.6-6.337L7.866-1.784l-.044.563A2.714,2.714,0,0,0,7.972-.167L7.963,0ZM3.621-1.749a2.27,2.27,0,0,0,1.872-.932L5.8-4.324l-.861-.009A2.406,2.406,0,0,0,2.962-3.5a1.454,1.454,0,0,0-.272.712.844.844,0,0,0,.2.751A1,1,0,0,0,3.621-1.749Zm15.8-.932q.141-.7-.976-1.02l-.8-.2q-2.839-.782-2.76-2.76A2.731,2.731,0,0,1,16.08-8.855a4.434,4.434,0,0,1,2.764-.831,3.978,3.978,0,0,1,2.6.853,2.809,2.809,0,0,1,1.011,2.224L20-6.618a1.084,1.084,0,0,0-1.213-1.239,1.745,1.745,0,0,0-1.006.29,1.194,1.194,0,0,0-.523.782q-.132.7,1.063.993l.352.079a7.071,7.071,0,0,1,1.854.664,2.8,2.8,0,0,1,.989.927,2.3,2.3,0,0,1,.321,1.327,2.533,2.533,0,0,1-.584,1.582A3.577,3.577,0,0,1,19.718-.167a5.328,5.328,0,0,1-2.043.343,4.015,4.015,0,0,1-2.637-.91,2.933,2.933,0,0,1-1.072-2.307l2.338.018a1.285,1.285,0,0,0,1.459,1.38,2.076,2.076,0,0,0,1.129-.281A1.111,1.111,0,0,0,19.424-2.681ZM28-11.848,27.589-9.51h1.582l-.325,1.863H27.264l-.809,4.764a1.211,1.211,0,0,0,.07.686q.123.237.6.255.141.009.756-.044L27.7-.044a4.169,4.169,0,0,1-1.424.2A2.234,2.234,0,0,1,24.46-.606a2.763,2.763,0,0,1-.492-2.021l.817-5.019H23.44l.325-1.863H25.11l.4-2.338ZM34.849-.984A3.283,3.283,0,0,1,32.229.176a2.443,2.443,0,0,1-2.074-.984,3.6,3.6,0,0,1-.545-2.549L30.639-9.51h2.479L32.071-3.324a2.446,2.446,0,0,0-.009.545.9.9,0,0,0,.976.906,2.265,2.265,0,0,0,1.907-.889L36.132-9.51h2.5L36.976,0H34.664Zm8.692-8.71a2.706,2.706,0,0,1,2.145,1.063l.932-4.869H49.1L46.767,0H44.552l.141-1.02a3.078,3.078,0,0,1-2.479,1.2,2.738,2.738,0,0,1-1.556-.466A2.933,2.933,0,0,1,39.625-1.6a5.292,5.292,0,0,1-.4-1.912,7.2,7.2,0,0,1,.026-1.072l.053-.4a7.613,7.613,0,0,1,.813-2.566,4.237,4.237,0,0,1,1.477-1.644A3.481,3.481,0,0,1,43.541-9.694Zm-1.8,5.115A7.118,7.118,0,0,0,41.7-3.454q.088,1.547,1.248,1.573a2.121,2.121,0,0,0,1.819-.984l.677-3.779a1.4,1.4,0,0,0-1.371-.984,1.806,1.806,0,0,0-1.507.7A4.7,4.7,0,0,0,41.739-4.579ZM53.262.176a4.137,4.137,0,0,1-2.21-.611,3.7,3.7,0,0,1-1.437-1.652A4.605,4.605,0,0,1,49.245-4.4l.026-.352A6.148,6.148,0,0,1,50.08-7.3a4.884,4.884,0,0,1,1.74-1.789,4.306,4.306,0,0,1,2.355-.593,3.29,3.29,0,0,1,2.782,1.351A4.631,4.631,0,0,1,57.674-5L57.533-3.92H51.706a2.041,2.041,0,0,0,.448,1.477,1.711,1.711,0,0,0,1.318.571,3.041,3.041,0,0,0,2.373-1.055l1.134,1.406A3.527,3.527,0,0,1,55.433-.259,5.059,5.059,0,0,1,53.262.176Zm.791-7.813a1.761,1.761,0,0,0-1.217.431,3.784,3.784,0,0,0-.954,1.556h3.41l.053-.229a2.33,2.33,0,0,0,.009-.668,1.276,1.276,0,0,0-.431-.8A1.35,1.35,0,0,0,54.053-7.638Zm8.139-1.881L61.98-8.394a3.422,3.422,0,0,1,2.769-1.292,2.281,2.281,0,0,1,1.986.984A3.966,3.966,0,0,1,67.2-6.047L66.2,0H63.721l1.02-6.073a2.844,2.844,0,0,0,.018-.624,1.007,1.007,0,0,0-1.125-.923,2.133,2.133,0,0,0-1.749.905L60.7,0H58.219l1.652-9.51Zm10.978-2.329L72.756-9.51h1.582l-.325,1.863H72.431l-.809,4.764a1.211,1.211,0,0,0,.07.686q.123.237.6.255.141.009.756-.044L72.87-.044a4.169,4.169,0,0,1-1.424.2,2.234,2.234,0,0,1-1.819-.765,2.763,2.763,0,0,1-.492-2.021l.817-5.019H68.607l.325-1.863h1.345l.4-2.338ZM75.92-2.619a1.373,1.373,0,0,1,1.006.365,1.249,1.249,0,0,1,.417.962,1.3,1.3,0,0,1-.387.989,1.343,1.343,0,0,1-.993.409,1.355,1.355,0,0,1-.993-.352,1.293,1.293,0,0,1-.422-.958,1.306,1.306,0,0,1,.378-.993A1.392,1.392,0,0,1,75.92-2.619Zm4.034,0a1.373,1.373,0,0,1,1.006.365,1.249,1.249,0,0,1,.417.962,1.3,1.3,0,0,1-.387.989A1.343,1.343,0,0,1,80,.105,1.355,1.355,0,0,1,79-.246a1.293,1.293,0,0,1-.422-.958,1.306,1.306,0,0,1,.378-.993A1.392,1.392,0,0,1,79.954-2.619Zm3.955,0a1.373,1.373,0,0,1,1.006.365,1.249,1.249,0,0,1,.417.962,1.3,1.3,0,0,1-.387.989,1.343,1.343,0,0,1-.993.409,1.355,1.355,0,0,1-.993-.352,1.293,1.293,0,0,1-.422-.958,1.306,1.306,0,0,1,.378-.993A1.392,1.392,0,0,1,83.909-2.619Z" transform="translate(1098.5 11210.35)" fill="#ff5f65"/>
        <line id="Línea_222" data-name="Línea 222" x2="160" transform="translate(841.5 11141.5)" fill="none" stroke="#3c3fa7" stroke-width="2"/>
        <line id="Línea_223" data-name="Línea 223" x2="143" transform="translate(619 11141.5)" fill="none" stroke="#3c3fa7" stroke-width="2"/>
        <path id="Trazado_120517" data-name="Trazado 120517" d="M2.927,0H.352L2.566-12.8H5.142ZM6.868.578H4.917l6.979-13.9h1.96ZM17.5-8.8a3.314,3.314,0,0,1,2.575-1.23,2.411,2.411,0,0,1,2.079,1.015,3.991,3.991,0,0,1,.5,2.676l-1,5.994H19.175L20.186-6.37A2.921,2.921,0,0,0,20.2-7,1,1,0,0,0,19.1-7.98a2.141,2.141,0,0,0-1.758.862l-1.2,6.775H13.664L16-13.843h2.487ZM28.1-.167a4.137,4.137,0,0,1-2.21-.611A3.7,3.7,0,0,1,24.457-2.43a4.605,4.605,0,0,1-.369-2.316l.026-.352a6.148,6.148,0,0,1,.809-2.549,4.884,4.884,0,0,1,1.74-1.789,4.306,4.306,0,0,1,2.355-.593A3.29,3.29,0,0,1,31.8-8.677a4.631,4.631,0,0,1,.716,3.332l-.141,1.083H26.549A2.041,2.041,0,0,0,27-2.786a1.711,1.711,0,0,0,1.318.571A3.041,3.041,0,0,0,30.688-3.27l1.134,1.406A3.527,3.527,0,0,1,30.275-.6,5.059,5.059,0,0,1,28.1-.167ZM28.9-7.98a1.761,1.761,0,0,0-1.217.431,3.784,3.784,0,0,0-.954,1.556h3.41l.053-.229a2.33,2.33,0,0,0,.009-.668,1.276,1.276,0,0,0-.431-.8A1.35,1.35,0,0,0,28.9-7.98ZM34.811.578H32.859l6.979-13.9H41.8ZM45.73-2.927q.141-.7-.976-1.02l-.8-.2q-2.839-.782-2.76-2.76A2.731,2.731,0,0,1,42.386-9.1a4.434,4.434,0,0,1,2.764-.831,3.978,3.978,0,0,1,2.6.853,2.809,2.809,0,0,1,1.011,2.224L46.3-6.864A1.084,1.084,0,0,0,45.089-8.1a1.745,1.745,0,0,0-1.006.29,1.194,1.194,0,0,0-.523.782q-.132.7,1.063.993l.352.079a7.071,7.071,0,0,1,1.854.664,2.8,2.8,0,0,1,.989.927,2.3,2.3,0,0,1,.321,1.327,2.533,2.533,0,0,1-.584,1.582A3.577,3.577,0,0,1,46.025-.413a5.328,5.328,0,0,1-2.043.343,4.015,4.015,0,0,1-2.637-.91,2.933,2.933,0,0,1-1.072-2.307l2.338.018a1.285,1.285,0,0,0,1.459,1.38A2.076,2.076,0,0,0,45.2-2.171,1.111,1.111,0,0,0,45.73-2.927ZM53.061-8.7a3.314,3.314,0,0,1,2.575-1.23,2.411,2.411,0,0,1,2.079,1.015,3.991,3.991,0,0,1,.5,2.676l-1,5.994H54.73l1.011-6.028a2.921,2.921,0,0,0,.018-.633,1,1,0,0,0-1.107-.977,2.141,2.141,0,0,0-1.758.862L51.7-.246H49.22l2.338-13.5h2.487ZM63.66-.07a4.137,4.137,0,0,1-2.21-.611,3.7,3.7,0,0,1-1.437-1.652,4.605,4.605,0,0,1-.369-2.316L59.67-5a6.148,6.148,0,0,1,.809-2.549,4.884,4.884,0,0,1,1.74-1.789,4.306,4.306,0,0,1,2.355-.593A3.29,3.29,0,0,1,67.356-8.58a4.631,4.631,0,0,1,.716,3.332l-.141,1.083H62.1a2.041,2.041,0,0,0,.448,1.477,1.711,1.711,0,0,0,1.318.571,3.041,3.041,0,0,0,2.373-1.055l1.134,1.406A3.527,3.527,0,0,1,65.831-.505,5.059,5.059,0,0,1,63.66-.07Zm.791-7.813a1.761,1.761,0,0,0-1.217.431A3.784,3.784,0,0,0,62.28-5.9h3.41l.053-.229a2.33,2.33,0,0,0,.009-.668,1.276,1.276,0,0,0-.431-.8A1.35,1.35,0,0,0,64.451-7.884ZM70.116.578H68.165l6.979-13.9H77.1ZM80.242-.343h-2.5L79.4-9.853h2.5ZM79.688-12.27a1.238,1.238,0,0,1,.387-.976,1.36,1.36,0,0,1,.976-.387,1.367,1.367,0,0,1,.976.343,1.233,1.233,0,0,1,.431.932,1.273,1.273,0,0,1-.365.949,1.367,1.367,0,0,1-1,.422,1.39,1.39,0,0,1-.971-.334A1.227,1.227,0,0,1,79.688-12.27Zm7.682.079-.413,2.338h1.582l-.325,1.863H86.632l-.809,4.764a1.211,1.211,0,0,0,.07.686q.123.237.6.255.141.009.756-.044L87.071-.387a4.169,4.169,0,0,1-1.424.2,2.234,2.234,0,0,1-1.819-.765,2.763,2.763,0,0,1-.492-2.021l.817-5.019H82.809l.325-1.863h1.345l.4-2.338Z" transform="translate(862.159 11122.024)" fill="#ff5f65"/>
      </g>
    </g>
  </g>
</svg>
